SplineFontDB: 3.0
FontName: IranianSansWeb-Bold
FullName: Iranian Sans Web Bold
FamilyName: Iranian Sans Web
Weight: Bold
Copyright: Copyright (c) 2014, font-store.ir <http://font-store.ir|info@font-store.ir>,with Reserved Font Name Iranian Sans .\n\nThis Font Software is licensed under the SIL Open Font License, Version 1.1.\nThis license is copied below, and is also available with a FAQ at:\nhttp://scripts.sil.org/OFL
Version: 5.0.2 build 3/9/1393
ItalicAngle: 0
UnderlinePosition: -47
UnderlineWidth: 125
Ascent: 760
Descent: 240
InvalidEm: 0
sfntRevision: 0x00010000
woffMajor: 5
woffMinor: 0
LayerCount: 2
Layer: 0 0 "Back" 1
Layer: 1 0 "Fore" 0
XUID: [1021 425 1075855985 19871]
StyleMap: 0x0020
FSType: 0
OS2Version: 3
OS2_WeightWidthSlopeOnly: 0
OS2_UseTypoMetrics: 0
CreationTime: 1159105020
ModificationTime: 1416858918
PfmFamily: 81
TTFWeight: 700
TTFWidth: 5
LineGap: 0
VLineGap: 0
Panose: 1 0 5 0 0 0 0 2 0 2
OS2TypoAscent: 760
OS2TypoAOffset: 0
OS2TypoDescent: -240
OS2TypoDOffset: 0
OS2TypoLinegap: 200
OS2WinAscent: 928
OS2WinAOffset: 0
OS2WinDescent: 236
OS2WinDOffset: 0
HheadAscent: 928
HheadAOffset: 0
HheadDescent: -236
HheadDOffset: 0
OS2SubXSize: 660
OS2SubYSize: 600
OS2SubXOff: 0
OS2SubYOff: -218
OS2SupXSize: 660
OS2SupYSize: 600
OS2SupXOff: 0
OS2SupYOff: 291
OS2StrikeYSize: 126
OS2StrikeYPos: 300
OS2Vendor: 'RITA'
OS2CodePages: 00000040.20080000
OS2UnicodeRanges: 80002003.80002042.00000008.00000000
Lookup: 4 1 0 "'ccmp' Glyph Composition/Decomposition in Arabic lookup 0" { "'ccmp' Glyph Composition/Decomposition in Arabic lookup 0 subtable"  } ['ccmp' ('arab' <'ARA ' 'dflt' > ) ]
Lookup: 1 1 0 "'isol' Isolated Forms in Arabic lookup 1" { "'isol' Isolated Forms in Arabic lookup 1 subtable"  } ['isol' ('arab' <'ARA ' 'dflt' > ) ]
Lookup: 1 9 0 "'fina' Terminal Forms in Arabic lookup 2" { "'fina' Terminal Forms in Arabic lookup 2 subtable"  } ['fina' ('arab' <'ARA ' 'dflt' > ) ]

StartChar: .notdef
Encoding: 65536 -1 0
Width: 600
GlyphClass: 2
Flags: W
LayerCount: 2
Fore
SplineSet
494 -167 m 1
 494 603 l 1
 106 603 l 1
 106 -167 l 1
 494 -167 l 1
550 -223 m 1
 50 -223 l 1
 50 659 l 1
 550 659 l 1
 550 -223 l 1
EndSplineSet
EndChar

StartChar: exclam
Encoding: 33 33 4
Width: 456
GlyphClass: 2
Flags: W
LayerCount: 2
Fore
SplineSet
140 127 m 1
 316 127 l 1
 316 -46 l 1
 140 -46 l 1
 140 127 l 1
140 683 m 1
 316 683 l 1
 316 403 l 1
 291 199 l 1
 165 199 l 1
 140 403 l 1
 140 683 l 1
EndSplineSet
Substitution2: "'calt' Contextual Alternates in Arabic lookup 7 subtable" exclam.fa
EndChar

StartChar: quotedbl
Encoding: 34 34 5
Width: 520
GlyphClass: 2
Flags: W
LayerCount: 2
Fore
SplineSet
211 683 m 1
 211 412 l 1
 95 412 l 1
 95 683 l 1
 211 683 l 1
426 683 m 1
 426 412 l 1
 310 412 l 1
 310 683 l 1
 426 683 l 1
EndSplineSet
EndChar

StartChar: numbersign
Encoding: 35 35 6
Width: 837
GlyphClass: 2
Flags: W
LayerCount: 2
Fore
SplineSet
500 379 m 1
 371 379 l 1
 337 246 l 1
 466 246 l 1
 500 379 l 1
445 671 m 1
 398 483 l 1
 527 483 l 1
 574 671 l 1
 682 671 l 1
 635 483 l 1
 770 483 l 1
 770 379 l 1
 609 379 l 1
 575 246 l 1
 714 246 l 1
 714 141 l 1
 550 141 l 1
 503 -46 l 1
 395 -46 l 1
 442 141 l 1
 313 141 l 1
 266 -46 l 1
 157 -46 l 1
 204 141 l 1
 68 141 l 1
 68 246 l 1
 228 246 l 1
 262 379 l 1
 124 379 l 1
 124 483 l 1
 289 483 l 1
 336 671 l 1
 445 671 l 1
EndSplineSet
EndChar

StartChar: dollar
Encoding: 36 36 7
Width: 695
GlyphClass: 2
Flags: W
LayerCount: 2
Fore
SplineSet
388 67 m 1
 445 67 473 89 473 132 c 0
 473 183 440 198 388 203 c 1
 388 67 l 1
309 489 m 1
 268 487 233 468 233 428 c 0
 233 390 258 368 309 362 c 1
 309 489 l 1
388 603 m 1
 458 597 521 586 584 569 c 1
 584 445 l 1
 520 472 454 487 388 491 c 1
 388 351 l 1
 404 348 l 2
 487 335 545 312 578 282 c 0
 612 252 628 207 628 147 c 0
 628 28 548 -36 388 -45 c 1
 388 -193 l 1
 309 -193 l 1
 309 -46 l 1
 221 -42 148 -28 79 -1 c 1
 79 126 l 1
 154 87 230 67 309 65 c 1
 309 217 l 1
 293 220 l 2
 215 234 160 255 127 284 c 0
 94 313 78 356 78 411 c 0
 78 545 180 594 309 601 c 1
 309 713 l 1
 388 713 l 1
 388 603 l 1
EndSplineSet
EndChar

StartChar: percent
Encoding: 37 37 8
Width: 1001
GlyphClass: 2
Flags: W
LayerCount: 2
Fore
SplineSet
300 498 m 0
 300 559 282 614 227 614 c 0
 172 614 154 559 154 498 c 0
 154 437 172 380 227 380 c 0
 282 380 300 437 300 498 c 0
32 498 m 0
 32 620 105 696 227 696 c 0
 349 696 422 620 422 498 c 0
 422 376 349 299 227 299 c 0
 105 299 32 375 32 498 c 0
327 -61 m 1
 219 -61 l 1
 675 696 l 1
 783 696 l 1
 327 -61 l 1
579 139 m 0
 579 261 653 336 775 336 c 0
 897 336 970 261 970 139 c 0
 970 17 897 -61 775 -61 c 0
 653 -61 579 17 579 139 c 0
847 139 m 0
 847 201 831 254 775 254 c 0
 720 254 702 201 702 139 c 0
 702 77 720 22 775 22 c 0
 831 22 847 77 847 139 c 0
EndSplineSet
EndChar

StartChar: ampersand
Encoding: 38 38 9
Width: 872
GlyphClass: 2
Flags: W
LayerCount: 2
Fore
SplineSet
229 201 m 0
 229 126 295 65 370 65 c 0
 413 65 451 78 484 105 c 1
 293 316 l 1
 250 285 229 247 229 201 c 0
422 578 m 0
 379 578 343 563 343 522 c 0
 343 501 358 473 390 438 c 2
 590 218 l 1
 625 263 641 317 645 391 c 1
 797 391 l 1
 787 269 752 180 687 111 c 1
 830 -46 l 1
 623 -46 l 1
 575 7 l 1
 507 -38 431 -61 347 -61 c 0
 188 -61 60 29 60 182 c 0
 60 229 72 271 95 308 c 0
 118 344 156 380 209 415 c 1
 186 444 169 475 169 521 c 0
 169 637 274 696 396 696 c 0
 455 696 520 686 589 667 c 1
 589 532 l 1
 558 548 529 559 502 566 c 0
 475 573 448 578 422 578 c 0
EndSplineSet
EndChar

StartChar: quotesingle
Encoding: 39 39 10
Width: 306
GlyphClass: 2
Flags: W
LayerCount: 2
Fore
SplineSet
211 683 m 1
 211 412 l 1
 95 412 l 1
 95 683 l 1
 211 683 l 1
EndSplineSet
EndChar

StartChar: parenleft
Encoding: 40 40 11
Width: 457
GlyphClass: 2
Flags: W
LayerCount: 2
Fore
SplineSet
232 -178 m 1
 170 -79 117 27 95 159 c 0
 89 195 86 231 86 267 c 0
 86 338 98 410 122 483 c 0
 146 556 183 632 232 712 c 1
 377 712 l 1
 335 635 304 560 283 486 c 0
 262 412 252 340 252 268 c 0
 252 195 262 122 283 49 c 0
 304 -24 335 -100 377 -178 c 1
 232 -178 l 1
EndSplineSet
EndChar

StartChar: parenright
Encoding: 41 41 12
Width: 457
GlyphClass: 2
Flags: W
LayerCount: 2
Fore
SplineSet
80 -178 m 1
 122 -100 153 -24 174 49 c 0
 195 122 205 195 205 268 c 0
 205 340 195 412 174 486 c 0
 153 560 122 635 80 712 c 1
 225 712 l 1
 274 632 311 556 335 483 c 0
 359 410 371 338 371 267 c 0
 371 135 334 33 290 -61 c 0
 272 -99 250 -138 225 -178 c 1
 80 -178 l 1
EndSplineSet
EndChar

StartChar: asterisk
Encoding: 42 42 13
Width: 522
GlyphClass: 2
Flags: W
LayerCount: 2
Fore
SplineSet
503 548 m 1
 342 463 l 1
 503 378 l 1
 466 310 l 1
 303 399 l 1
 303 231 l 1
 220 231 l 1
 220 399 l 1
 57 310 l 1
 20 378 l 1
 183 463 l 1
 20 548 l 1
 57 617 l 1
 220 528 l 1
 220 696 l 1
 303 696 l 1
 303 528 l 1
 466 617 l 1
 503 548 l 1
EndSplineSet
EndChar

StartChar: plus
Encoding: 43 43 14
Width: 837
GlyphClass: 2
Flags: W
LayerCount: 2
Fore
SplineSet
477 581 m 1
 477 325 l 1
 732 325 l 1
 732 209 l 1
 477 209 l 1
 477 -46 l 1
 361 -46 l 1
 361 209 l 1
 106 209 l 1
 106 325 l 1
 361 325 l 1
 361 581 l 1
 477 581 l 1
EndSplineSet
EndChar

StartChar: comma
Encoding: 44 44 15
Width: 379
GlyphClass: 2
Flags: W
LayerCount: 2
Fore
SplineSet
102 143 m 1
 278 143 l 1
 278 -6 l 1
 157 -188 l 1
 53 -188 l 1
 102 -6 l 1
 102 143 l 1
EndSplineSet
EndChar

StartChar: hyphenminus
Encoding: 45 45 16
Width: 415
GlyphClass: 2
Flags: W
LayerCount: 2
Fore
SplineSet
54 312 m 1
 361 312 l 1
 361 170 l 1
 54 170 l 1
 54 312 l 1
EndSplineSet
EndChar

StartChar: period
Encoding: 46 46 17
Width: 379
GlyphClass: 2
Flags: W
LayerCount: 2
Fore
SplineSet
102 143 m 1
 278 143 l 1
 278 -46 l 1
 102 -46 l 1
 102 143 l 1
EndSplineSet
Substitution2: "'calt' Contextual Alternates in Arabic lookup 7 subtable" period.fa
EndChar

StartChar: slash
Encoding: 47 47 18
Width: 365
GlyphClass: 2
Flags: W
LayerCount: 2
Fore
SplineSet
257 683 m 1
 365 683 l 1
 108 -139 l 1
 0 -139 l 1
 257 683 l 1
EndSplineSet
EndChar

StartChar: zero
Encoding: 48 48 19
Width: 695
GlyphClass: 2
Flags: W
LayerCount: 2
Fore
SplineSet
348 696 m 0
 557 696 648 537 648 317 c 0
 648 98 556 -61 348 -61 c 0
 140 -61 48 98 48 317 c 0
 48 538 139 696 348 696 c 0
460 319 m 0
 460 410 451 474 434 511 c 0
 417 548 388 567 348 567 c 0
 307 567 279 548 262 511 c 0
 245 474 236 410 236 319 c 0
 236 227 245 162 262 124 c 0
 279 86 308 67 348 67 c 0
 388 67 417 86 434 124 c 0
 451 162 460 227 460 319 c 0
EndSplineSet
EndChar

StartChar: one
Encoding: 49 49 20
Width: 695
GlyphClass: 2
Flags: W
LayerCount: 2
Fore
SplineSet
117 83 m 1
 283 83 l 1
 283 555 l 1
 113 520 l 1
 113 647 l 1
 282 683 l 1
 461 683 l 1
 461 83 l 1
 627 83 l 1
 627 -46 l 1
 117 -46 l 1
 117 83 l 1
EndSplineSet
EndChar

StartChar: two
Encoding: 50 50 21
Width: 695
GlyphClass: 2
Flags: W
LayerCount: 2
Fore
SplineSet
328 696 m 0
 486 696 604 626 604 478 c 0
 604 438 594 401 573 366 c 0
 552 331 509 286 444 229 c 2
 288 92 l 1
 609 92 l 1
 609 -46 l 1
 79 -46 l 1
 79 92 l 1
 345 327 l 2
 369 348 387 369 398 389 c 0
 409 409 415 432 415 454 c 0
 415 524 361 567 289 567 c 0
 259 567 228 562 193 549 c 0
 158 536 121 518 81 493 c 1
 81 653 l 1
 157 678 235 696 328 696 c 0
EndSplineSet
EndChar

StartChar: three
Encoding: 51 51 22
Width: 695
GlyphClass: 2
Flags: W
LayerCount: 2
Fore
SplineSet
599 509 m 0
 599 414 546 367 466 347 c 1
 556 323 616 268 616 161 c 0
 616 88 589 33 534 -4 c 0
 479 -41 398 -61 291 -61 c 0
 216 -61 141 -48 67 -24 c 1
 67 121 l 1
 138 86 207 67 274 67 c 0
 358 67 428 91 428 167 c 0
 428 247 355 269 267 269 c 2
 192 269 l 1
 192 390 l 1
 271 390 l 2
 364 390 411 419 411 479 c 0
 411 545 354 567 282 567 c 0
 221 567 160 554 98 527 c 1
 98 665 l 1
 165 683 236 696 316 696 c 0
 505 696 599 634 599 509 c 0
EndSplineSet
EndChar

StartChar: four
Encoding: 52 52 23
Width: 695
GlyphClass: 2
Flags: W
LayerCount: 2
Fore
SplineSet
337 683 m 1
 546 683 l 1
 546 223 l 1
 650 223 l 1
 650 86 l 1
 546 86 l 1
 546 -46 l 1
 368 -46 l 1
 368 86 l 1
 45 86 l 1
 45 248 l 1
 337 683 l 1
368 528 m 1
 162 223 l 1
 368 223 l 1
 368 528 l 1
EndSplineSet
EndChar

StartChar: five
Encoding: 53 53 24
Width: 695
GlyphClass: 2
Flags: W
LayerCount: 2
Fore
SplineSet
291 315 m 0
 219 315 164 297 106 272 c 1
 106 683 l 1
 573 683 l 1
 573 544 l 1
 256 544 l 1
 256 432 l 1
 284 440 309 444 344 444 c 0
 514 444 626 356 626 191 c 0
 626 22 497 -61 321 -61 c 0
 226 -61 149 -43 77 -12 c 1
 77 136 l 1
 157 90 228 67 291 67 c 0
 375 67 438 111 438 191 c 0
 438 272 376 315 291 315 c 0
EndSplineSet
EndChar

StartChar: six
Encoding: 54 54 25
Width: 695
GlyphClass: 2
Flags: W
LayerCount: 2
Fore
SplineSet
360 -61 m 0
 154 -61 62 92 62 308 c 0
 62 428 92 522 153 591 c 0
 214 660 298 695 403 695 c 0
 469 695 532 685 594 664 c 1
 594 529 l 1
 563 544 534 554 507 561 c 0
 480 568 453 572 427 572 c 0
 308 572 250 501 241 387 c 1
 280 417 328 435 393 435 c 0
 538 435 642 341 642 198 c 0
 642 37 524 -61 360 -61 c 0
362 313 m 0
 296 313 263 271 263 186 c 0
 263 101 296 58 362 58 c 0
 428 58 461 101 461 186 c 0
 461 271 428 313 362 313 c 0
EndSplineSet
EndChar

StartChar: seven
Encoding: 55 55 26
Width: 695
GlyphClass: 2
Flags: W
LayerCount: 2
Fore
SplineSet
67 683 m 1
 616 683 l 1
 616 577 l 1
 332 -46 l 1
 149 -46 l 1
 418 544 l 1
 67 544 l 1
 67 683 l 1
EndSplineSet
EndChar

StartChar: eight
Encoding: 56 56 27
Width: 695
GlyphClass: 2
Flags: W
LayerCount: 2
Fore
SplineSet
348 578 m 0
 290 578 255 546 255 488 c 0
 255 429 289 397 348 397 c 0
 406 397 440 430 440 488 c 0
 440 547 407 578 348 578 c 0
348 -61 m 0
 178 -61 61 -1 61 159 c 0
 61 253 111 314 211 342 c 1
 122 369 77 424 77 507 c 0
 77 648 194 696 348 696 c 0
 502 696 618 649 618 507 c 0
 618 412 562 366 484 342 c 1
 584 314 634 253 634 159 c 0
 634 -1 518 -61 348 -61 c 0
456 168 m 0
 456 239 419 280 348 280 c 0
 277 280 239 239 239 168 c 0
 239 97 277 58 348 58 c 0
 419 58 456 97 456 168 c 0
EndSplineSet
EndChar

StartChar: nine
Encoding: 57 57 28
Width: 695
GlyphClass: 2
Flags: W
LayerCount: 2
Fore
SplineSet
332 321 m 0
 398 321 431 364 431 449 c 0
 431 534 398 577 332 577 c 0
 266 577 233 534 233 449 c 0
 233 364 266 321 332 321 c 0
290 -61 m 0
 216 -61 157 -49 100 -30 c 1
 100 104 l 1
 130 90 159 80 186 73 c 0
 213 66 240 62 267 62 c 0
 380 62 442 125 453 248 c 1
 413 217 366 199 301 199 c 0
 155 199 52 292 52 436 c 0
 52 597 168 695 333 695 c 0
 539 695 632 543 632 327 c 0
 632 97 513 -61 290 -61 c 0
EndSplineSet
EndChar

StartChar: colon
Encoding: 58 58 29
Width: 399
GlyphClass: 2
Flags: W
LayerCount: 2
Fore
SplineSet
112 143 m 1
 288 143 l 1
 288 -46 l 1
 112 -46 l 1
 112 143 l 1
112 500 m 1
 288 500 l 1
 288 312 l 1
 112 312 l 1
 112 500 l 1
EndSplineSet
Substitution2: "'calt' Contextual Alternates in Arabic lookup 7 subtable" colon.fa
EndChar

StartChar: semicolon
Encoding: 59 59 30
Width: 399
GlyphClass: 2
Flags: W
LayerCount: 2
Fore
SplineSet
112 500 m 1
 288 500 l 1
 288 312 l 1
 112 312 l 1
 112 500 l 1
112 143 m 1
 288 143 l 1
 288 -6 l 1
 167 -188 l 1
 63 -188 l 1
 112 -6 l 1
 112 143 l 1
EndSplineSet
EndChar

StartChar: less
Encoding: 60 60 31
Width: 837
GlyphClass: 2
Flags: W
LayerCount: 2
Fore
SplineSet
732 429 m 1
 261 267 l 1
 732 105 l 1
 732 -17 l 1
 106 209 l 1
 106 325 l 1
 732 551 l 1
 732 429 l 1
EndSplineSet
EndChar

StartChar: equal
Encoding: 61 61 32
Width: 837
GlyphClass: 2
Flags: W
LayerCount: 2
Fore
SplineSet
106 213 m 1
 732 213 l 1
 732 98 l 1
 106 98 l 1
 106 213 l 1
106 436 m 1
 732 436 l 1
 732 321 l 1
 106 321 l 1
 106 436 l 1
EndSplineSet
EndChar

StartChar: greater
Encoding: 62 62 33
Width: 837
GlyphClass: 2
Flags: W
LayerCount: 2
Fore
SplineSet
106 429 m 1
 106 551 l 1
 732 325 l 1
 732 209 l 1
 106 -17 l 1
 106 105 l 1
 577 267 l 1
 106 429 l 1
EndSplineSet
EndChar

StartChar: question
Encoding: 63 63 34
Width: 580
GlyphClass: 2
Flags: W
LayerCount: 2
Fore
SplineSet
170 127 m 1
 346 127 l 1
 346 -46 l 1
 170 -46 l 1
 170 127 l 1
271 696 m 0
 415 696 515 641 515 505 c 0
 515 473 509 444 496 419 c 0
 483 393 461 366 431 338 c 2
 400 311 l 2
 378 291 363 275 356 262 c 0
 349 250 346 236 346 222 c 2
 346 200 l 1
 170 200 l 1
 170 224 l 2
 170 251 175 273 186 294 c 0
 197 315 219 342 254 374 c 2
 285 402 l 2
 304 419 317 435 326 450 c 0
 335 465 339 480 339 495 c 0
 339 545 302 567 250 567 c 0
 177 567 122 535 69 502 c 1
 69 656 l 1
 108 670 144 679 177 686 c 0
 210 693 241 696 271 696 c 0
EndSplineSet
EndChar

StartChar: at
Encoding: 64 64 35
Width: 1000
GlyphClass: 2
Flags: W
LayerCount: 2
Fore
SplineSet
929 273 m 0
 929 91 811 -5 625 -5 c 2
 606 -5 l 1
 606 70 l 1
 587 26 545 -3 483 -3 c 0
 364 -3 294 94 294 216 c 0
 294 337 365 436 483 436 c 0
 544 436 587 405 606 362 c 1
 606 426 l 1
 708 426 l 1
 708 87 l 1
 791 101 838 173 838 271 c 0
 838 344 817 398 781 441 c 0
 726 513 634 565 514 565 c 0
 429 565 364 543 310 507 c 0
 225 451 157 352 157 219 c 0
 157 108 200 29 259 -30 c 0
 318 -87 396 -128 506 -128 c 0
 597 -128 683 -89 734 -43 c 1
 786 -123 l 1
 716 -178 621 -220 507 -220 c 0
 370 -220 268 -167 194 -95 c 0
 119 -21 66 79 66 219 c 0
 66 354 122 458 194 530 c 0
 266 600 374 657 507 657 c 0
 666 657 783 591 855 495 c 0
 898 438 929 366 929 273 c 0
501 87 m 0
 566 87 596 148 596 217 c 0
 596 286 568 345 500 345 c 0
 432 345 406 286 406 217 c 0
 406 146 432 87 501 87 c 0
EndSplineSet
EndChar

StartChar: bracketleft
Encoding: 91 91 36
Width: 457
GlyphClass: 2
Flags: W
LayerCount: 2
Fore
SplineSet
86 713 m 1
 389 713 l 1
 389 604 l 1
 252 604 l 1
 252 -68 l 1
 389 -68 l 1
 389 -178 l 1
 86 -178 l 1
 86 713 l 1
EndSplineSet
EndChar

StartChar: backslash
Encoding: 92 92 37
Width: 365
GlyphClass: 2
Flags: W
LayerCount: 2
Fore
SplineSet
257 -139 m 1
 0 683 l 1
 108 683 l 1
 365 -139 l 1
 257 -139 l 1
EndSplineSet
EndChar

StartChar: bracketright
Encoding: 93 93 38
Width: 457
GlyphClass: 2
Flags: W
LayerCount: 2
Fore
SplineSet
371 -178 m 1
 68 -178 l 1
 68 -68 l 1
 205 -68 l 1
 205 604 l 1
 68 604 l 1
 68 713 l 1
 371 713 l 1
 371 -178 l 1
EndSplineSet
EndChar

StartChar: asciicircum
Encoding: 94 94 39
Width: 837
GlyphClass: 2
Flags: W
LayerCount: 2
Fore
SplineSet
479 683 m 1
 737 411 l 1
 619 411 l 1
 419 558 l 1
 219 411 l 1
 101 411 l 1
 359 683 l 1
 479 683 l 1
EndSplineSet
EndChar

StartChar: underscore
Encoding: 95 95 40
Width: 500
GlyphClass: 2
Flags: W
LayerCount: 2
Fore
SplineSet
500 -189 m 1
 500 -282 l 1
 0 -282 l 1
 0 -189 l 1
 500 -189 l 1
EndSplineSet
EndChar

StartChar: grave
Encoding: 96 96 41
Width: 500
GlyphClass: 2
Flags: W
LayerCount: 2
Fore
SplineSet
184 753 m 1
 322 570 l 1
 226 570 l 1
 46 753 l 1
 184 753 l 1
EndSplineSet
EndChar

StartChar: braceleft
Encoding: 123 123 42
Width: 711
GlyphClass: 2
Flags: W
LayerCount: 2
Fore
SplineSet
345 252 m 1
 422 233 443 192 443 94 c 2
 443 13 l 2
 443 -34 449 -64 463 -78 c 0
 477 -92 507 -100 553 -100 c 2
 587 -100 l 1
 587 -209 l 1
 481 -209 l 2
 348 -209 277 -161 277 -29 c 2
 277 64 l 2
 277 159 249 195 155 195 c 2
 125 195 l 1
 125 304 l 1
 155 304 l 2
 249 304 277 338 277 434 c 2
 277 534 l 2
 277 665 346 713 481 713 c 2
 587 713 l 1
 587 604 l 1
 553 604 l 2
 507 604 477 596 463 582 c 0
 449 568 443 538 443 492 c 2
 443 411 l 2
 443 314 422 269 345 252 c 1
EndSplineSet
EndChar

StartChar: bar
Encoding: 124 124 43
Width: 365
GlyphClass: 2
Flags: W
LayerCount: 2
Fore
SplineSet
238 718 m 1
 238 -282 l 1
 127 -282 l 1
 127 718 l 1
 238 718 l 1
EndSplineSet
EndChar

StartChar: braceright
Encoding: 125 125 44
Width: 711
GlyphClass: 2
Flags: W
LayerCount: 2
Fore
SplineSet
557 195 m 2
 462 195 435 160 435 64 c 2
 435 -29 l 2
 435 -161 364 -209 231 -209 c 2
 125 -209 l 1
 125 -100 l 1
 159 -100 l 2
 205 -100 234 -92 248 -78 c 0
 262 -64 269 -34 269 13 c 2
 269 94 l 2
 269 192 291 233 367 252 c 1
 290 269 269 314 269 411 c 2
 269 492 l 2
 269 538 262 568 248 582 c 0
 234 596 205 604 159 604 c 2
 125 604 l 1
 125 713 l 1
 231 713 l 2
 366 713 435 665 435 534 c 2
 435 434 l 2
 435 337 462 304 557 304 c 2
 587 304 l 1
 587 195 l 1
 557 195 l 2
EndSplineSet
EndChar

StartChar: asciitilde
Encoding: 126 126 45
Width: 837
GlyphClass: 2
Flags: W
LayerCount: 2
Fore
SplineSet
732 250 m 1
 682 212 630 177 546 177 c 0
 511 177 470 186 424 205 c 2
 413 209 l 1
 402 214 l 2
 352 234 312 244 281 244 c 0
 252 244 224 238 196 225 c 0
 168 212 138 193 106 166 c 1
 106 285 l 1
 140 311 172 329 202 340 c 0
 231 351 261 357 292 357 c 0
 327 357 368 348 414 329 c 2
 425 325 l 1
 436 320 l 2
 486 300 526 291 557 291 c 0
 611 291 649 310 684 333 c 0
 699 343 715 355 732 369 c 1
 732 250 l 1
EndSplineSet
EndChar

StartChar: currency
Encoding: 164 164 46
Width: 636
GlyphClass: 2
Flags: W
LayerCount: 2
Fore
SplineSet
212 267 m 0
 212 207 258 160 319 160 c 0
 379 160 426 207 426 267 c 0
 426 326 377 374 319 374 c 0
 261 374 212 326 212 267 c 0
528 267 m 0
 528 221 517 192 499 162 c 1
 600 61 l 1
 525 -14 l 1
 424 86 l 1
 395 67 360 58 319 58 c 0
 282 58 247 66 212 84 c 1
 111 -17 l 1
 36 59 l 1
 137 160 l 1
 120 190 110 222 110 267 c 0
 110 308 119 343 139 373 c 1
 37 473 l 1
 112 548 l 1
 213 447 l 1
 244 466 279 476 319 476 c 0
 354 476 389 467 426 449 c 1
 527 550 l 1
 601 475 l 1
 500 374 l 1
 515 343 528 309 528 267 c 0
EndSplineSet
EndChar

StartChar: section
Encoding: 167 167 47
Width: 500
GlyphClass: 2
Flags: W
LayerCount: 2
Fore
SplineSet
295 184 m 1
 330 196 361 218 361 259 c 0
 361 281 349 300 327 317 c 0
 305 334 266 353 212 372 c 1
 168 354 146 328 146 296 c 0
 146 274 156 256 176 240 c 0
 196 224 235 206 295 184 c 1
258 696 m 0
 324 696 377 683 432 667 c 1
 432 557 l 1
 368 582 317 595 279 595 c 0
 230 595 205 579 205 548 c 0
 205 527 236 503 297 477 c 0
 304 474 310 472 316 469 c 0
 384 440 431 412 457 383 c 0
 483 355 496 321 496 280 c 0
 496 192 451 150 384 122 c 1
 426 99 458 69 458 11 c 0
 458 -98 354 -142 236 -142 c 0
 167 -142 116 -129 56 -113 c 1
 56 2 l 1
 93 -12 127 -21 157 -28 c 0
 187 -35 210 -39 229 -39 c 0
 262 -39 299 -25 299 5 c 0
 299 28 270 52 211 76 c 1
 141 99 74 141 46 172 c 0
 20 202 7 238 7 280 c 0
 7 348 43 398 116 431 c 1
 77 459 48 487 48 546 c 0
 48 652 145 696 258 696 c 0
EndSplineSet
EndChar

StartChar: guillemotleft
Encoding: 171 171 48
Width: 645
GlyphClass: 2
Flags: W
LayerCount: 2
Fore
SplineSet
552 473 m 1
 552 354 l 1
 409 247 l 1
 552 139 l 1
 552 21 l 1
 311 201 l 1
 311 292 l 1
 552 473 l 1
318 473 m 1
 318 354 l 1
 175 247 l 1
 318 139 l 1
 318 21 l 1
 77 201 l 1
 77 292 l 1
 318 473 l 1
EndSplineSet
Substitution2: "'calt' Contextual Alternates in Arabic lookup 7 subtable" guillemotleft.fa
EndChar

StartChar: logicalnot
Encoding: 172 172 49
Width: 837
GlyphClass: 2
Flags: W
LayerCount: 2
Fore
SplineSet
106 397 m 1
 732 397 l 1
 732 94 l 1
 617 94 l 1
 617 282 l 1
 106 282 l 1
 106 397 l 1
EndSplineSet
EndChar

StartChar: degree
Encoding: 176 176 50
Width: 500
GlyphClass: 2
Flags: W
LayerCount: 2
Fore
SplineSet
87 540 m 0
 87 631 160 703 250 703 c 0
 344 703 412 628 412 540 c 0
 412 465 367 412 313 390 c 0
 293 382 271 377 249 377 c 0
 203 377 165 393 133 424 c 0
 102 456 87 494 87 540 c 0
334 540 m 0
 334 585 296 624 250 624 c 0
 204 624 166 586 166 540 c 0
 166 492 202 457 250 457 c 0
 298 457 334 492 334 540 c 0
EndSplineSet
EndChar

StartChar: paragraph
Encoding: 182 182 51
Width: 636
GlyphClass: 2
Flags: W
LayerCount: 2
Fore
SplineSet
63 477 m 0
 63 607 163 683 295 683 c 2
 549 683 l 1
 549 -143 l 1
 456 -143 l 1
 456 611 l 1
 364 611 l 1
 364 -143 l 1
 271 -143 l 1
 271 271 l 1
 150 285 63 349 63 477 c 0
EndSplineSet
EndChar

StartChar: periodcentered
Encoding: 183 183 52
Width: 379
GlyphClass: 2
Flags: W
LayerCount: 2
Fore
SplineSet
102 396 m 1
 278 396 l 1
 278 207 l 1
 102 207 l 1
 102 396 l 1
EndSplineSet
EndChar

StartChar: guillemotright
Encoding: 187 187 53
Width: 645
GlyphClass: 2
Flags: W
LayerCount: 2
Fore
SplineSet
94 473 m 1
 334 292 l 1
 334 201 l 1
 94 21 l 1
 94 139 l 1
 237 247 l 1
 94 354 l 1
 94 473 l 1
328 473 m 1
 569 292 l 1
 569 201 l 1
 328 21 l 1
 328 139 l 1
 471 247 l 1
 328 354 l 1
 328 473 l 1
EndSplineSet
Substitution2: "'calt' Contextual Alternates in Arabic lookup 7 subtable" guillemotright.fa
EndChar

StartChar: divide
Encoding: 247 247 54
Width: 837
GlyphClass: 2
Flags: W
LayerCount: 2
Fore
SplineSet
106 325 m 1
 732 325 l 1
 732 209 l 1
 106 209 l 1
 106 325 l 1
344 539 m 1
 494 539 l 1
 494 388 l 1
 344 388 l 1
 344 539 l 1
344 146 m 1
 494 146 l 1
 494 -4 l 1
 344 -4 l 1
 344 146 l 1
EndSplineSet
EndChar

StartChar: emdash
Encoding: 8212 8212 55
Width: 1000
GlyphClass: 2
Flags: W
LayerCount: 2
Fore
SplineSet
0 291 m 1
 1000 291 l 1
 1000 165 l 1
 0 165 l 1
 0 291 l 1
EndSplineSet
EndChar

StartChar: bullet
Encoding: 8226 8226 56
Width: 639
GlyphClass: 2
Flags: W
LayerCount: 2
Fore
SplineSet
144 326 m 0
 144 409 194 463 253 488 c 0
 274 497 296 500 320 500 c 0
 403 500 457 452 482 393 c 0
 491 372 495 350 495 326 c 0
 495 243 446 188 387 163 c 0
 366 154 343 149 319 149 c 0
 238 149 182 199 157 257 c 0
 148 278 144 302 144 326 c 0
EndSplineSet
EndChar

StartChar: ellipsis
Encoding: 8230 8230 57
Width: 1000
GlyphClass: 2
Flags: W
LayerCount: 2
Fore
SplineSet
412 143 m 1
 588 143 l 1
 588 -46 l 1
 412 -46 l 1
 412 143 l 1
79 143 m 1
 255 143 l 1
 255 -46 l 1
 79 -46 l 1
 79 143 l 1
745 143 m 1
 921 143 l 1
 921 -46 l 1
 745 -46 l 1
 745 143 l 1
EndSplineSet
Substitution2: "'calt' Contextual Alternates in Arabic lookup 7 subtable" ellipsis.fa
EndChar

StartChar: multiply
Encoding: 215 215 59
Width: 837
GlyphClass: 2
Flags: W
LayerCount: 2
Fore
SplineSet
713 479 m 1
 501 267 l 1
 713 56 l 1
 631 -26 l 1
 419 185 l 1
 207 -26 l 1
 125 56 l 1
 337 267 l 1
 125 479 l 1
 207 561 l 1
 419 349 l 1
 631 561 l 1
 713 479 l 1
EndSplineSet
EndChar

StartChar: uni200C
Encoding: 8204 8204 60
Width: 0
GlyphClass: 2
Flags: W
LayerCount: 2
Fore
SplineSet
22 -437 m 1
 0 -437 l 1
 0 563 l 1
 22 563 l 1
 22 -437 l 1
EndSplineSet
EndChar

StartChar: uni200D
Encoding: 8205 8205 61
Width: 0
GlyphClass: 2
Flags: W
LayerCount: 2
Fore
SplineSet
21 -437 m 1
 0 -437 l 1
 0 470 l 1
 -42 429 l 1
 -56 443 l 1
 -4 496 l 1
 -56 548 l 1
 -42 562 l 1
 11 510 l 1
 63 562 l 1
 78 548 l 1
 25 496 l 1
 78 443 l 1
 63 429 l 1
 21 470 l 1
 21 -437 l 1
EndSplineSet
EndChar

StartChar: uni200E
Encoding: 8206 8206 62
Width: 0
GlyphClass: 2
Flags: W
LayerCount: 2
Fore
SplineSet
22 -437 m 1
 0 -437 l 1
 0 502 l 1
 106 502 l 1
 66 542 l 1
 81 557 l 1
 148 490 l 1
 81 423 l 1
 66 438 l 1
 108 480 l 1
 22 480 l 1
 22 -437 l 1
EndSplineSet
EndChar

StartChar: uni200F
Encoding: 8207 8207 63
Width: 0
GlyphClass: 2
Flags: W
LayerCount: 2
Fore
SplineSet
22 -437 m 1
 0 -437 l 1
 0 480 l 1
 -86 480 l 1
 -44 438 l 1
 -59 423 l 1
 -126 490 l 1
 -59 557 l 1
 -44 542 l 1
 -84 502 l 1
 22 502 l 1
 22 -437 l 1
EndSplineSet
EndChar

StartChar: hyphen
Encoding: 8208 8208 64
Width: 415
GlyphClass: 2
Flags: W
LayerCount: 2
Fore
SplineSet
54 312 m 1
 361 312 l 1
 361 170 l 1
 54 170 l 1
 54 312 l 1
EndSplineSet
EndChar

StartChar: Euro
Encoding: 8364 8364 65
Width: 695
GlyphClass: 2
Flags: W
LayerCount: 2
Fore
SplineSet
451 67 m 0
 530 67 583 102 629 145 c 1
 629 -6 l 1
 574 -38 508 -61 427 -61 c 0
 243 -61 131 40 87 187 c 1
 -19 187 l 1
 24 282 l 1
 72 282 l 1
 72 287 71 291 71 296 c 2
 71 339 l 2
 71 344 72 349 72 354 c 1
 -19 354 l 1
 24 450 l 1
 87 450 l 1
 133 598 243 696 427 696 c 0
 507 696 574 674 629 642 c 1
 629 491 l 1
 585 533 529 567 451 567 c 0
 359 567 307 519 280 450 c 1
 543 450 l 1
 501 354 l 1
 260 354 l 1
 259 349 259 344 259 338 c 2
 259 298 l 2
 259 293 260 288 260 282 c 1
 469 282 l 1
 426 187 l 1
 280 187 l 1
 313 108 369 67 451 67 c 0
EndSplineSet
EndChar

StartChar: minus
Encoding: 8722 8722 66
Width: 837
GlyphClass: 2
Flags: W
LayerCount: 2
Fore
SplineSet
106 325 m 1
 732 325 l 1
 732 209 l 1
 106 209 l 1
 106 325 l 1
EndSplineSet
EndChar

StartChar: uni2219
Encoding: 8729 8729 67
Width: 379
GlyphClass: 2
Flags: W
LayerCount: 2
Fore
SplineSet
102 396 m 1
 278 396 l 1
 278 207 l 1
 102 207 l 1
 102 396 l 1
EndSplineSet
EndChar

StartChar: uni25CC
Encoding: 9676 9676 68
Width: 872
GlyphClass: 2
Flags: W
LayerCount: 2
Fore
SplineSet
119 288 m 1
 114 264 111 239 111 213 c 0
 111 187 114 163 119 139 c 1
 65 120 l 1
 58 150 56 180 56 213 c 0
 56 246 58 277 65 307 c 1
 119 288 l 1
511 531 m 1
 486 538 461 542 436 542 c 0
 411 542 386 538 361 531 c 1
 342 584 l 1
 373 593 405 598 436 598 c 0
 467 598 498 593 529 584 c 1
 511 531 l 1
753 139 m 1
 758 163 761 187 761 213 c 0
 761 239 758 264 753 288 c 1
 807 307 l 1
 814 277 817 246 817 213 c 0
 817 180 814 150 807 120 c 1
 753 139 l 1
361 -104 m 1
 386 -111 411 -115 436 -115 c 0
 461 -115 486 -111 511 -104 c 1
 529 -158 l 1
 498 -167 467 -171 436 -171 c 0
 405 -171 373 -167 342 -158 c 1
 361 -104 l 1
270 491 m 1
 230 469 195 439 170 403 c 1
 121 434 l 1
 151 475 197 515 246 542 c 1
 270 491 l 1
702 403 m 1
 677 439 643 469 603 491 c 1
 626 542 l 1
 676 514 718 478 751 434 c 1
 702 403 l 1
603 -64 m 1
 644 -41 673 -15 702 23 c 1
 751 -6 l 1
 716 -52 677 -87 626 -116 c 1
 603 -64 l 1
170 23 m 1
 195 -13 230 -42 270 -64 c 1
 246 -116 l 1
 197 -88 152 -51 121 -7 c 1
 170 23 l 1
EndSplineSet
EndChar

StartChar: uni060C
Encoding: 1548 1548 69
Width: 379
GlyphClass: 2
Flags: W
LayerCount: 2
Fore
SplineSet
229 -46 m 1
 53 -46 l 1
 53 103 l 1
 174 285 l 1
 278 285 l 1
 229 103 l 1
 229 -46 l 1
EndSplineSet
Substitution2: "'calt' Contextual Alternates in Arabic lookup 7 subtable" uni060C.fa
EndChar

StartChar: uni061B
Encoding: 1563 1563 70
Width: 399
GlyphClass: 2
Flags: W
LayerCount: 2
Fore
SplineSet
239 -46 m 1
 63 -46 l 1
 63 143 l 1
 239 143 l 1
 239 -46 l 1
239 243 m 1
 63 243 l 1
 63 392 l 1
 184 574 l 1
 288 574 l 1
 239 392 l 1
 239 243 l 1
EndSplineSet
Substitution2: "'calt' Contextual Alternates in Arabic lookup 7 subtable" uni061B.fa
EndChar

StartChar: uni061F
Encoding: 1567 1567 71
Width: 580
GlyphClass: 2
Flags: W
LayerCount: 2
Fore
SplineSet
414 -46 m 1
 238 -46 l 1
 238 127 l 1
 414 127 l 1
 414 -46 l 1
334 567 m 0
 282 567 245 544 245 495 c 0
 245 480 249 465 258 450 c 0
 267 435 280 419 299 402 c 2
 330 374 l 2
 359 348 381 326 398 295 c 0
 410 274 414 256 414 224 c 2
 414 200 l 1
 238 200 l 1
 238 222 l 2
 238 251 227 266 212 283 c 0
 205 291 195 301 184 311 c 2
 153 338 l 2
 107 378 69 423 69 505 c 0
 69 641 168 696 313 696 c 0
 390 696 449 678 515 656 c 1
 515 502 l 1
 462 536 407 567 334 567 c 0
EndSplineSet
EndChar

StartChar: uni0621
Encoding: 1569 1569 72
Width: 430
GlyphClass: 2
Flags: W
LayerCount: 2
Fore
SplineSet
80 131 m 1
 58 162 40 196 40 246 c 0
 40 310 67 357 99 392 c 0
 121 416 144 437 174 451 c 0
 187 457 200 461 212 462 c 2
 306 472 l 1
 347 325 l 1
 228 291 l 2
 208 283 175 273 175 246 c 0
 175 241 182 235 195 228 c 0
 208 221 225 214 245 206 c 1
 264 211 281 214 297 215 c 2
 345 218 l 2
 351 218 356 219 360 219 c 0
 364 219 369 219 375 220 c 1
 388 49 l 1
 382 48 377 48 371 48 c 0
 365 48 360 46 354 46 c 0
 241 39 177 5 101 -47 c 1
 23 95 l 1
 42 109 61 118 80 131 c 1
EndSplineSet
Substitution2: "'isol' Isolated Forms in Arabic lookup 1 subtable" uni0621.isol
EndChar

StartChar: uni0640
Encoding: 1600 1600 73
Width: 406
GlyphClass: 2
Flags: W
LayerCount: 2
Fore
SplineSet
406 0 m 1
 -34 0 l 1
 -34 172 l 1
 406 172 l 1
 406 0 l 1
EndSplineSet
EndChar

StartChar: uni0660
Encoding: 1632 1632 74
Width: 695
GlyphClass: 2
Flags: W
LayerCount: 2
Fore
SplineSet
335 143 m 1
 144 297 l 1
 295 487 l 1
 491 337 l 1
 335 143 l 1
EndSplineSet
EndChar

StartChar: uni0661
Encoding: 1633 1633 75
Width: 695
GlyphClass: 2
Flags: W
LayerCount: 2
Fore
SplineSet
364 -36 m 1
 354 241 266 447 151 619 c 1
 265 711 l 1
 300 658 333 602 364 539 c 0
 440 382 493 197 500 -31 c 1
 364 -36 l 1
EndSplineSet
EndChar

StartChar: uni0662
Encoding: 1634 1634 76
Width: 695
GlyphClass: 2
Flags: W
LayerCount: 2
Fore
SplineSet
249 -34 m 1
 249 176 193 338 121 477 c 0
 96 525 70 570 42 613 c 1
 153 710 l 1
 170 690 186 672 201 654 c 0
 231 618 264 590 310 571 c 0
 332 562 358 558 388 558 c 0
 420 558 439 590 450 616 c 0
 463 648 476 691 486 727 c 1
 615 672 l 1
 580 566 555 444 457 400 c 0
 437 391 414 386 388 386 c 0
 361 386 337 387 314 391 c 1
 356 268 385 131 385 -34 c 1
 249 -34 l 1
EndSplineSet
EndChar

StartChar: uni0663
Encoding: 1635 1635 77
Width: 695
GlyphClass: 2
Flags: W
LayerCount: 2
Fore
SplineSet
224 -43 m 1
 193 217 144 448 30 623 c 1
 136 717 l 1
 155 670 l 2
 160 659 165 646 172 633 c 0
 186 608 205 584 226 567 c 0
 236 559 247 555 258 555 c 0
 281 555 290 576 295 598 c 0
 302 631 303 672 303 717 c 1
 401 717 l 1
 401 671 409 633 424 604 c 0
 434 586 448 566 470 566 c 0
 490 566 503 593 510 612 c 0
 521 642 527 681 531 720 c 1
 643 708 l 1
 635 590 613 475 544 419 c 0
 523 402 499 395 470 395 c 0
 429 395 393 409 363 438 c 1
 343 409 318 392 286 386 c 1
 321 258 341 124 358 -24 c 1
 224 -43 l 1
EndSplineSet
EndChar

StartChar: uni0664
Encoding: 1636 1636 78
Width: 695
GlyphClass: 2
Flags: W
LayerCount: 2
Fore
SplineSet
210 340 m 1
 170 373 130 422 130 491 c 0
 130 562 165 615 207 652 c 0
 257 696 328 726 418 730 c 1
 425 558 l 1
 379 556 339 547 308 534 c 0
 289 526 266 513 266 491 c 0
 266 489 270 485 279 479 c 0
 302 464 335 448 364 434 c 0
 382 425 399 416 417 408 c 0
 421 406 425 405 429 403 c 2
 441 397 l 1
 443 344 l 1
 416 320 l 2
 391 298 362 272 340 251 c 0
 316 228 291 207 274 182 c 0
 268 173 265 165 265 158 c 0
 265 147 290 140 302 137 c 0
 340 127 384 116 428 110 c 0
 442 108 456 106 468 104 c 1
 448 -66 l 1
 346 -49 252 -16 188 40 c 0
 157 67 129 104 129 158 c 0
 129 221 150 263 177 300 c 0
 187 314 197 327 210 340 c 1
EndSplineSet
EndChar

StartChar: uni0665
Encoding: 1637 1637 79
Width: 695
GlyphClass: 2
Flags: W
LayerCount: 2
Fore
SplineSet
308 390 m 1
 270 375 238 351 217 323 c 0
 203 304 191 282 191 254 c 0
 191 199 249 182 304 182 c 0
 354 182 407 185 433 208 c 0
 441 215 445 223 445 233 c 0
 445 299 407 337 365 364 c 0
 348 375 329 383 308 390 c 1
564 240 m 0
 564 81 463 24 306 24 c 0
 232 24 178 46 138 82 c 0
 97 119 72 180 72 258 c 0
 72 353 114 427 165 475 c 0
 201 509 247 536 303 552 c 1
 425 531 510 457 546 351 c 0
 558 316 564 279 564 240 c 0
EndSplineSet
EndChar

StartChar: uni0666
Encoding: 1638 1638 80
Width: 695
GlyphClass: 2
Flags: W
LayerCount: 2
Fore
SplineSet
345 443 m 1
 303 438 257 437 214 437 c 0
 138 437 74 465 25 495 c 1
 94 643 l 1
 124 624 167 608 214 608 c 0
 290 608 372 615 440 628 c 0
 466 633 490 638 511 645 c 1
 498 547 478 458 474 353 c 0
 473 328 472 300 472 270 c 0
 472 227 484 189 501 162 c 0
 517 136 536 115 564 103 c 1
 511 -56 l 1
 461 -35 419 11 391 59 c 0
 359 114 336 184 336 270 c 0
 336 334 338 387 345 443 c 1
EndSplineSet
EndChar

StartChar: uni0667
Encoding: 1639 1639 81
Width: 695
GlyphClass: 2
Flags: W
LayerCount: 2
Fore
SplineSet
258 -34 m 1
 219 196 141 396 41 566 c 0
 24 595 9 621 -6 643 c 1
 106 738 l 1
 148 677 182 601 215 527 c 0
 254 440 292 345 322 249 c 1
 342 313 367 377 391 438 c 0
 432 545 481 649 538 738 c 1
 650 643 l 1
 570 526 507 386 455 238 c 0
 426 154 401 61 385 -34 c 1
 258 -34 l 1
EndSplineSet
EndChar

StartChar: uni0668
Encoding: 1640 1640 82
Width: 695
GlyphClass: 2
Flags: W
LayerCount: 2
Fore
SplineSet
538 -59 m 1
 496 2 461 79 428 152 c 0
 402 211 378 274 355 336 c 0
 343 368 332 399 322 431 c 1
 302 367 277 303 253 242 c 0
 220 158 182 74 141 -1 c 0
 129 -23 117 -43 106 -59 c 1
 -6 37 l 1
 51 120 98 219 142 319 c 0
 193 437 234 569 258 713 c 1
 385 713 l 1
 401 618 426 525 455 442 c 0
 470 399 484 358 501 319 c 0
 545 218 593 121 650 37 c 1
 538 -59 l 1
EndSplineSet
EndChar

StartChar: uni0669
Encoding: 1641 1641 83
Width: 695
GlyphClass: 2
Flags: W
LayerCount: 2
Fore
SplineSet
179 461 m 0
 179 432 210 429 246 429 c 0
 293 429 329 439 359 456 c 1
 344 511 303 555 240 555 c 0
 207 555 191 521 184 494 c 0
 181 483 179 471 179 461 c 0
358 284 m 1
 326 271 295 266 249 266 c 0
 112 266 55 328 55 465 c 0
 55 533 80 592 108 635 c 0
 128 666 158 693 192 708 c 0
 208 715 226 719 244 719 c 0
 323 719 382 684 420 637 c 0
 465 582 492 498 492 396 c 2
 492 333 l 2
 492 290 498 249 506 214 c 0
 518 162 539 119 585 101 c 1
 535 -60 l 1
 410 -12 367 122 358 284 c 1
EndSplineSet
EndChar

StartChar: uni066A
Encoding: 1642 1642 84
Width: 674
GlyphClass: 2
Flags: W
LayerCount: 2
Fore
SplineSet
243 557 m 1
 59 557 l 1
 59 741 l 1
 243 741 l 1
 243 557 l 1
613 -112 m 1
 429 -112 l 1
 429 72 l 1
 613 72 l 1
 613 -112 l 1
148 -146 m 1
 40 -146 l 1
 526 779 l 1
 634 779 l 1
 148 -146 l 1
EndSplineSet
EndChar

StartChar: uni066B
Encoding: 1643 1643 85
Width: 379
GlyphClass: 2
Flags: W
LayerCount: 2
Fore
SplineSet
53 -248 m 1
 -54 -248 l 1
 237 517 l 1
 348 517 l 1
 53 -248 l 1
EndSplineSet
Substitution2: "'calt' Contextual Alternates in Arabic lookup 8 subtable" uni066B.ar
EndChar

StartChar: uni066C
Encoding: 1644 1644 86
Width: 379
GlyphClass: 2
Flags: W
LayerCount: 2
Fore
SplineSet
209 191 m 0
 275 191 306 143 306 73 c 0
 306 13 280 -33 251 -70 c 0
 214 -118 161 -157 103 -187 c 1
 34 -94 l 1
 99 -67 152 -38 189 14 c 1
 153 18 133 42 122 71 c 0
 118 81 117 92 117 102 c 0
 117 133 129 151 145 167 c 0
 159 181 182 191 209 191 c 0
EndSplineSet
Substitution2: "'calt' Contextual Alternates in Arabic lookup 8 subtable" uni066C.ar
EndChar

StartChar: uni066B.ar
Encoding: 65537 -1 87
Width: 379
GlyphClass: 2
Flags: W
LayerCount: 2
Fore
SplineSet
51 -178 m 1
 100 -152 139 -135 171 -98 c 0
 177 -91 181 -83 186 -75 c 1
 180 -76 175 -76 171 -76 c 0
 121 -76 88 -44 73 -8 c 0
 67 6 65 20 65 36 c 0
 65 71 79 97 97 115 c 0
 115 133 137 148 171 148 c 0
 205 148 234 132 255 114 c 0
 283 90 303 46 303 -7 c 0
 303 -102 260 -159 207 -207 c 0
 185 -227 158 -247 127 -268 c 1
 51 -178 l 1
EndSplineSet
EndChar

StartChar: uni066C.ar
Encoding: 65538 -1 88
Width: 379
GlyphClass: 2
Flags: W
LayerCount: 2
Fore
SplineSet
141 158 m 1
 166 171 180 180 199 193 c 0
 205 197 211 201 215 205 c 2
 228 218 l 1
 187 222 156 256 156 301 c 0
 156 340 178 367 205 380 c 0
 215 385 225 387 236 387 c 0
 278 387 306 356 321 326 c 0
 328 312 331 294 331 273 c 0
 331 206 300 164 262 131 c 0
 246 117 228 102 206 88 c 1
 141 158 l 1
EndSplineSet
EndChar

StartChar: uni06F0
Encoding: 1776 1776 89
Width: 695
GlyphClass: 2
Flags: W
LayerCount: 2
Fore
SplineSet
403 314 m 0
 403 355 378 379 350 393 c 0
 340 398 329 400 317 400 c 0
 277 400 250 376 238 347 c 0
 234 337 231 326 231 314 c 0
 231 264 267 229 317 229 c 0
 359 229 382 252 396 281 c 0
 401 291 403 302 403 314 c 0
510 314 m 0
 510 224 456 164 392 136 c 0
 369 126 343 121 317 121 c 0
 226 121 167 174 139 239 c 0
 129 262 124 287 124 314 c 0
 124 373 149 418 180 450 c 0
 210 482 258 507 317 507 c 0
 377 507 421 482 453 450 c 0
 485 418 510 374 510 314 c 0
EndSplineSet
EndChar

StartChar: uni06F1
Encoding: 1777 1777 90
Width: 695
GlyphClass: 2
Flags: W
LayerCount: 2
Fore
SplineSet
364 -36 m 1
 354 241 266 447 151 619 c 1
 265 711 l 1
 300 658 333 602 364 539 c 0
 440 382 493 197 500 -31 c 1
 364 -36 l 1
EndSplineSet
EndChar

StartChar: uni06F2
Encoding: 1778 1778 91
Width: 695
GlyphClass: 2
Flags: W
LayerCount: 2
Fore
SplineSet
249 -34 m 1
 249 176 193 338 121 477 c 0
 96 525 70 570 42 613 c 1
 153 710 l 1
 170 690 186 672 201 654 c 0
 231 618 264 590 310 571 c 0
 332 562 358 558 388 558 c 0
 420 558 439 590 450 616 c 0
 463 648 476 691 486 727 c 1
 615 672 l 1
 580 566 555 444 457 400 c 0
 437 391 414 386 388 386 c 0
 361 386 337 387 314 391 c 1
 356 268 385 131 385 -34 c 1
 249 -34 l 1
EndSplineSet
EndChar

StartChar: uni06F3
Encoding: 1779 1779 92
Width: 695
GlyphClass: 2
Flags: W
LayerCount: 2
Fore
SplineSet
292 -43 m 1
 261 217 212 448 98 623 c 1
 204 717 l 1
 223 670 l 2
 228 659 233 646 240 633 c 0
 254 608 273 584 294 567 c 0
 304 559 315 555 326 555 c 0
 349 555 358 576 363 598 c 0
 370 631 371 672 371 717 c 1
 469 717 l 1
 469 671 477 633 492 604 c 0
 502 586 516 566 538 566 c 0
 558 566 571 593 578 612 c 0
 589 642 595 681 599 720 c 1
 711 708 l 1
 703 590 681 475 612 419 c 0
 591 402 567 395 538 395 c 0
 497 395 461 409 431 438 c 1
 411 409 386 392 354 386 c 1
 389 258 409 124 426 -24 c 1
 292 -43 l 1
EndSplineSet
EndChar

StartChar: uni06F4
Encoding: 1780 1780 93
Width: 695
GlyphClass: 2
Flags: W
LayerCount: 2
Fore
SplineSet
309 500 m 1
 302 520 297 541 297 568 c 0
 297 625 322 675 350 708 c 0
 377 740 419 770 472 770 c 2
 552 770 l 1
 552 623 l 1
 472 623 l 2
 441 623 415 599 415 568 c 0
 415 551 423 537 430 525 c 0
 437 513 447 496 456 487 c 1
 503 491 545 499 582 512 c 1
 625 349 l 1
 557 326 475 312 387 312 c 0
 357 312 331 316 306 322 c 1
 336 217 354 101 354 -34 c 1
 219 -34 l 1
 219 245 122 444 11 614 c 1
 30 630 46 643 59 654 c 0
 72 665 84 673 92 680 c 0
 103 690 113 696 121 704 c 0
 123 706 124 707 125 707 c 2
 126 708 l 1
 153 670 179 632 206 594 c 0
 225 567 246 544 270 524 c 0
 282 514 295 506 309 500 c 1
EndSplineSet
EndChar

StartChar: uni06F5
Encoding: 1781 1781 94
Width: 695
GlyphClass: 2
Flags: W
LayerCount: 2
Fore
SplineSet
167 157 m 0
 167 119 177 87 211 87 c 0
 240 87 256 112 267 133 c 0
 280 157 287 191 287 226 c 1
 392 226 l 1
 392 176 403 127 426 100 c 0
 433 92 442 87 451 87 c 0
 488 87 504 120 504 159 c 0
 504 263 461 338 416 401 c 0
 399 425 380 450 360 472 c 1
 299 426 250 377 212 316 c 0
 184 271 167 222 167 157 c 0
211 -84 m 0
 81 -84 31 16 31 157 c 0
 31 302 82 404 150 487 c 0
 177 520 211 552 249 584 c 1
 243 590 237 595 231 600 c 0
 225 605 220 611 214 616 c 1
 305 743 l 1
 439 620 573 493 625 287 c 0
 635 247 640 204 640 159 c 0
 640 49 602 -29 530 -65 c 0
 507 -76 481 -84 451 -84 c 0
 395 -84 359 -64 333 -33 c 1
 304 -64 269 -84 211 -84 c 0
EndSplineSet
EndChar

StartChar: uni06F6
Encoding: 1782 1782 95
Width: 695
GlyphClass: 2
Flags: W
LayerCount: 2
Fore
SplineSet
497 554 m 1
 451 563 409 563 361 563 c 0
 332 563 302 546 283 532 c 0
 266 519 241 496 241 471 c 0
 241 431 266 405 295 391 c 0
 307 385 321 382 338 382 c 0
 361 382 385 390 408 396 c 0
 423 400 439 404 455 409 c 2
 503 425 l 2
 531 434 563 441 590 448 c 1
 625 282 l 1
 555 262 497 250 439 224 c 0
 384 200 347 173 303 133 c 0
 280 112 255 86 229 55 c 0
 203 24 172 -13 138 -56 c 1
 32 50 l 1
 93 128 144 192 205 255 c 1
 159 290 124 349 111 415 c 0
 107 435 105 453 105 471 c 0
 105 519 128 556 149 589 c 0
 186 645 242 697 306 724 c 0
 325 732 344 735 361 735 c 0
 418 735 463 734 518 724 c 1
 497 554 l 1
EndSplineSet
EndChar

StartChar: uni06F7
Encoding: 1783 1783 96
Width: 695
GlyphClass: 2
Flags: W
LayerCount: 2
Fore
SplineSet
258 -34 m 1
 219 196 141 396 41 566 c 0
 24 595 9 621 -6 643 c 1
 106 738 l 1
 148 677 182 601 215 527 c 0
 254 440 292 345 322 249 c 1
 342 313 367 377 391 438 c 0
 432 545 481 649 538 738 c 1
 650 643 l 1
 570 526 507 386 455 238 c 0
 426 154 401 61 385 -34 c 1
 258 -34 l 1
EndSplineSet
EndChar

StartChar: uni06F8
Encoding: 1784 1784 97
Width: 695
GlyphClass: 2
Flags: W
LayerCount: 2
Fore
SplineSet
538 -59 m 1
 496 2 461 79 428 152 c 0
 402 211 378 274 355 336 c 0
 343 368 332 399 322 431 c 1
 302 367 277 303 253 242 c 0
 220 158 182 74 141 -1 c 0
 129 -23 117 -43 106 -59 c 1
 -6 37 l 1
 51 120 98 219 142 319 c 0
 193 437 234 569 258 713 c 1
 385 713 l 1
 401 618 426 525 455 442 c 0
 470 399 484 358 501 319 c 0
 545 218 593 121 650 37 c 1
 538 -59 l 1
EndSplineSet
EndChar

StartChar: uni06F9
Encoding: 1785 1785 98
Width: 695
GlyphClass: 2
Flags: W
LayerCount: 2
Fore
SplineSet
179 461 m 0
 179 432 210 429 246 429 c 0
 293 429 329 439 359 456 c 1
 344 511 303 555 240 555 c 0
 207 555 191 521 184 494 c 0
 181 483 179 471 179 461 c 0
358 284 m 1
 326 271 295 266 249 266 c 0
 112 266 55 328 55 465 c 0
 55 533 80 592 108 635 c 0
 128 666 158 693 192 708 c 0
 208 715 226 719 244 719 c 0
 323 719 382 684 420 637 c 0
 465 582 492 498 492 396 c 2
 492 333 l 2
 492 290 498 249 506 214 c 0
 518 162 539 119 585 101 c 1
 535 -60 l 1
 410 -12 367 122 358 284 c 1
EndSplineSet
EndChar

StartChar: As
Encoding: 65539 -1 99
Width: 406
GlyphClass: 2
Flags: W
LayerCount: 2
Fore
SplineSet
272 0 m 1
 136 0 l 1
 136 539 l 1
 272 539 l 1
 272 0 l 1
EndSplineSet
EndChar

StartChar: uniFE8D
Encoding: 65165 65165 100
Width: 348
GlyphClass: 2
Flags: W
LayerCount: 2
Fore
SplineSet
242 0 m 1
 106 0 l 1
 106 713 l 1
 242 713 l 1
 242 0 l 1
EndSplineSet
EndChar

StartChar: Af
Encoding: 65540 -1 101
Width: 430
GlyphClass: 2
Flags: W
LayerCount: 2
Fore
SplineSet
246 252 m 2
 246 190 294 172 358 172 c 2
 430 172 l 1
 430 0 l 1
 358 0 l 2
 187 0 110 82 110 252 c 2
 110 539 l 1
 246 539 l 1
 246 252 l 2
EndSplineSet
EndChar

StartChar: uniFE8E
Encoding: 65166 65166 102
Width: 383
GlyphClass: 2
Flags: W
LayerCount: 2
Fore
SplineSet
243 252 m 2
 243 190 291 172 355 172 c 2
 384 172 l 1
 384 0 l 1
 355 0 l 2
 185 0 107 83 107 252 c 2
 107 713 l 1
 243 713 l 1
 243 252 l 2
EndSplineSet
EndChar

StartChar: Bs
Encoding: 65541 -1 103
Width: 1136
GlyphClass: 2
Flags: W
LayerCount: 2
Fore
SplineSet
1036 473 m 1
 1055 401 1075 335 1075 250 c 0
 1075 177 1043 122 1003 87 c 0
 972 59 933 54 884 41 c 0
 807 21 717 6 630 -5 c 0
 569 -13 502 -18 434 -18 c 0
 310 -18 214 7 150 62 c 0
 99 106 66 168 66 256 c 0
 66 292 72 331 79 364 c 0
 86 400 94 441 104 473 c 1
 240 449 l 1
 227 403 212 347 206 296 c 0
 204 280 202 266 202 256 c 0
 202 220 226 198 255 184 c 0
 300 162 361 154 434 154 c 0
 573 154 707 174 821 200 c 0
 856 208 885 215 908 222 c 0
 923 226 939 235 939 250 c 0
 939 270 936 296 929 329 c 0
 922 362 912 402 899 449 c 1
 1036 473 l 1
EndSplineSet
EndChar

StartChar: Bf
Encoding: 65542 -1 104
Width: 1193
GlyphClass: 2
Flags: W
LayerCount: 2
Fore
SplineSet
1193 0 m 1
 1095 0 1026 39 988 99 c 1
 949 65 907 53 844 36 c 0
 726 4 585 -18 434 -18 c 0
 310 -18 214 7 150 62 c 0
 99 106 66 168 66 256 c 0
 66 292 72 331 79 364 c 0
 86 400 94 441 104 473 c 1
 240 449 l 1
 227 403 212 347 206 296 c 0
 204 280 202 266 202 256 c 0
 202 220 226 198 255 184 c 0
 300 162 361 154 434 154 c 0
 570 154 697 172 805 199 c 0
 837 207 864 216 885 225 c 0
 940 248 957 322 978 379 c 2
 990 416 l 1
 1125 377 l 1
 1105 322 l 2
 1097 299 1090 281 1087 261 c 0
 1086 255 1084 250 1084 247 c 0
 1084 244 1083 241 1083 239 c 0
 1083 205 1112 187 1141 179 c 0
 1155 175 1172 172 1193 172 c 1
 1193 0 l 1
EndSplineSet
EndChar

StartChar: Bi
Encoding: 65543 -1 105
Width: 369
GlyphClass: 2
Flags: W
LayerCount: 2
Fore
SplineSet
272 473 m 1
 293 396 310 315 310 222 c 0
 310 157 277 107 243 73 c 0
 203 33 143 0 64 0 c 2
 -34 0 l 1
 -34 172 l 1
 64 172 l 2
 95 172 124 179 144 189 c 0
 158 196 174 205 174 222 c 0
 174 254 169 287 164 319 c 0
 158 364 146 412 135 454 c 1
 272 473 l 1
EndSplineSet
EndChar

StartChar: Bm
Encoding: 65544 -1 106
Width: 406
GlyphClass: 2
Flags: W
LayerCount: 2
Fore
SplineSet
200 72 m 1
 158 31 98 0 18 0 c 2
 -34 0 l 1
 -34 172 l 1
 18 172 l 2
 67 172 110 190 128 220 c 0
 134 230 138 240 138 252 c 2
 138 377 l 1
 273 377 l 1
 273 252 l 2
 273 189 340 172 406 172 c 1
 406 0 l 1
 313 0 245 25 200 72 c 1
EndSplineSet
EndChar

StartChar: Js
Encoding: 65545 -1 107
Width: 791
GlyphClass: 2
Flags: W
LayerCount: 2
Fore
SplineSet
224 68 m 0
 224 -40 308 -78 414 -78 c 0
 489 -78 558 -68 616 -53 c 0
 632 -49 645 -46 655 -42 c 1
 698 -205 l 1
 618 -230 522 -250 414 -250 c 0
 285 -250 188 -208 137 -127 c 0
 106 -78 88 -12 88 68 c 0
 88 154 126 216 171 263 c 0
 220 314 288 354 358 384 c 1
 312 421 l 2
 291 438 279 449 248 449 c 0
 223 449 214 441 199 430 c 2
 127 375 l 1
 64 495 l 1
 92 530 l 2
 102 543 114 555 125 566 c 0
 154 595 191 621 248 621 c 0
 295 621 326 604 357 585 c 0
 370 577 382 567 397 555 c 2
 473 494 l 2
 517 457 587 448 671 448 c 2
 706 448 l 1
 706 276 l 1
 655 276 l 2
 591 276 529 265 473 254 c 0
 398 239 325 212 277 170 c 0
 249 145 224 117 224 68 c 0
EndSplineSet
EndChar

StartChar: Jf
Encoding: 65546 -1 108
Width: 812
GlyphClass: 2
Flags: W
LayerCount: 2
Fore
SplineSet
812 0 m 1
 734 0 673 34 632 73 c 0
 592 111 558 168 543 227 c 2
 533 266 l 1
 460 253 387 232 329 202 c 0
 291 182 257 156 238 121 c 0
 229 105 224 87 224 68 c 0
 224 -44 312 -69 414 -78 c 2
 630 -95 l 1
 555 -250 l 1
 414 -250 l 2
 285 -250 188 -208 137 -127 c 0
 106 -78 88 -12 88 68 c 0
 88 154 126 216 171 263 c 0
 220 314 288 354 358 384 c 1
 312 421 l 2
 291 438 279 449 248 449 c 0
 223 449 214 441 199 430 c 2
 127 375 l 1
 64 495 l 1
 92 530 l 2
 102 543 114 555 125 566 c 0
 154 595 191 621 248 621 c 0
 295 621 326 604 357 585 c 0
 370 577 382 567 397 555 c 2
 473 494 l 2
 516 457 587 448 671 448 c 2
 706 448 l 1
 706 276 l 1
 673 276 l 1
 683 231 717 197 759 181 c 0
 775 175 792 172 812 172 c 1
 812 0 l 1
EndSplineSet
EndChar

StartChar: Ji
Encoding: 65547 -1 109
Width: 761
GlyphClass: 2
Flags: W
LayerCount: 2
Fore
SplineSet
706 173 m 1
 671 173 l 2
 599 173 551 136 507 107 c 0
 428 56 347 0 218 0 c 2
 -34 0 l 1
 -34 172 l 1
 218 172 l 2
 311 172 369 210 426 246 c 1
 412 257 397 267 384 278 c 2
 309 339 l 2
 288 355 274 368 244 368 c 0
 220 368 210 360 195 349 c 2
 124 293 l 1
 61 413 l 1
 88 448 l 2
 116 485 148 516 196 533 c 0
 210 538 227 540 244 540 c 0
 292 540 322 522 353 503 c 0
 366 495 379 485 394 473 c 2
 469 412 l 2
 477 405 487 399 498 391 c 0
 539 361 597 345 671 345 c 2
 706 345 l 1
 706 173 l 1
EndSplineSet
EndChar

StartChar: Jm
Encoding: 65548 -1 110
Width: 779
GlyphClass: 2
Flags: W
LayerCount: 2
Fore
SplineSet
692 182 m 1
 718 175 746 172 780 172 c 1
 780 0 l 1
 650 0 566 42 517 122 c 1
 472 94 l 2
 435 71 397 48 355 30 c 0
 334 21 310 15 286 9 c 0
 262 3 235 0 206 0 c 2
 -34 0 l 1
 -34 172 l 1
 204 172 l 2
 298 172 355 209 412 246 c 1
 398 257 383 267 370 278 c 2
 294 339 l 2
 273 355 260 368 229 368 c 0
 204 368 196 360 181 349 c 2
 109 293 l 1
 46 413 l 1
 74 448 l 2
 103 485 134 516 182 533 c 0
 196 538 212 540 229 540 c 0
 277 540 308 522 339 503 c 0
 352 495 364 485 379 473 c 2
 455 412 l 2
 502 371 566 345 657 345 c 2
 692 345 l 1
 692 182 l 1
EndSplineSet
EndChar

StartChar: Ds
Encoding: 65549 -1 111
Width: 607
GlyphClass: 2
Flags: W
LayerCount: 2
Fore
SplineSet
129 172 m 1
 145 162 177 158 201 156 c 0
 211 155 221 154 230 154 c 0
 294 154 363 162 400 188 c 0
 410 195 416 204 416 213 c 0
 416 273 394 320 372 359 c 0
 346 404 316 441 278 476 c 1
 367 605 l 1
 433 543 488 467 523 373 c 0
 540 328 552 273 552 213 c 0
 552 159 532 119 505 89 c 0
 459 37 395 5 312 -10 c 0
 285 -15 258 -18 230 -18 c 0
 174 -18 127 -3 91 17 c 1
 129 172 l 1
EndSplineSet
EndChar

StartChar: Df
Encoding: 65550 -1 112
Width: 708
GlyphClass: 2
Flags: W
LayerCount: 2
Fore
SplineSet
708 0 m 1
 613 0 551 35 506 89 c 1
 455 44 392 9 314 -9 c 0
 288 -15 260 -18 230 -18 c 0
 170 -18 130 -5 91 17 c 1
 132 172 l 1
 147 162 179 158 202 156 c 0
 212 155 221 154 230 154 c 0
 316 154 378 184 425 223 c 1
 285 512 l 1
 407 587 l 1
 551 290 l 2
 568 256 586 225 614 204 c 0
 638 185 667 172 708 172 c 1
 708 0 l 1
EndSplineSet
EndChar

StartChar: Rs
Encoding: 65551 -1 113
Width: 589
GlyphClass: 2
Flags: W
LayerCount: 2
Fore
SplineSet
38 -129 m 1
 125 -100 206 -51 272 0 c 0
 311 31 348 65 372 106 c 0
 382 123 387 140 387 155 c 0
 387 237 354 298 316 345 c 1
 446 417 l 1
 481 367 505 299 517 226 c 0
 521 202 523 178 523 155 c 0
 523 88 493 33 462 -11 c 0
 400 -99 311 -170 212 -222 c 0
 178 -240 143 -256 108 -268 c 1
 38 -129 l 1
EndSplineSet
EndChar

StartChar: Rf
Encoding: 65552 -1 114
Width: 672
GlyphClass: 2
Flags: W
LayerCount: 2
Fore
SplineSet
672 0 m 1
 601 0 543 21 502 52 c 1
 481 -6 443 -51 400 -90 c 0
 377 -111 354 -129 328 -146 c 0
 262 -189 188 -231 113 -262 c 1
 38 -128 l 1
 136 -79 245 -23 321 49 c 0
 341 68 357 88 369 109 c 0
 381 130 388 150 388 171 c 0
 388 201 385 231 379 260 c 0
 373 289 366 319 354 351 c 1
 486 396 l 1
 499 358 508 321 521 277 c 0
 537 213 590 172 672 172 c 1
 672 0 l 1
EndSplineSet
EndChar

StartChar: Ss
Encoding: 65553 -1 115
Width: 1434
GlyphClass: 2
Flags: W
LayerCount: 2
Fore
SplineSet
821 0 m 0
 788 0 762 13 741 27 c 1
 733 -41 707 -90 669 -128 c 0
 595 -202 476 -232 329 -232 c 0
 233 -232 167 -204 121 -156 c 0
 81 -115 57 -55 57 21 c 0
 57 106 85 179 109 242 c 0
 117 263 124 282 130 297 c 1
 264 242 l 1
 251 208 237 171 222 136 c 0
 211 111 204 84 197 55 c 0
 194 42 192 31 192 21 c 0
 192 -23 229 -45 267 -54 c 0
 284 -58 305 -61 329 -61 c 0
 433 -61 535 -48 584 5 c 0
 599 21 607 41 607 65 c 0
 607 85 599 102 593 121 c 0
 589 134 583 147 578 161 c 0
 565 198 548 239 532 272 c 1
 655 348 l 1
 684 284 l 2
 702 244 734 203 774 184 c 0
 789 177 804 172 821 172 c 0
 870 172 911 204 911 252 c 2
 911 340 l 1
 1046 340 l 1
 1046 252 l 2
 1046 215 1074 189 1101 178 c 0
 1111 174 1120 172 1130 172 c 0
 1171 172 1212 182 1230 204 c 0
 1235 210 1238 216 1238 222 c 0
 1238 254 1233 285 1228 317 c 0
 1221 361 1210 408 1199 450 c 1
 1336 468 l 1
 1359 387 1374 308 1374 222 c 0
 1374 156 1342 107 1307 72 c 0
 1267 32 1209 0 1130 0 c 0
 1068 0 1014 37 981 73 c 1
 946 32 892 0 821 0 c 0
EndSplineSet
EndChar

StartChar: Sf
Encoding: 65554 -1 116
Width: 1488
GlyphClass: 2
Flags: W
LayerCount: 2
Fore
SplineSet
821 0 m 0
 788 0 762 13 741 27 c 1
 733 -41 707 -90 669 -128 c 0
 595 -202 476 -232 329 -232 c 0
 233 -232 167 -204 121 -156 c 0
 81 -115 57 -55 57 21 c 0
 57 106 85 179 109 242 c 0
 117 263 124 282 130 297 c 1
 264 242 l 1
 251 208 237 171 222 136 c 0
 211 111 204 84 197 55 c 0
 194 42 192 31 192 21 c 0
 192 -23 229 -45 267 -54 c 0
 284 -58 305 -61 329 -61 c 0
 433 -61 535 -48 584 5 c 0
 599 21 607 41 607 65 c 0
 607 85 599 102 593 121 c 0
 589 134 583 147 578 161 c 0
 565 198 548 239 532 272 c 1
 655 348 l 1
 684 284 l 2
 702 244 734 203 774 184 c 0
 789 177 804 172 821 172 c 0
 870 172 911 204 911 252 c 2
 911 340 l 1
 1046 340 l 1
 1046 252 l 2
 1046 215 1074 189 1101 178 c 0
 1111 174 1120 172 1130 172 c 0
 1170 172 1201 194 1213 223 c 0
 1217 233 1220 242 1220 252 c 2
 1220 340 l 1
 1355 340 l 1
 1355 252 l 2
 1355 189 1422 172 1488 172 c 1
 1488 0 l 1
 1396 0 1330 24 1285 69 c 1
 1249 31 1200 0 1130 0 c 0
 1068 0 1014 37 981 73 c 1
 946 32 892 0 821 0 c 0
EndSplineSet
EndChar

StartChar: Si
Encoding: 65555 -1 117
Width: 1090
GlyphClass: 2
Flags: W
LayerCount: 2
Fore
SplineSet
326 74 m 1
 290 35 238 0 167 0 c 2
 -34 0 l 1
 -34 172 l 1
 167 172 l 2
 195 172 216 183 231 198 c 0
 245 212 256 228 256 253 c 2
 256 340 l 1
 392 340 l 1
 392 253 l 2
 392 227 405 209 419 196 c 0
 433 184 451 172 476 172 c 0
 525 172 565 205 565 253 c 2
 565 340 l 1
 701 340 l 1
 701 253 l 2
 701 227 714 209 728 196 c 0
 742 184 760 172 785 172 c 0
 826 172 867 182 885 204 c 0
 890 210 893 216 893 222 c 0
 893 253 887 285 882 317 c 0
 875 361 864 408 853 450 c 1
 990 468 l 1
 1013 387 1028 308 1028 222 c 0
 1028 158 996 108 961 73 c 0
 922 34 860 0 785 0 c 0
 722 0 669 37 635 74 c 1
 599 35 547 0 476 0 c 0
 413 0 360 37 326 74 c 1
EndSplineSet
EndChar

StartChar: Sm
Encoding: 65556 -1 118
Width: 1142
GlyphClass: 2
Flags: W
LayerCount: 2
Fore
SplineSet
326 74 m 1
 290 35 238 0 167 0 c 2
 -34 0 l 1
 -34 172 l 1
 167 172 l 2
 195 172 216 183 231 198 c 0
 245 212 256 228 256 253 c 2
 256 340 l 1
 392 340 l 1
 392 253 l 2
 392 227 405 209 419 196 c 0
 433 184 451 172 476 172 c 0
 525 172 565 205 565 253 c 2
 565 340 l 1
 701 340 l 1
 701 253 l 2
 701 227 714 209 728 196 c 0
 742 184 760 172 785 172 c 0
 834 172 874 205 874 253 c 2
 874 340 l 1
 1010 340 l 1
 1010 253 l 2
 1010 188 1076 172 1143 172 c 1
 1143 0 l 1
 1053 0 984 24 939 69 c 1
 903 31 854 0 785 0 c 0
 722 0 669 37 635 74 c 1
 599 35 547 0 476 0 c 0
 413 0 360 37 326 74 c 1
EndSplineSet
EndChar

StartChar: Zs
Encoding: 65557 -1 119
Width: 1453
GlyphClass: 2
Flags: W
LayerCount: 2
Fore
SplineSet
821 0 m 2
 788 0 762 13 741 27 c 1
 733 -41 707 -90 669 -128 c 0
 595 -202 476 -232 329 -232 c 0
 233 -232 167 -204 121 -156 c 0
 81 -115 57 -55 57 21 c 0
 57 106 85 179 109 242 c 0
 117 263 124 282 130 297 c 1
 264 242 l 1
 251 208 237 171 222 136 c 0
 211 111 204 84 197 55 c 0
 194 42 192 31 192 21 c 0
 192 -23 229 -45 267 -54 c 0
 284 -58 305 -61 329 -61 c 0
 433 -61 535 -48 584 5 c 0
 599 21 607 41 607 65 c 0
 607 85 599 102 593 121 c 0
 589 134 583 147 578 161 c 0
 565 198 548 239 532 272 c 1
 655 348 l 1
 684 284 l 2
 699 250 721 222 749 200 c 0
 759 192 770 185 782 180 c 1
 818 229 858 281 899 328 c 0
 958 395 1026 462 1114 497 c 0
 1139 507 1165 512 1190 512 c 0
 1255 512 1299 472 1327 433 c 0
 1346 406 1363 374 1372 340 c 0
 1376 325 1377 311 1377 298 c 0
 1377 248 1359 203 1337 168 c 0
 1274 69 1163 0 1000 0 c 2
 821 0 l 2
1000 172 m 2
 1076 172 1139 188 1183 217 c 0
 1203 230 1217 242 1227 257 c 0
 1237 272 1242 286 1242 298 c 0
 1242 322 1215 340 1190 340 c 0
 1172 340 1153 335 1134 326 c 0
 1064 293 1013 229 964 172 c 1
 1000 172 l 2
EndSplineSet
EndChar

StartChar: Zf
Encoding: 65558 -1 120
Width: 1493
GlyphClass: 2
Flags: W
LayerCount: 2
Fore
SplineSet
821 0 m 2
 788 0 762 13 741 27 c 1
 733 -41 707 -90 669 -128 c 0
 595 -202 476 -232 329 -232 c 0
 233 -232 167 -204 121 -156 c 0
 81 -115 57 -55 57 21 c 0
 57 106 85 179 109 242 c 0
 117 263 124 282 130 297 c 1
 264 242 l 1
 251 208 237 171 222 136 c 0
 211 111 204 84 197 55 c 0
 194 42 192 31 192 21 c 0
 192 -23 229 -45 267 -54 c 0
 284 -58 305 -61 329 -61 c 0
 433 -61 535 -48 584 5 c 0
 599 21 607 41 607 65 c 0
 607 85 599 102 593 121 c 0
 589 134 583 147 578 161 c 0
 565 198 548 239 532 272 c 1
 655 348 l 1
 684 284 l 2
 699 250 721 222 749 200 c 0
 759 192 770 185 782 180 c 1
 818 229 858 281 899 328 c 0
 958 395 1026 462 1114 497 c 0
 1139 507 1165 512 1190 512 c 0
 1255 512 1299 472 1327 433 c 0
 1346 406 1363 374 1372 340 c 0
 1376 325 1377 311 1377 298 c 0
 1377 255 1365 223 1350 191 c 1
 1389 183 1445 172 1493 172 c 1
 1493 0 l 1
 1410 0 1334 19 1271 38 c 2
 1220 55 l 1
 1162 21 1091 0 1000 0 c 2
 821 0 l 2
1000 172 m 2
 1076 172 1139 188 1183 217 c 0
 1203 230 1217 242 1227 257 c 0
 1237 272 1242 286 1242 298 c 0
 1242 322 1215 340 1190 340 c 0
 1172 340 1153 335 1134 326 c 0
 1064 293 1013 229 964 172 c 1
 1000 172 l 2
EndSplineSet
EndChar

StartChar: Zi
Encoding: 65559 -1 121
Width: 1055
GlyphClass: 2
Flags: W
LayerCount: 2
Fore
SplineSet
607 172 m 2
 708 172 793 198 834 255 c 0
 844 269 848 283 848 295 c 0
 848 306 840 315 834 323 c 0
 827 332 812 340 796 340 c 0
 778 340 760 336 741 326 c 0
 673 290 622 229 573 172 c 1
 607 172 l 2
236 74 m 1
 200 35 148 0 77 0 c 2
 -34 0 l 1
 -34 172 l 1
 77 172 l 2
 126 172 166 205 166 253 c 2
 166 340 l 1
 302 340 l 1
 302 253 l 2
 302 227 315 209 329 196 c 0
 343 184 361 172 386 172 c 1
 442 248 503 329 571 394 c 0
 614 435 662 475 719 497 c 0
 745 507 770 512 796 512 c 0
 862 512 904 471 933 432 c 0
 953 404 969 373 978 337 c 0
 982 321 984 308 984 295 c 0
 984 245 966 201 944 166 c 0
 881 67 769 0 607 0 c 2
 386 0 l 2
 323 0 270 37 236 74 c 1
EndSplineSet
EndChar

StartChar: Zm
Encoding: 65560 -1 122
Width: 1099
GlyphClass: 2
Flags: W
LayerCount: 2
Fore
SplineSet
957 188 m 1
 995 178 1051 172 1099 172 c 1
 1099 0 l 1
 1055 0 1009 7 971 13 c 0
 938 18 904 27 877 35 c 2
 824 53 l 1
 767 21 696 0 607 0 c 2
 386 0 l 2
 323 0 270 37 236 74 c 1
 200 35 148 0 77 0 c 2
 -34 0 l 1
 -34 172 l 1
 77 172 l 2
 126 172 166 205 166 253 c 2
 166 340 l 1
 302 340 l 1
 302 253 l 2
 302 227 315 209 329 196 c 0
 343 184 361 172 386 172 c 1
 442 248 503 329 571 394 c 0
 614 435 662 475 719 497 c 0
 745 507 770 512 796 512 c 0
 862 512 904 471 933 432 c 0
 953 404 969 373 978 337 c 0
 982 321 984 308 984 295 c 0
 984 254 972 220 957 188 c 1
607 172 m 2
 708 172 793 198 834 255 c 0
 844 269 848 283 848 295 c 0
 848 306 840 315 834 323 c 0
 827 332 812 340 796 340 c 0
 778 340 760 336 741 326 c 0
 673 290 622 229 573 172 c 1
 607 172 l 2
EndSplineSet
EndChar

StartChar: Ts
Encoding: 65561 -1 123
Width: 875
GlyphClass: 2
Flags: W
LayerCount: 2
Fore
SplineSet
368 170 m 1
 381 170 393 169 404 169 c 2
 435 169 l 2
 511 169 575 180 620 207 c 0
 651 226 680 252 680 295 c 0
 680 306 672 315 666 323 c 0
 659 332 643 340 628 340 c 0
 573 340 528 314 492 288 c 0
 447 255 406 210 368 170 c 1
316 337 m 1
 380 401 448 468 543 498 c 0
 571 507 599 512 628 512 c 0
 694 512 736 471 765 432 c 0
 791 397 815 351 815 295 c 0
 815 202 776 133 722 86 c 0
 657 29 560 -2 435 -2 c 2
 384 -2 l 2
 318 -2 249 1 188 7 c 0
 147 11 108 18 75 29 c 1
 118 192 l 1
 135 186 158 184 180 180 c 1
 180 713 l 1
 316 713 l 1
 316 337 l 1
EndSplineSet
EndChar

StartChar: Tf
Encoding: 65562 -1 124
Width: 929
GlyphClass: 2
Flags: W
LayerCount: 2
Fore
SplineSet
667 49 m 1
 606 16 531 -2 435 -2 c 2
 384 -2 l 2
 318 -2 249 1 188 7 c 0
 147 11 108 18 75 29 c 1
 118 192 l 1
 135 186 158 184 180 180 c 1
 180 713 l 1
 316 713 l 1
 316 337 l 1
 380 401 448 468 543 498 c 0
 571 507 599 512 628 512 c 0
 694 512 736 471 765 432 c 0
 791 397 815 351 815 295 c 0
 815 256 808 220 794 187 c 1
 833 179 882 172 930 172 c 1
 930 0 l 1
 885 0 841 5 798 14 c 0
 755 23 711 34 667 49 c 1
368 170 m 1
 381 170 393 169 404 169 c 2
 435 169 l 2
 511 169 575 180 620 207 c 0
 651 226 680 252 680 295 c 0
 680 306 672 315 666 323 c 0
 659 332 643 340 628 340 c 0
 573 340 528 314 492 288 c 0
 447 255 406 210 368 170 c 1
EndSplineSet
EndChar

StartChar: Ti
Encoding: 65563 -1 125
Width: 767
GlyphClass: 2
Flags: W
LayerCount: 2
Fore
SplineSet
74 172 m 1
 74 714 l 1
 209 714 l 1
 209 338 l 1
 254 383 301 426 356 460 c 0
 401 488 454 512 521 512 c 0
 587 512 629 471 658 432 c 0
 678 405 694 374 703 338 c 0
 707 322 709 308 709 295 c 0
 709 202 669 135 615 88 c 0
 551 32 451 0 328 0 c 2
 -34 0 l 1
 -34 172 l 1
 74 172 l 1
328 172 m 2
 404 172 467 184 513 209 c 0
 544 226 573 253 573 295 c 0
 573 308 566 315 559 323 c 0
 552 332 537 340 521 340 c 0
 466 340 423 315 387 289 c 0
 342 256 300 213 263 172 c 1
 328 172 l 2
EndSplineSet
EndChar

StartChar: Tm
Encoding: 65564 -1 126
Width: 823
GlyphClass: 2
Flags: W
LayerCount: 2
Fore
SplineSet
559 50 m 1
 498 17 423 0 328 0 c 2
 -34 0 l 1
 -34 172 l 1
 74 172 l 1
 74 714 l 1
 209 714 l 1
 209 338 l 1
 254 383 301 426 356 460 c 0
 401 488 454 512 521 512 c 0
 587 512 629 471 658 432 c 0
 678 405 694 374 703 338 c 0
 707 322 709 308 709 295 c 0
 709 253 701 219 688 188 c 1
 727 180 775 172 823 172 c 1
 823 0 l 1
 741 0 664 17 601 36 c 2
 559 50 l 1
328 172 m 2
 404 172 467 184 513 209 c 0
 544 226 573 253 573 295 c 0
 573 308 566 315 559 323 c 0
 552 332 537 340 521 340 c 0
 466 340 423 315 387 289 c 0
 342 256 300 213 263 172 c 1
 328 172 l 2
EndSplineSet
EndChar

StartChar: Is
Encoding: 65565 -1 127
Width: 659
GlyphClass: 2
Flags: W
LayerCount: 2
Fore
SplineSet
587 -233 m 1
 538 -242 479 -250 420 -250 c 0
 296 -250 188 -208 124 -144 c 0
 86 -106 59 -54 59 20 c 0
 59 117 91 183 137 235 c 0
 153 253 169 270 188 285 c 1
 146 333 125 395 125 473 c 0
 125 516 140 552 158 580 c 0
 186 624 230 663 284 680 c 0
 300 685 317 688 333 688 c 2
 365 688 l 2
 401 688 434 682 465 675 c 1
 448 516 l 1
 333 516 l 2
 305 516 280 505 268 489 c 0
 264 484 261 479 261 473 c 0
 261 417 300 389 345 371 c 1
 404 394 473 408 534 421 c 1
 559 252 l 1
 452 234 339 201 266 146 c 0
 230 119 194 79 194 20 c 0
 194 -9 215 -27 235 -39 c 0
 280 -65 350 -78 420 -78 c 0
 471 -78 520 -73 562 -64 c 1
 587 -233 l 1
EndSplineSet
EndChar

StartChar: If
Encoding: 65566 -1 128
Width: 672
GlyphClass: 2
Flags: W
LayerCount: 2
Fore
SplineSet
672 0 m 1
 518 0 437 72 386 182 c 1
 324 158 261 122 226 71 c 0
 215 55 210 38 210 19 c 0
 210 -24 248 -46 280 -58 c 0
 313 -71 355 -81 398 -81 c 2
 566 -81 l 1
 566 -252 l 1
 398 -252 l 2
 316 -252 248 -224 194 -191 c 0
 148 -163 112 -122 90 -70 c 0
 79 -44 74 -14 74 19 c 0
 74 106 111 172 155 219 c 0
 200 268 259 307 322 335 c 1
 320 370 298 380 258 380 c 1
 250 518 l 1
 302 531 358 547 422 547 c 0
 489 547 539 511 562 466 c 0
 570 450 574 434 574 416 c 0
 574 381 568 356 556 333 c 0
 550 322 541 313 532 304 c 0
 523 295 513 284 500 274 c 1
 528 207 580 172 672 172 c 1
 672 0 l 1
EndSplineSet
EndChar

StartChar: Ii
Encoding: 65567 -1 129
Width: 589
GlyphClass: 2
Flags: W
LayerCount: 2
Fore
SplineSet
311 217 m 1
 376 238 434 260 500 279 c 1
 540 115 l 1
 409 72 l 2
 377 61 347 52 319 43 c 0
 241 18 162 0 61 0 c 2
 -34 0 l 1
 -34 172 l 1
 61 172 l 2
 70 172 80 173 89 173 c 0
 98 173 107 173 116 174 c 1
 89 219 70 275 70 344 c 0
 70 381 85 412 100 439 c 0
 128 488 173 529 229 550 c 0
 248 557 267 560 287 560 c 0
 345 560 401 556 450 547 c 1
 430 388 l 1
 287 388 l 2
 256 388 226 375 212 358 c 0
 208 353 206 349 206 344 c 0
 206 299 229 271 256 248 c 0
 270 236 288 226 311 217 c 1
EndSplineSet
EndChar

StartChar: Im
Encoding: 65568 -1 130
Width: 509
GlyphClass: 2
Flags: W
LayerCount: 2
Fore
SplineSet
368 198 m 1
 398 176 452 172 509 172 c 1
 509 0 l 1
 395 0 311 25 258 88 c 1
 217 55 172 21 115 7 c 0
 99 3 82 0 67 0 c 2
 -34 0 l 1
 -34 172 l 1
 67 172 l 2
 110 172 148 198 175 220 c 1
 171 226 168 232 164 238 c 0
 152 256 129 265 99 265 c 1
 91 403 l 1
 142 416 200 432 263 432 c 0
 329 432 379 404 400 359 c 0
 407 344 411 327 411 307 c 0
 411 258 392 226 368 198 c 1
EndSplineSet
EndChar

StartChar: Fs
Encoding: 65569 -1 131
Width: 1086
GlyphClass: 2
Flags: W
LayerCount: 2
Fore
SplineSet
66 256 m 0
 66 292 72 331 79 364 c 0
 86 400 94 441 104 473 c 1
 240 449 l 1
 227 403 212 347 206 296 c 0
 204 280 202 266 202 256 c 0
 202 220 226 198 255 184 c 0
 300 162 361 154 434 154 c 0
 541 154 637 156 726 166 c 0
 787 173 839 178 885 192 c 0
 887 194 890 201 891 212 c 1
 878 210 864 209 851 209 c 0
 802 209 758 228 725 248 c 0
 683 273 645 317 645 383 c 0
 645 445 671 496 699 533 c 0
 724 566 765 605 817 605 c 0
 852 605 881 592 906 576 c 0
 980 530 1031 443 1031 322 c 0
 1031 239 1022 168 1001 112 c 0
 985 70 962 40 921 28 c 0
 832 1 728 -7 611 -14 c 0
 559 -17 500 -18 434 -18 c 0
 310 -18 214 7 150 62 c 0
 99 106 66 168 66 256 c 0
917 350 m 1
 898 384 876 416 843 436 c 0
 833 442 822 444 811 444 c 0
 787 444 776 420 769 403 c 0
 766 396 765 388 765 381 c 0
 765 346 821 337 858 337 c 0
 881 337 904 341 917 350 c 1
EndSplineSet
EndChar

StartChar: Ff
Encoding: 65570 -1 132
Width: 1086
GlyphClass: 2
Flags: W
LayerCount: 2
Fore
SplineSet
825 63 m 1
 698 13 541 -20 362 -20 c 0
 268 -20 197 15 148 62 c 0
 102 106 66 172 66 256 c 0
 66 292 72 331 79 364 c 0
 86 400 94 441 104 473 c 1
 240 449 l 1
 227 403 212 347 206 296 c 0
 204 280 202 266 202 256 c 0
 202 223 224 197 246 183 c 0
 274 165 316 152 362 152 c 0
 483 152 592 169 682 192 c 1
 667 225 658 261 658 306 c 0
 658 347 677 384 697 410 c 0
 709 426 721 442 736 456 c 0
 763 482 793 503 828 517 c 0
 843 523 857 526 869 526 c 0
 914 526 950 493 972 463 c 0
 998 428 1021 376 1021 318 c 0
 1021 267 1002 222 978 187 c 1
 1012 179 1051 172 1087 172 c 1
 1087 0 l 1
 1046 0 1004 10 965 18 c 0
 916 28 866 45 825 63 c 1
825 237 m 1
 849 253 867 268 879 283 c 0
 891 298 896 311 896 322 c 0
 896 334 894 346 890 354 c 0
 887 359 882 368 876 368 c 0
 842 368 811 346 793 328 c 0
 786 321 783 314 783 307 c 0
 783 276 804 254 825 237 c 1
EndSplineSet
EndChar

StartChar: Fi
Encoding: 65571 -1 133
Width: 509
GlyphClass: 2
Flags: W
LayerCount: 2
Fore
SplineSet
335 350 m 1
 316 385 295 416 262 436 c 0
 252 442 241 444 230 444 c 0
 205 444 196 421 188 403 c 0
 185 396 184 388 184 381 c 0
 184 370 192 360 208 351 c 0
 224 342 247 338 277 338 c 0
 299 338 323 342 335 350 c 1
253 172 m 2
 279 172 290 191 299 211 c 1
 289 210 280 209 270 209 c 0
 220 209 178 229 144 249 c 0
 102 274 63 317 63 383 c 0
 63 443 90 496 118 533 c 0
 143 566 184 605 236 605 c 0
 271 605 300 592 325 576 c 0
 399 530 450 444 450 323 c 0
 450 190 427 75 347 24 c 0
 322 8 290 0 253 0 c 2
 -34 0 l 1
 -34 172 l 1
 253 172 l 2
EndSplineSet
EndChar

StartChar: Fm
Encoding: 65572 -1 134
Width: 509
GlyphClass: 2
Flags: W
LayerCount: 2
Fore
SplineSet
253 230 m 1
 272 245 287 260 298 276 c 0
 309 292 315 307 315 323 c 0
 315 340 309 354 302 364 c 0
 300 367 296 368 294 368 c 0
 260 368 229 347 211 329 c 0
 204 322 201 314 201 307 c 0
 201 295 205 283 213 270 c 0
 221 257 234 244 253 230 c 1
389 187 m 1
 425 178 469 172 509 172 c 1
 509 0 l 1
 437 0 367 19 309 37 c 0
 286 44 265 53 245 62 c 1
 188 29 118 0 37 0 c 2
 -34 0 l 1
 -34 172 l 1
 37 172 l 2
 60 172 84 175 107 180 c 1
 88 215 77 254 77 306 c 0
 77 348 95 384 115 410 c 0
 149 455 191 495 246 517 c 0
 261 523 275 526 287 526 c 0
 332 526 368 493 390 463 c 0
 416 427 439 378 439 318 c 0
 439 264 415 221 389 187 c 1
EndSplineSet
EndChar

StartChar: Gs
Encoding: 65573 -1 135
Width: 861
GlyphClass: 2
Flags: W
LayerCount: 2
Fore
SplineSet
192 21 m 0
 192 -23 229 -45 267 -54 c 0
 284 -58 305 -61 329 -61 c 0
 414 -61 494 -51 562 -35 c 0
 599 -26 631 -14 653 6 c 0
 662 14 667 23 667 32 c 2
 667 65 l 1
 660 64 651 62 644 62 c 2
 622 62 l 2
 571 62 531 81 497 101 c 0
 454 127 416 168 416 235 c 0
 416 294 442 350 470 386 c 0
 495 419 536 458 588 458 c 0
 623 458 652 445 677 429 c 0
 752 382 802 298 802 175 c 2
 802 32 l 2
 802 -30 769 -74 733 -107 c 0
 664 -169 560 -207 447 -224 c 0
 408 -230 369 -232 329 -232 c 0
 233 -232 167 -204 121 -156 c 0
 81 -115 57 -55 57 21 c 0
 57 119 78 211 100 288 c 1
 234 253 l 1
 218 204 205 138 197 80 c 0
 194 58 192 38 192 21 c 0
685 194 m 1
 678 234 647 269 618 288 c 0
 607 295 595 298 584 298 c 0
 562 298 549 273 542 257 c 0
 539 250 539 241 539 234 c 0
 539 199 595 191 631 191 c 2
 663 191 l 2
 672 191 679 192 685 194 c 1
EndSplineSet
EndChar

StartChar: Gf
Encoding: 65574 -1 136
Width: 929
GlyphClass: 2
Flags: W
LayerCount: 2
Fore
SplineSet
192 21 m 0
 192 -23 229 -45 267 -54 c 0
 284 -58 305 -61 329 -61 c 0
 435 -61 542 -48 616 -16 c 0
 637 -7 652 4 659 16 c 1
 560 36 474 71 433 149 c 0
 420 174 414 202 414 235 c 0
 414 296 440 349 468 386 c 0
 493 419 534 458 586 458 c 0
 645 458 689 423 721 391 c 0
 769 343 800 268 800 172 c 1
 930 172 l 1
 930 0 l 1
 796 0 l 1
 778 -84 708 -134 636 -169 c 0
 553 -209 449 -232 329 -232 c 0
 233 -232 167 -204 121 -156 c 0
 81 -115 57 -55 57 21 c 0
 57 119 78 211 100 288 c 1
 234 253 l 1
 218 204 205 138 197 80 c 0
 194 58 192 38 192 21 c 0
678 168 m 1
 676 212 662 245 641 268 c 0
 626 284 606 299 581 299 c 0
 556 299 547 276 539 258 c 0
 536 251 535 243 535 236 c 0
 535 199 588 187 621 179 c 0
 638 175 657 171 678 168 c 1
EndSplineSet
EndChar

StartChar: Qs
Encoding: 65575 -1 137
Width: 875
GlyphClass: 2
Flags: W
LayerCount: 2
Fore
SplineSet
256 372 m 1
 310 372 369 374 406 389 c 0
 416 393 422 398 422 405 c 0
 422 417 400 427 391 432 c 2
 373 441 l 2
 329 463 294 486 294 554 c 0
 294 650 366 679 461 679 c 1
 461 591 l 1
 422 591 379 589 357 573 c 0
 350 568 347 562 347 554 c 0
 347 542 369 533 378 528 c 2
 396 519 l 2
 440 497 475 472 475 405 c 0
 475 354 439 325 402 309 c 0
 363 292 311 284 256 284 c 1
 256 372 l 1
123 185 m 1
 166 161 235 154 307 154 c 0
 384 154 469 157 538 165 c 0
 590 169 649 182 649 238 c 2
 649 713 l 1
 785 713 l 1
 785 238 l 2
 785 176 773 125 749 88 c 0
 709 27 644 4 553 -6 c 0
 477 -16 390 -18 307 -18 c 0
 208 -18 122 0 59 33 c 1
 123 185 l 1
EndSplineSet
EndChar

StartChar: Qf
Encoding: 65576 -1 138
Width: 920
GlyphClass: 2
Flags: W
LayerCount: 2
Fore
SplineSet
892 0 m 2
 818 0 763 23 724 60 c 1
 662 -2 547 -9 428 -15 c 0
 386 -17 345 -18 304 -18 c 0
 205 -18 122 -1 59 33 c 1
 123 185 l 1
 166 161 231 154 304 154 c 0
 382 154 464 157 534 165 c 0
 586 169 645 182 645 238 c 2
 645 713 l 1
 781 713 l 1
 781 267 l 2
 781 203 827 172 892 172 c 2
 920 172 l 1
 920 0 l 1
 892 0 l 2
264 367 m 1
 317 367 377 370 414 385 c 0
 424 389 429 394 429 401 c 0
 429 413 407 422 398 427 c 0
 392 430 386 434 380 437 c 0
 335 459 302 481 302 549 c 0
 302 646 373 675 468 675 c 1
 468 587 l 1
 431 587 387 585 365 569 c 0
 358 564 354 557 354 549 c 0
 354 542 364 536 370 533 c 0
 375 530 379 527 385 524 c 2
 403 515 l 2
 447 493 482 468 482 401 c 0
 482 322 409 296 339 285 c 0
 313 281 289 279 264 279 c 1
 264 367 l 1
EndSplineSet
EndChar

StartChar: Ks
Encoding: 65577 -1 139
Width: 1136
GlyphClass: 2
Flags: W
LayerCount: 2
Fore
SplineSet
66 256 m 0
 66 292 72 331 79 364 c 0
 86 400 94 441 104 473 c 1
 240 449 l 1
 227 403 212 347 206 296 c 0
 204 280 202 266 202 256 c 0
 202 219 227 197 255 182 c 0
 298 158 361 151 434 151 c 0
 524 151 617 153 696 165 c 0
 743 172 789 183 816 206 c 0
 828 216 834 227 834 240 c 0
 834 259 829 277 818 295 c 0
 777 362 700 407 629 448 c 1
 637 642 l 1
 766 707 919 744 1078 775 c 1
 1107 607 l 1
 1001 588 895 564 801 532 c 1
 849 497 891 456 922 406 c 0
 949 362 970 307 970 240 c 0
 970 158 930 103 880 68 c 0
 776 -5 609 -21 434 -21 c 0
 310 -21 214 6 150 61 c 0
 99 105 66 168 66 256 c 0
EndSplineSet
EndChar

StartChar: Kf
Encoding: 65578 -1 140
Width: 1201
GlyphClass: 2
Flags: W
LayerCount: 2
Fore
SplineSet
1201 0 m 1
 1072 0 987 43 931 116 c 1
 842 -2 637 -21 434 -21 c 0
 310 -21 214 6 150 61 c 0
 99 105 66 168 66 256 c 0
 66 292 72 331 79 364 c 0
 86 400 94 441 104 473 c 1
 240 449 l 1
 227 403 212 347 206 296 c 0
 204 280 202 266 202 256 c 0
 202 219 227 197 255 182 c 0
 298 158 361 151 434 151 c 0
 524 151 617 153 696 165 c 0
 743 172 789 183 816 206 c 0
 828 216 834 227 834 240 c 0
 834 259 829 277 818 295 c 0
 777 362 700 407 629 448 c 1
 637 642 l 1
 739 693 856 730 979 755 c 0
 1014 762 1047 769 1078 775 c 1
 1107 607 l 1
 1001 588 895 564 801 532 c 1
 861 489 903 437 942 374 c 0
 964 338 987 291 1012 255 c 0
 1050 200 1106 172 1201 172 c 1
 1201 0 l 1
EndSplineSet
EndChar

StartChar: Ki
Encoding: 65579 -1 141
Width: 566
GlyphClass: 2
Flags: W
LayerCount: 2
Fore
SplineSet
-34 0 m 1
 -34 172 l 1
 43 172 l 2
 99 172 157 176 200 187 c 0
 230 194 264 208 264 240 c 0
 264 259 259 277 248 294 c 0
 206 359 130 400 59 441 c 1
 67 635 l 1
 170 686 285 724 408 752 c 0
 443 760 477 768 508 775 c 1
 537 607 l 1
 432 583 326 558 231 525 c 1
 300 475 360 417 387 327 c 0
 395 300 400 271 400 240 c 0
 400 144 359 87 297 52 c 0
 232 16 144 0 43 0 c 2
 -34 0 l 1
EndSplineSet
EndChar

StartChar: Km
Encoding: 65580 -1 142
Width: 632
GlyphClass: 2
Flags: W
LayerCount: 2
Fore
SplineSet
633 0 m 1
 506 0 421 42 364 112 c 1
 307 27 183 0 42 0 c 2
 -34 0 l 1
 -34 172 l 1
 42 172 l 2
 99 172 156 176 200 187 c 0
 230 194 264 208 264 240 c 0
 264 259 259 277 248 294 c 0
 206 359 130 401 59 441 c 1
 67 635 l 1
 169 686 285 724 408 752 c 0
 443 760 476 768 507 775 c 1
 537 607 l 1
 461 590 382 573 309 551 c 0
 282 543 256 534 230 525 c 1
 251 510 269 495 285 479 c 0
 301 463 317 448 331 430 c 0
 361 391 384 352 410 307 c 0
 442 250 473 203 543 183 c 0
 567 176 597 172 633 172 c 1
 633 0 l 1
EndSplineSet
EndChar

StartChar: Ls
Encoding: 65581 -1 143
Width: 832
GlyphClass: 2
Flags: W
LayerCount: 2
Fore
SplineSet
192 21 m 0
 192 -23 229 -45 267 -54 c 0
 284 -58 305 -61 329 -61 c 0
 433 -61 535 -48 584 5 c 0
 599 21 607 41 607 65 c 2
 607 713 l 1
 743 713 l 1
 743 65 l 2
 743 -53 693 -127 618 -170 c 0
 544 -213 446 -232 329 -232 c 0
 233 -232 167 -204 121 -156 c 0
 81 -115 57 -55 57 21 c 0
 57 106 85 179 109 242 c 0
 117 263 124 282 130 297 c 1
 264 242 l 1
 251 208 237 171 222 136 c 0
 211 111 204 84 197 55 c 0
 194 42 192 31 192 21 c 0
EndSplineSet
EndChar

StartChar: Lf
Encoding: 65582 -1 144
Width: 875
GlyphClass: 2
Flags: W
LayerCount: 2
Fore
SplineSet
847 0 m 2
 806 0 770 5 740 15 c 1
 720 -114 635 -179 518 -211 c 0
 462 -226 398 -232 329 -232 c 0
 233 -232 167 -204 121 -156 c 0
 81 -115 57 -55 57 21 c 0
 57 106 85 179 109 242 c 0
 117 263 124 282 130 297 c 1
 264 242 l 1
 251 208 237 171 222 136 c 0
 211 111 204 84 197 55 c 0
 194 42 192 31 192 21 c 0
 192 -23 229 -45 267 -54 c 0
 284 -58 305 -61 329 -61 c 0
 433 -61 535 -48 584 5 c 0
 599 21 607 41 607 65 c 2
 607 713 l 1
 743 713 l 1
 743 256 l 2
 743 192 781 172 847 172 c 2
 875 172 l 1
 875 0 l 1
 847 0 l 2
EndSplineSet
EndChar

StartChar: Li
Encoding: 65583 -1 145
Width: 369
GlyphClass: 2
Flags: W
LayerCount: 2
Fore
SplineSet
24 172 m 2
 78 172 127 184 127 238 c 2
 127 713 l 1
 263 713 l 1
 263 238 l 2
 263 122 223 46 137 17 c 0
 104 6 66 0 24 0 c 2
 -34 0 l 1
 -34 172 l 1
 24 172 l 2
EndSplineSet
EndChar

StartChar: Lm
Encoding: 65584 -1 146
Width: 406
GlyphClass: 2
Flags: W
LayerCount: 2
Fore
SplineSet
26 172 m 2
 80 172 129 184 129 238 c 2
 129 713 l 1
 265 713 l 1
 265 263 l 2
 265 201 315 172 378 172 c 2
 406 172 l 1
 406 0 l 1
 378 0 l 2
 302 0 248 24 208 60 c 1
 167 19 106 0 26 0 c 2
 -34 0 l 1
 -34 172 l 1
 26 172 l 2
EndSplineSet
EndChar

StartChar: Ms
Encoding: 65585 -1 147
Width: 691
GlyphClass: 2
Flags: W
LayerCount: 2
Fore
SplineSet
346 397 m 0
 346 379 349 366 356 351 c 1
 406 345 457 337 503 326 c 1
 499 381 463 423 425 445 c 0
 411 453 396 457 381 457 c 0
 355 457 346 424 346 397 c 0
579 139 m 1
 522 159 456 176 388 185 c 0
 365 188 342 190 320 190 c 0
 272 190 231 180 207 156 c 0
 200 149 197 141 197 133 c 0
 197 74 212 25 221 -29 c 0
 233 -108 243 -188 250 -279 c 1
 114 -291 l 1
 105 -190 96 -98 78 -9 c 0
 70 37 61 78 61 133 c 0
 61 191 80 236 108 269 c 0
 137 304 180 334 229 348 c 1
 227 356 226 364 226 372 c 2
 226 396 l 2
 226 491 266 562 326 598 c 0
 346 610 368 616 390 616 c 0
 436 616 475 595 503 572 c 0
 554 530 594 474 614 402 c 0
 620 380 623 358 623 337 c 0
 623 308 616 282 610 259 c 2
 579 139 l 1
EndSplineSet
EndChar

StartChar: Mf
Encoding: 65586 -1 148
Width: 843
GlyphClass: 2
Flags: W
LayerCount: 2
Fore
SplineSet
482 116 m 0
 482 95 499 74 520 74 c 0
 551 74 571 88 583 107 c 1
 567 126 552 148 538 173 c 2
 510 222 l 1
 493 189 482 158 482 116 c 0
346 116 m 0
 346 158 352 198 362 234 c 1
 342 239 318 241 289 241 c 0
 250 241 221 224 204 203 c 0
 199 197 197 192 197 186 c 0
 197 147 204 113 210 70 c 0
 226 -36 238 -151 248 -279 c 1
 112 -291 l 1
 109 -253 107 -217 104 -185 c 0
 94 -78 78 22 65 123 c 0
 62 146 61 167 61 186 c 0
 61 223 75 257 91 284 c 0
 122 336 166 381 227 402 c 0
 247 409 267 413 289 413 c 0
 334 413 376 406 413 393 c 1
 398 419 l 1
 516 504 l 1
 656 258 l 2
 691 198 750 172 843 172 c 1
 843 0 l 1
 788 0 742 6 699 22 c 1
 673 -29 635 -70 578 -89 c 0
 560 -95 541 -98 520 -98 c 0
 461 -98 422 -59 396 -23 c 0
 371 12 346 59 346 116 c 0
EndSplineSet
EndChar

StartChar: Mi
Encoding: 65587 -1 149
Width: 632
GlyphClass: 2
Flags: W
LayerCount: 2
Fore
SplineSet
440 134 m 0
 447 134 446 144 446 153 c 0
 446 199 425 233 400 255 c 0
 392 262 383 265 375 265 c 0
 358 265 345 252 334 242 c 0
 316 226 300 206 284 186 c 1
 325 154 372 134 440 134 c 0
566 162 m 0
 566 54 530 -25 425 -25 c 0
 362 -25 317 -8 271 17 c 0
 247 30 223 48 198 72 c 1
 159 41 106 16 51 5 c 0
 36 2 22 0 9 0 c 2
 -34 0 l 1
 -34 172 l 1
 9 172 l 2
 63 172 110 191 136 221 c 2
 157 248 l 2
 191 289 223 335 261 369 c 0
 291 396 323 423 374 423 c 0
 410 423 440 403 462 384 c 0
 506 346 540 290 558 226 c 0
 564 205 566 183 566 162 c 0
EndSplineSet
EndChar

StartChar: Mm
Encoding: 65588 -1 150
Width: 729
GlyphClass: 2
Flags: W
LayerCount: 2
Fore
SplineSet
388 111 m 0
 411 111 418 141 418 167 c 0
 418 196 413 216 406 235 c 0
 402 245 394 259 385 259 c 0
 365 259 348 248 334 239 c 0
 325 233 314 226 304 217 c 0
 294 208 284 198 273 188 c 1
 294 160 315 141 334 129 c 0
 353 117 372 111 388 111 c 0
183 81 m 1
 139 41 88 0 6 0 c 2
 -34 0 l 1
 -34 172 l 1
 6 172 l 2
 38 172 58 185 78 198 c 0
 101 212 118 232 136 252 c 0
 189 308 244 370 317 403 c 0
 337 412 357 417 377 417 c 0
 392 417 409 411 427 399 c 0
 445 387 463 370 481 349 c 2
 578 231 l 2
 613 190 655 172 729 172 c 1
 729 0 l 1
 694 0 663 3 633 10 c 0
 616 14 598 22 580 31 c 0
 562 40 542 52 523 69 c 1
 502 8 456 -46 379 -46 c 0
 314 -46 271 -11 235 23 c 0
 218 39 200 58 183 81 c 1
EndSplineSet
EndChar

StartChar: Ns
Encoding: 65589 -1 151
Width: 791
GlyphClass: 2
Flags: W
LayerCount: 2
Fore
SplineSet
663 364 m 1
 682 314 705 249 719 194 c 0
 729 153 743 107 743 65 c 0
 743 -53 693 -127 618 -170 c 0
 544 -213 446 -232 329 -232 c 0
 233 -232 167 -204 121 -156 c 0
 81 -115 57 -55 57 21 c 0
 57 106 85 179 109 242 c 0
 117 263 124 282 130 297 c 1
 264 242 l 1
 251 208 237 171 222 136 c 0
 211 111 204 84 197 55 c 0
 194 42 192 31 192 21 c 0
 192 -23 229 -45 267 -54 c 0
 284 -58 305 -61 329 -61 c 0
 433 -61 535 -48 584 5 c 0
 599 21 607 41 607 65 c 0
 607 84 601 106 595 125 c 0
 576 193 553 261 525 321 c 1
 663 364 l 1
EndSplineSet
EndChar

StartChar: Nf
Encoding: 65590 -1 152
Width: 853
GlyphClass: 2
Flags: W
LayerCount: 2
Fore
SplineSet
854 0 m 1
 811 0 766 10 741 27 c 1
 733 -41 707 -90 669 -128 c 0
 595 -202 476 -232 329 -232 c 0
 233 -232 167 -204 121 -156 c 0
 81 -115 57 -55 57 21 c 0
 57 106 85 179 109 242 c 0
 117 263 124 282 130 297 c 1
 264 242 l 1
 251 208 237 171 222 136 c 0
 211 111 204 84 197 55 c 0
 194 42 192 31 192 21 c 0
 192 -23 229 -45 267 -54 c 0
 284 -58 305 -61 329 -61 c 0
 433 -61 535 -48 584 5 c 0
 599 21 607 41 607 65 c 0
 607 85 599 102 593 121 c 0
 589 134 583 147 578 161 c 0
 565 198 548 239 532 272 c 1
 655 348 l 1
 684 284 l 2
 712 223 765 172 854 172 c 1
 854 0 l 1
EndSplineSet
EndChar

StartChar: Vs
Encoding: 65591 -1 153
Width: 632
GlyphClass: 2
Flags: W
LayerCount: 2
Fore
SplineSet
432 209 m 1
 421 246 404 284 377 304 c 0
 369 310 362 313 354 313 c 0
 336 313 325 295 318 281 c 0
 308 261 301 236 301 205 c 0
 301 204 303 203 307 203 c 0
 311 203 316 202 322 202 c 2
 358 202 l 2
 383 202 411 204 432 209 c 1
41 -132 m 1
 123 -102 203 -71 275 -39 c 0
 306 -25 333 -11 355 3 c 0
 377 17 392 30 401 44 c 1
 394 43 387 42 380 42 c 2
 360 42 l 2
 293 42 241 57 211 96 c 0
 189 124 178 163 178 215 c 0
 178 291 205 351 236 397 c 0
 256 426 282 450 314 464 c 0
 328 470 342 474 356 474 c 0
 401 474 436 446 460 420 c 0
 505 372 540 303 556 227 c 0
 561 203 564 181 564 160 c 0
 564 35 537 -43 469 -100 c 0
 413 -146 344 -178 264 -209 c 0
 218 -227 165 -248 105 -270 c 1
 41 -132 l 1
EndSplineSet
EndChar

StartChar: Vf
Encoding: 65592 -1 154
Width: 672
GlyphClass: 2
Flags: W
LayerCount: 2
Fore
SplineSet
427 177 m 1
 421 222 406 265 381 290 c 0
 373 298 365 302 356 302 c 0
 325 302 314 247 314 215 c 0
 314 192 358 185 381 182 c 0
 395 180 410 178 427 177 c 1
377 17 m 1
 268 40 178 85 178 215 c 0
 178 291 205 351 236 397 c 0
 256 426 282 450 314 464 c 0
 328 470 342 474 356 474 c 0
 400 474 432 448 457 423 c 0
 503 377 534 310 553 238 c 0
 559 215 562 193 563 172 c 1
 672 172 l 1
 672 0 l 1
 610 0 l 2
 588 0 567 0 548 1 c 1
 530 -71 478 -109 415 -144 c 0
 379 -164 334 -183 283 -202 c 0
 232 -221 172 -243 105 -266 c 1
 40 -128 l 1
 142 -92 242 -60 329 -15 c 0
 350 -4 366 7 377 17 c 1
EndSplineSet
EndChar

StartChar: Hs
Encoding: 65593 -1 155
Width: 632
GlyphClass: 2
Flags: W
LayerCount: 2
Fore
SplineSet
442 208 m 0
 442 250 417 280 392 303 c 0
 359 334 315 360 268 379 c 1
 231 345 194 291 194 223 c 0
 194 185 225 161 263 161 c 0
 284 161 306 162 327 164 c 0
 363 167 402 176 427 190 c 0
 438 196 442 201 442 208 c 0
59 223 m 0
 59 330 103 413 150 477 c 0
 176 512 211 545 252 563 c 1
 281 554 310 544 338 530 c 0
 440 479 530 403 566 287 c 0
 574 261 578 235 578 208 c 0
 578 162 555 124 530 98 c 0
 484 49 418 13 339 -3 c 0
 314 -8 288 -11 263 -11 c 0
 201 -11 152 21 120 56 c 0
 85 95 59 152 59 223 c 0
EndSplineSet
EndChar

StartChar: Hf
Encoding: 65594 -1 156
Width: 659
GlyphClass: 2
Flags: W
LayerCount: 2
Fore
SplineSet
363 364 m 1
 320 350 283 332 249 313 c 0
 235 305 225 297 218 289 c 0
 211 281 207 273 207 266 c 0
 207 251 244 246 263 243 c 0
 280 240 300 238 322 236 c 0
 344 234 369 231 394 230 c 1
 363 364 l 1
660 0 m 1
 636 0 613 1 590 2 c 0
 500 6 451 59 422 131 c 1
 365 67 l 1
 243 78 123 103 83 197 c 0
 75 216 71 240 71 266 c 0
 71 332 103 382 140 419 c 0
 188 467 253 503 326 529 c 1
 307 613 l 1
 439 651 l 1
 532 243 l 2
 546 185 589 172 660 172 c 1
 660 0 l 1
EndSplineSet
EndChar

StartChar: Hi
Encoding: 65595 -1 157
Width: 708
GlyphClass: 2
Flags: W
LayerCount: 2
Fore
SplineSet
494 121 m 0
 510 121 525 136 525 152 c 0
 525 219 500 267 463 309 c 1
 463 296 l 2
 463 227 439 171 407 130 c 1
 436 125 465 121 494 121 c 0
261 208 m 1
 293 224 323 244 339 276 c 0
 344 286 347 297 347 308 c 0
 347 341 339 372 323 390 c 0
 317 397 308 400 299 400 c 0
 259 400 223 374 206 350 c 0
 199 340 195 330 195 320 c 0
 195 267 228 232 261 208 c 1
251 33 m 1
 193 13 121 0 46 0 c 2
 -34 0 l 1
 -34 172 l 1
 46 172 l 2
 63 172 80 173 97 174 c 1
 75 213 60 260 60 320 c 0
 60 387 95 438 131 474 c 1
 82 491 l 1
 127 653 l 1
 254 609 361 563 455 500 c 0
 523 455 574 405 610 338 c 0
 636 289 649 233 649 165 c 0
 649 104 623 58 593 25 c 0
 573 3 550 -13 522 -25 c 0
 510 -30 499 -32 488 -32 c 0
 425 -32 370 -15 319 3 c 0
 296 11 273 21 251 33 c 1
EndSplineSet
EndChar

StartChar: Hm
Encoding: 65596 -1 158
Width: 566
GlyphClass: 2
Flags: W
LayerCount: 2
Fore
SplineSet
216 217 m 1
 247 234 279 251 300 276 c 0
 305 282 307 287 307 292 c 0
 307 324 288 348 271 366 c 0
 258 380 237 403 216 403 c 1
 216 217 l 1
420 -49 m 0
 420 -73 422 -84 432 -100 c 1
 432 -247 l 1
 355 -247 294 -212 250 -172 c 0
 197 -123 154 -56 127 21 c 1
 89 8 47 0 0 0 c 2
 -34 0 l 1
 -34 172 l 1
 0 172 l 2
 32 172 62 175 93 182 c 1
 92 192 91 201 91 211 c 2
 91 242 l 2
 91 306 94 359 101 400 c 0
 108 441 116 475 128 499 c 0
 147 538 172 562 222 562 c 0
 232 562 245 558 259 551 c 0
 293 534 325 504 352 475 c 0
 382 443 408 402 425 357 c 0
 433 336 437 315 437 294 c 0
 437 282 433 267 424 250 c 0
 401 207 366 170 328 136 c 0
 306 116 281 99 254 82 c 1
 265 52 279 25 296 3 c 1
 314 47 350 89 387 117 c 0
 424 145 471 172 532 172 c 2
 566 172 l 1
 566 0 l 1
 532 0 l 2
 491 0 449 -13 429 -33 c 0
 423 -39 420 -44 420 -49 c 0
EndSplineSet
EndChar

StartChar: Ys
Encoding: 65597 -1 159
Width: 929
GlyphClass: 2
Flags: W
LayerCount: 2
Fore
SplineSet
766 284 m 1
 756 302 739 320 716 320 c 0
 669 320 629 295 605 271 c 0
 597 263 593 255 593 248 c 0
 593 233 622 231 638 229 c 0
 732 219 803 182 810 87 c 0
 811 74 812 61 812 49 c 0
 812 -27 775 -74 731 -110 c 0
 657 -169 550 -196 430 -209 c 0
 392 -213 357 -215 323 -215 c 0
 212 -215 130 -185 91 -117 c 0
 71 -83 59 -47 57 1 c 0
 56 21 56 39 56 56 c 0
 56 107 64 162 73 207 c 0
 81 249 93 296 103 331 c 1
 237 297 l 1
 220 246 204 177 196 116 c 0
 193 93 191 73 191 56 c 0
 191 -21 241 -43 323 -43 c 0
 429 -43 540 -36 618 -6 c 0
 636 1 649 9 660 18 c 0
 671 27 676 37 676 49 c 1
 671 54 661 53 650 55 c 0
 577 65 515 81 485 132 c 0
 467 163 458 199 458 248 c 0
 458 289 479 327 499 355 c 0
 512 373 527 390 544 407 c 0
 561 424 580 437 599 450 c 0
 618 463 638 473 658 480 c 0
 678 487 697 492 716 492 c 0
 745 492 774 482 802 463 c 0
 830 444 856 415 881 374 c 1
 766 284 l 1
EndSplineSet
EndChar

StartChar: Yf
Encoding: 65598 -1 160
Width: 920
GlyphClass: 2
Flags: W
LayerCount: 2
Fore
SplineSet
191 12 m 0
 191 -11 207 -29 223 -41 c 0
 247 -58 281 -69 324 -69 c 0
 376 -69 424 -70 467 -70 c 2
 578 -70 l 2
 609 -70 633 -71 650 -71 c 2
 676 -71 l 1
 676 -64 672 -55 664 -42 c 0
 639 -1 595 42 545 58 c 1
 582 223 l 1
 658 201 746 185 835 176 c 0
 864 173 892 172 920 172 c 1
 920 0 l 1
 875 0 830 3 787 9 c 1
 795 -7 801 -22 805 -36 c 0
 809 -50 812 -61 812 -71 c 0
 812 -112 778 -139 749 -158 c 0
 677 -205 572 -225 460 -235 c 0
 417 -239 372 -241 324 -241 c 0
 228 -241 166 -204 121 -153 c 0
 94 -122 74 -85 63 -42 c 0
 58 -23 56 -5 56 12 c 0
 56 94 76 170 95 237 c 0
 103 267 112 296 123 320 c 1
 252 269 l 1
 242 251 235 222 227 198 c 0
 222 183 218 167 214 150 c 0
 204 108 191 61 191 12 c 0
EndSplineSet
EndChar

StartChar: LAs
Encoding: 65599 -1 161
Width: 708
GlyphClass: 2
Flags: W
LayerCount: 2
Fore
SplineSet
486 713 m 1
 622 713 l 1
 622 238 l 2
 622 144 569 88 510 51 c 0
 446 10 366 -16 287 -41 c 2
 215 -64 l 1
 175 100 l 1
 237 120 l 1
 225 234 196 321 140 389 c 0
 121 412 99 433 74 454 c 1
 159 587 l 1
 249 514 311 426 345 298 c 0
 356 257 363 213 369 164 c 1
 408 179 451 193 477 219 c 0
 483 225 486 232 486 238 c 2
 486 713 l 1
EndSplineSet
EndChar

StartChar: uniFEFB
Encoding: 65275 65275 162
Width: 708
GlyphClass: 3
LigCaretCntFixed: 1
Flags: W
LayerCount: 2
Fore
SplineSet
490 713 m 1
 625 713 l 1
 625 238 l 2
 625 111 533 53 444 14 c 0
 396 -7 343 -24 291 -41 c 2
 219 -64 l 1
 179 100 l 1
 241 120 l 1
 234 203 225 283 203 356 c 0
 176 447 134 523 75 589 c 1
 177 704 l 1
 214 662 244 618 268 573 c 0
 312 491 342 402 358 298 c 0
 365 252 371 207 375 164 c 1
 404 175 433 187 456 201 c 0
 470 209 490 220 490 238 c 2
 490 713 l 1
EndSplineSet
Ligature2: "'rlig' Required Ligatures in Arabic lookup 5 subtable" uni0644.init uniFE8E
LCarets2: 1 300
EndChar

StartChar: LAf
Encoding: 65600 -1 163
Width: 761
GlyphClass: 2
Flags: W
LayerCount: 2
Fore
SplineSet
762 0 m 1
 660 0 581 20 530 71 c 1
 465 13 372 -26 269 -44 c 2
 163 -62 l 1
 141 107 l 1
 181 115 203 119 234 123 c 0
 241 124 245 125 246 125 c 2
 248 126 l 1
 239 196 226 255 200 310 c 0
 169 375 125 426 69 472 c 1
 154 606 l 1
 254 526 325 423 360 284 c 0
 370 244 376 204 381 162 c 1
 395 167 407 172 419 178 c 0
 439 188 457 201 469 217 c 0
 474 224 477 231 477 238 c 2
 477 713 l 1
 612 713 l 1
 612 238 l 2
 612 176 698 172 762 172 c 1
 762 0 l 1
EndSplineSet
EndChar

StartChar: uniFEFC
Encoding: 65276 65276 164
Width: 761
GlyphClass: 3
LigCaretCntFixed: 1
Flags: W
LayerCount: 2
Fore
SplineSet
762 0 m 1
 660 0 581 20 530 71 c 1
 465 13 372 -26 269 -44 c 2
 163 -62 l 1
 141 107 l 1
 244 125 l 1
 237 210 227 286 205 359 c 0
 178 449 137 524 79 589 c 1
 180 704 l 1
 275 596 336 465 362 295 c 0
 369 249 374 204 378 160 c 1
 412 172 450 190 469 216 c 0
 474 223 477 230 477 238 c 2
 477 713 l 1
 612 713 l 1
 612 238 l 2
 612 176 698 172 762 172 c 1
 762 0 l 1
EndSplineSet
Ligature2: "'rlig' Required Ligatures in Arabic lookup 5 subtable" uni0644.medi uniFE8E
LCarets2: 1 352
EndChar

StartChar: D1
Encoding: 65601 -1 165
Width: 406
GlyphClass: 5
Flags: W
LayerCount: 2
Fore
SplineSet
258 480 m 1
 146 480 l 1
 146 592 l 1
 258 592 l 1
 258 480 l 1
EndSplineSet
EndChar

StartChar: D2
Encoding: 65602 -1 166
Width: 406
GlyphClass: 5
Flags: W
LayerCount: 2
Fore
SplineSet
173 480 m 1
 61 480 l 1
 61 592 l 1
 173 592 l 1
 173 480 l 1
344 480 m 1
 231 480 l 1
 231 592 l 1
 344 592 l 1
 344 480 l 1
EndSplineSet
EndChar

StartChar: D3
Encoding: 65603 -1 167
Width: 406
GlyphClass: 5
Flags: W
LayerCount: 2
Fore
SplineSet
258 622 m 1
 146 622 l 1
 146 734 l 1
 258 734 l 1
 258 622 l 1
173 460 m 1
 61 460 l 1
 61 573 l 1
 173 573 l 1
 173 460 l 1
344 460 m 1
 231 460 l 1
 231 573 l 1
 344 573 l 1
 344 460 l 1
EndSplineSet
EndChar

StartChar: D1b
Encoding: 65604 -1 168
Width: 249
GlyphClass: 5
Flags: W
LayerCount: 2
Fore
SplineSet
258 -235 m 1
 146 -235 l 1
 146 -123 l 1
 258 -123 l 1
 258 -235 l 1
EndSplineSet
EndChar

StartChar: D2b
Encoding: 65605 -1 169
Width: 311
GlyphClass: 5
Flags: W
LayerCount: 2
Fore
SplineSet
173 -235 m 1
 61 -235 l 1
 61 -123 l 1
 173 -123 l 1
 173 -235 l 1
344 -235 m 1
 231 -235 l 1
 231 -123 l 1
 344 -123 l 1
 344 -235 l 1
EndSplineSet
EndChar

StartChar: D3b
Encoding: 65606 -1 170
Width: 311
GlyphClass: 5
Flags: W
LayerCount: 2
Fore
SplineSet
146 -364 m 1
 146 -252 l 1
 258 -252 l 1
 258 -364 l 1
 146 -364 l 1
61 -210 m 1
 61 -98 l 1
 173 -98 l 1
 173 -210 l 1
 61 -210 l 1
231 -210 m 1
 231 -98 l 1
 344 -98 l 1
 344 -210 l 1
 231 -210 l 1
EndSplineSet
EndChar

StartChar: mA
Encoding: 65607 -1 171
Width: 298
GlyphClass: 5
Flags: W
LayerCount: 2
Fore
SplineSet
265 591 m 0
 265 600 232 604 221 604 c 0
 183 604 162 584 142 560 c 0
 131 547 118 531 106 510 c 1
 160 517 216 533 249 560 c 0
 260 569 265 580 265 591 c 0
-16 455 m 0
 -30 455 -35 451 -42 443 c 1
 -90 506 l 1
 -78 521 -67 532 -52 542 c 0
 -41 549 -32 552 -16 552 c 0
 9 552 21 538 35 524 c 1
 57 571 81 610 111 642 c 0
 131 663 150 678 175 689 c 0
 189 695 203 697 221 697 c 0
 285 697 327 658 327 591 c 0
 327 549 304 517 280 495 c 0
 266 482 251 469 233 459 c 0
 200 441 165 425 126 416 c 0
 109 412 94 411 81 411 c 0
 58 411 43 416 29 424 c 0
 14 433 4 442 -8 454 c 0
 -9 455 -12 455 -16 455 c 0
EndSplineSet
EndChar

StartChar: mH
Encoding: 65608 -1 172
Width: 220
GlyphClass: 5
Flags: W
LayerCount: 2
Fore
SplineSet
80 521 m 1
 55 539 35 568 35 607 c 0
 35 675 73 721 122 742 c 0
 141 750 163 754 189 754 c 0
 209 754 228 752 248 748 c 1
 237 662 l 1
 222 666 206 666 189 666 c 0
 147 666 109 655 94 629 c 0
 90 622 88 615 88 607 c 0
 88 581 149 576 177 576 c 0
 181 576 192 578 211 582 c 1
 230 510 l 1
 168 464 95 427 -4 419 c 1
 -8 507 l 1
 26 509 55 514 80 521 c 1
EndSplineSet
EndChar

StartChar: uni064B
Encoding: 1611 1611 173
Width: 0
GlyphClass: 4
Flags: W
LayerCount: 2
Fore
SplineSet
250 557 m 1
 0 458 l 1
 0 514 l 1
 250 613 l 1
 250 557 l 1
250 685 m 1
 0 586 l 1
 0 642 l 1
 250 741 l 1
 250 685 l 1
EndSplineSet
EndChar

StartChar: uni064C
Encoding: 1612 1612 174
Width: 0
GlyphClass: 4
Flags: W
LayerCount: 2
Fore
SplineSet
193 625 m 0
 193 654 183 672 162 681 c 1
 122 679 105 651 95 615 c 1
 114 596 146 589 175 579 c 1
 182 592 193 609 193 625 c 0
215 565 m 1
 228 559 235 560 250 556 c 1
 250 506 l 1
 231 514 213 518 193 526 c 1
 146 460 62 417 -21 388 c 1
 -37 441 l 1
 -17 441 -2 451 13 456 c 1
 13 496 -1 533 -41 533 c 0
 -49 533 -58 532 -65 529 c 1
 -74 546 -85 558 -93 576 c 1
 -79 581 -66 583 -49 583 c 0
 15 583 48 531 51 469 c 1
 79 483 110 502 133 522 c 0
 141 529 148 535 153 541 c 1
 124 551 93 555 71 572 c 0
 63 578 56 586 49 595 c 1
 58 655 91 700 138 722 c 0
 153 729 170 733 187 733 c 1
 214 721 237 688 237 650 c 0
 237 614 227 589 215 565 c 1
EndSplineSet
EndChar

StartChar: uni064D
Encoding: 1613 1613 175
Width: 0
GlyphClass: 4
Flags: W
LayerCount: 2
Fore
SplineSet
237 -214 m 1
 -13 -314 l 1
 -13 -258 l 1
 237 -158 l 1
 237 -214 l 1
237 -91 m 1
 -13 -191 l 1
 -13 -135 l 1
 237 -35 l 1
 237 -91 l 1
EndSplineSet
EndChar

StartChar: uni064E
Encoding: 1614 1614 176
Width: 0
GlyphClass: 4
Flags: W
LayerCount: 2
Fore
SplineSet
237 679 m 1
 -13 578 l 1
 -13 634 l 1
 237 734 l 1
 237 679 l 1
EndSplineSet
EndChar

StartChar: uni064F
Encoding: 1615 1615 177
Width: 0
GlyphClass: 4
Flags: W
LayerCount: 2
Fore
SplineSet
179 620 m 0
 179 649 169 667 148 676 c 1
 109 676 94 650 84 616 c 1
 104 596 137 589 167 577 c 1
 175 590 179 603 179 620 c 0
205 562 m 1
 217 556 235 551 250 547 c 1
 237 501 l 1
 228 504 221 508 215 510 c 0
 205 513 197 517 189 520 c 0
 186 521 182 522 179 524 c 0
 147 481 105 446 54 418 c 0
 34 407 11 398 -13 389 c 1
 -13 450 l 1
 35 463 77 482 110 509 c 0
 121 518 132 527 140 537 c 1
 105 550 69 564 45 588 c 1
 48 675 89 726 173 731 c 1
 195 721 210 691 218 667 c 0
 221 658 222 649 222 640 c 0
 222 613 212 584 205 562 c 1
EndSplineSet
EndChar

StartChar: uni0650
Encoding: 1616 1616 178
Width: 0
GlyphClass: 4
Flags: W
LayerCount: 2
Fore
SplineSet
237 -212 m 1
 -13 -311 l 1
 -13 -255 l 1
 237 -156 l 1
 237 -212 l 1
EndSplineSet
EndChar

StartChar: uni0651
Encoding: 1617 1617 179
Width: 0
GlyphClass: 4
Flags: W
LayerCount: 2
Fore
SplineSet
211 692 m 0
 211 703 208 715 208 725 c 1
 248 734 l 1
 254 637 l 2
 254 592 239 563 211 546 c 0
 201 540 189 537 174 537 c 0
 148 537 131 560 122 579 c 1
 110 539 95 499 44 499 c 0
 -10 499 -29 554 -29 608 c 2
 -31 650 l 1
 8 659 l 1
 8 608 l 2
 8 583 13 563 27 552 c 0
 32 548 37 546 44 546 c 0
 86 546 94 604 94 646 c 2
 94 685 l 1
 130 697 l 1
 130 662 140 619 155 597 c 0
 161 588 168 584 176 584 c 0
 207 584 213 623 213 654 c 2
 213 671 l 2
 212 681 212 682 211 692 c 0
EndSplineSet
EndChar

StartChar: uni0652
Encoding: 1618 1618 180
Width: 0
GlyphClass: 4
Flags: W
LayerCount: 2
Fore
SplineSet
42 589 m 0
 42 559 74 553 104 553 c 0
 131 553 156 564 169 579 c 1
 171 583 l 1
 166 605 159 625 146 641 c 0
 132 659 111 674 84 678 c 1
 55 660 42 633 42 589 c 0
209 592 m 0
 209 576 200 555 195 542 c 1
 172 521 139 495 98 495 c 0
 55 495 24 523 7 551 c 0
 1 561 -1 572 -1 582 c 0
 -1 660 31 703 83 734 c 1
 125 724 154 704 177 677 c 0
 195 656 209 627 209 592 c 0
EndSplineSet
EndChar

StartChar: uni0653
Encoding: 1619 1619 181
Width: 0
GlyphClass: 4
Flags: W
LayerCount: 2
Fore
SplineSet
-26 850 m 1
 12 836 58 830 111 830 c 0
 146 830 179 838 205 849 c 0
 239 863 269 873 300 891 c 1
 345 789 l 1
 296 762 246 742 188 724 c 0
 165 717 137 712 111 712 c 0
 76 712 45 716 14 719 c 1
 13 712 12 707 12 700 c 0
 12 693 11 688 11 682 c 1
 -82 682 l 1
 -82 750 -59 811 -26 850 c 1
EndSplineSet
EndChar

StartChar: uni0654
Encoding: 1620 1620 182
Width: 0
GlyphClass: 4
Flags: W
LayerCount: 2
Fore
SplineSet
125 624 m 1
 159 632 190 635 226 641 c 1
 239 545 l 1
 204 538 173 537 135 528 c 0
 113 523 89 515 61 505 c 0
 33 495 0 481 -36 463 c 1
 -71 551 l 1
 -38 566 -10 580 22 592 c 1
 12 605 6 620 0 634 c 0
 -6 648 -9 662 -9 675 c 0
 -9 713 15 753 35 776 c 0
 54 798 81 830 116 830 c 0
 159 830 187 823 219 812 c 1
 194 720 l 1
 177 725 161 732 141 732 c 2
 116 732 l 2
 102 732 93 721 86 712 c 0
 78 703 69 690 69 675 c 0
 69 664 79 655 86 648 c 0
 96 638 111 629 125 624 c 1
EndSplineSet
EndChar

StartChar: uni0655
Encoding: 1621 1621 183
Width: 0
GlyphClass: 4
Flags: W
LayerCount: 2
Fore
SplineSet
125 -242 m 1
 159 -234 190 -232 226 -226 c 1
 239 -321 l 1
 204 -329 173 -330 135 -339 c 0
 74 -353 23 -374 -36 -403 c 1
 -71 -315 l 1
 -38 -300 -10 -286 22 -274 c 1
 6 -254 -9 -222 -9 -191 c 0
 -9 -153 15 -113 35 -90 c 0
 54 -68 82 -36 116 -36 c 0
 159 -36 187 -43 219 -54 c 1
 194 -146 l 1
 177 -141 162 -135 141 -135 c 0
 134 -135 125 -134 116 -134 c 0
 102 -134 93 -145 86 -154 c 0
 79 -163 69 -177 69 -191 c 0
 69 -202 79 -211 86 -218 c 0
 96 -228 111 -237 125 -242 c 1
EndSplineSet
EndChar

StartChar: uni0656
Encoding: 1622 1622 184
Width: 0
GlyphClass: 4
Flags: W
LayerCount: 2
Fore
SplineSet
170 -243 m 0
 170 -262 167 -275 164 -301 c 1
 127 -301 l 1
 127 -224 107 -171 77 -125 c 1
 123 -83 l 1
 149 -126 170 -173 170 -243 c 0
EndSplineSet
EndChar

StartChar: uni0670
Encoding: 1648 1648 185
Width: 0
GlyphClass: 4
Flags: W
LayerCount: 2
Fore
SplineSet
98 741 m 1
 124 698 146 652 146 582 c 0
 146 573 144 556 142 545 c 2
 139 523 l 1
 103 523 l 1
 103 580 91 628 72 666 c 0
 66 678 59 688 52 699 c 1
 98 741 l 1
EndSplineSet
EndChar

StartChar: uniFD3E
Encoding: 64830 64830 186
Width: 771
GlyphClass: 2
Flags: W
LayerCount: 2
Fore
SplineSet
379 -89 m 1
 439 -162 514 -221 606 -265 c 1
 546 -191 496 -105 459 -9 c 1
 379 -89 l 1
459 511 m 1
 496 609 546 693 607 768 c 1
 515 724 439 665 379 592 c 1
 459 511 l 1
379 142 m 1
 268 253 l 1
 379 364 l 1
 489 253 l 1
 379 142 l 1
379 92 m 0
 428 92 466 113 492 139 c 0
 517 164 540 204 540 252 c 0
 540 301 518 340 492 366 c 0
 467 391 426 413 379 413 c 0
 306 413 252 369 231 315 c 0
 223 295 218 274 218 252 c 0
 218 205 240 164 265 139 c 0
 291 113 329 92 379 92 c 0
627 -350 m 1
 434 -283 281 -167 201 10 c 1
 137 10 l 1
 137 153 l 1
 39 251 l 1
 137 350 l 1
 137 493 l 1
 201 493 l 1
 260 623 361 719 483 789 c 0
 527 814 575 835 627 853 c 1
 752 853 l 1
 651 752 562 636 506 493 c 1
 621 493 l 1
 621 350 l 1
 719 251 l 1
 621 153 l 1
 621 10 l 1
 506 10 l 1
 562 -133 652 -250 752 -350 c 1
 627 -350 l 1
EndSplineSet
EndChar

StartChar: uniFD3F
Encoding: 64831 64831 187
Width: 771
GlyphClass: 2
Flags: W
LayerCount: 2
Fore
SplineSet
313 -9 m 1
 276 -105 226 -191 166 -265 c 1
 258 -221 333 -162 393 -89 c 1
 313 -9 l 1
393 592 m 1
 333 664 257 724 165 768 c 1
 226 693 276 609 313 511 c 1
 393 592 l 1
504 253 m 1
 393 142 l 1
 283 253 l 1
 393 364 l 1
 504 253 l 1
554 252 m 0
 554 325 510 379 456 400 c 0
 436 408 415 413 393 413 c 0
 346 413 305 391 280 366 c 0
 254 340 232 301 232 252 c 0
 232 204 255 164 280 139 c 0
 306 113 344 92 393 92 c 0
 443 92 481 113 507 139 c 0
 532 164 554 205 554 252 c 0
635 10 m 1
 571 10 l 1
 512 -121 412 -216 289 -286 c 0
 245 -311 197 -332 145 -350 c 1
 20 -350 l 1
 121 -249 210 -133 266 10 c 1
 151 10 l 1
 151 153 l 1
 53 251 l 1
 151 350 l 1
 151 493 l 1
 266 493 l 1
 210 636 120 753 20 853 c 1
 145 853 l 1
 294 801 418 720 503 606 c 0
 530 570 553 533 571 493 c 1
 635 493 l 1
 635 350 l 1
 733 251 l 1
 635 153 l 1
 635 10 l 1
EndSplineSet
EndChar

StartChar: uniFDFC
Encoding: 65020 65020 188
Width: 1732
GlyphClass: 2
Flags: W
LayerCount: 2
Fore
SplineSet
980 335 m 2
 980 273 1028 255 1092 255 c 0
 1123 255 1152 262 1172 272 c 0
 1186 279 1203 289 1203 305 c 0
 1203 320 1197 343 1185 373 c 0
 1173 403 1156 439 1135 482 c 1
 1256 559 l 1
 1282 508 1301 460 1316 417 c 0
 1331 374 1338 337 1338 305 c 0
 1338 238 1306 191 1271 156 c 0
 1231 116 1171 83 1092 83 c 0
 921 83 844 165 844 335 c 2
 844 793 l 1
 980 793 l 1
 980 335 l 2
1106 -170 m 1
 984 -170 l 1
 984 -48 l 1
 1106 -48 l 1
 1106 -170 l 1
926 -170 m 1
 804 -170 l 1
 804 -48 l 1
 926 -48 l 1
 926 -170 l 1
717 174 m 2
 717 -75 587 -207 336 -207 c 0
 217 -207 115 -192 80 -111 c 0
 70 -88 64 -59 64 -25 c 0
 64 66 89 152 108 228 c 0
 113 248 119 266 124 282 c 0
 129 298 133 313 137 323 c 1
 268 259 l 1
 247 202 220 145 204 81 c 0
 201 69 200 57 200 47 c 0
 200 -17 270 -35 336 -35 c 0
 445 -35 536 -20 566 56 c 0
 578 87 582 123 582 166 c 2
 582 793 l 1
 717 793 l 1
 717 174 l 2
1220 -30 m 1
 1302 -3 1377 46 1433 99 c 0
 1467 131 1496 165 1515 206 c 0
 1523 223 1527 239 1527 254 c 0
 1527 287 1520 320 1510 346 c 0
 1504 362 1498 379 1489 396 c 0
 1480 413 1469 428 1456 444 c 1
 1586 516 l 1
 1621 465 1645 398 1657 325 c 0
 1661 301 1663 277 1663 254 c 0
 1663 189 1640 133 1613 88 c 0
 1561 0 1481 -72 1390 -123 c 0
 1358 -141 1325 -157 1290 -169 c 1
 1220 -30 l 1
EndSplineSet
EndChar

StartChar: mG
Encoding: 65609 -1 189
Width: 267
GlyphClass: 5
Flags: W
LayerCount: 2
Fore
SplineSet
506 717 m 1
 438 708 365 697 297 685 c 0
 218 670 141 648 72 621 c 1
 75 709 l 1
 199 759 347 780 499 800 c 1
 506 717 l 1
EndSplineSet
EndChar

StartChar: uniFB92
Encoding: 64402 64402 190
Width: 1143
GlyphClass: 2
Flags: W
LayerCount: 2
Fore
SplineSet
203 256 m 0
 203 219 228 197 256 182 c 0
 299 158 362 151 435 151 c 0
 524 151 618 154 697 163 c 0
 743 168 788 177 817 194 c 0
 829 201 835 211 835 221 c 0
 835 238 830 253 819 268 c 0
 775 327 698 363 630 402 c 1
 645 558 l 1
 747 598 868 627 990 644 c 0
 1026 649 1061 653 1092 657 c 1
 1104 529 l 1
 1032 519 961 511 892 497 c 0
 867 492 842 486 817 480 c 1
 897 424 971 355 971 221 c 0
 971 162 949 123 918 92 c 0
 820 -6 627 -21 435 -21 c 0
 311 -21 215 6 151 61 c 0
 100 105 67 168 67 256 c 0
 67 292 73 331 80 364 c 0
 87 400 95 441 105 473 c 1
 241 449 l 1
 228 403 213 347 207 296 c 0
 205 280 203 266 203 256 c 0
1086 717 m 1
 1018 708 945 697 877 685 c 0
 798 670 720 648 651 621 c 1
 654 709 l 1
 778 759 926 780 1078 800 c 1
 1086 717 l 1
EndSplineSet
EndChar

StartChar: uni06AF.fina
Encoding: 64403 64403 191
Width: 1201
GlyphClass: 2
Flags: W
LayerCount: 2
Fore
SplineSet
203 256 m 0
 203 219 228 197 256 182 c 0
 299 158 362 151 435 151 c 0
 524 151 618 154 697 163 c 0
 743 168 788 177 817 194 c 0
 829 201 835 211 835 221 c 0
 835 238 830 253 819 268 c 0
 775 327 698 363 630 402 c 1
 645 558 l 1
 747 598 868 627 990 644 c 0
 1026 649 1061 653 1092 657 c 1
 1104 529 l 1
 1010 518 909 502 819 480 c 1
 868 442 911 398 944 344 c 0
 961 317 979 284 996 256 c 0
 1033 194 1099 172 1201 172 c 1
 1201 0 l 1
 1101 0 1024 16 968 58 c 0
 952 70 938 85 925 100 c 1
 832 -5 630 -21 435 -21 c 0
 311 -21 215 6 151 61 c 0
 100 105 67 168 67 256 c 0
 67 292 73 331 80 364 c 0
 87 400 95 441 105 473 c 1
 241 449 l 1
 228 403 213 347 207 296 c 0
 205 280 203 266 203 256 c 0
1086 717 m 1
 1018 708 945 697 877 685 c 0
 798 670 720 648 651 621 c 1
 654 709 l 1
 778 759 926 780 1078 800 c 1
 1086 717 l 1
EndSplineSet
EndChar

StartChar: uni06AF.init
Encoding: 64404 64404 192
Width: 566
GlyphClass: 2
Flags: W
LayerCount: 2
Fore
SplineSet
515 717 m 1
 447 708 374 697 306 685 c 0
 227 670 150 648 81 621 c 1
 83 709 l 1
 207 759 355 780 507 800 c 1
 515 717 l 1
533 529 m 1
 461 519 391 511 322 497 c 0
 297 492 271 486 246 480 c 1
 290 449 328 417 357 373 c 0
 384 333 400 286 400 221 c 0
 400 87 299 33 184 12 c 0
 141 4 93 0 43 0 c 2
 -34 0 l 1
 -34 172 l 1
 43 172 l 2
 98 172 156 174 200 183 c 0
 227 188 264 196 264 221 c 0
 264 238 259 253 248 268 c 0
 204 327 127 363 59 402 c 1
 74 558 l 1
 176 598 298 627 420 644 c 0
 456 649 490 653 521 657 c 1
 533 529 l 1
EndSplineSet
EndChar

StartChar: uni06AF.medi
Encoding: 64405 64405 193
Width: 632
GlyphClass: 2
Flags: W
LayerCount: 2
Fore
SplineSet
515 717 m 1
 447 708 374 697 306 685 c 0
 227 670 149 648 80 621 c 1
 83 709 l 1
 206 758 351 781 502 800 c 1
 515 717 l 1
356 97 m 1
 293 26 176 0 42 0 c 2
 -34 0 l 1
 -34 172 l 1
 42 172 l 2
 97 172 155 174 200 183 c 0
 227 188 264 196 264 221 c 0
 264 238 259 253 248 268 c 0
 205 327 127 363 59 402 c 1
 74 558 l 1
 176 598 297 627 419 644 c 0
 455 649 490 653 521 657 c 1
 532 529 l 1
 461 519 391 511 323 497 c 0
 298 492 273 486 248 480 c 1
 315 429 365 366 406 288 c 0
 424 254 442 225 474 205 c 0
 513 181 564 172 633 172 c 1
 633 0 l 1
 562 0 506 9 457 27 c 0
 413 43 383 66 356 97 c 1
EndSplineSet
EndChar

StartChar: uni0622
Encoding: 1570 1570 194
Width: 406
GlyphClass: 2
Flags: W
LayerCount: 2
Fore
SplineSet
272 0 m 1
 136 0 l 1
 136 539 l 1
 272 539 l 1
 272 0 l 1
43 790 m 1
 81 776 127 770 180 770 c 0
 215 770 248 778 274 789 c 0
 308 803 338 813 369 831 c 1
 414 729 l 1
 365 702 315 682 257 664 c 0
 234 657 206 652 180 652 c 0
 145 652 114 656 83 659 c 1
 82 652 81 647 81 640 c 0
 81 633 80 628 80 622 c 1
 -13 622 l 1
 -13 690 10 751 43 790 c 1
EndSplineSet
Substitution2: "'fina' Terminal Forms in Arabic lookup 2 subtable" uni0622.fina
Substitution2: "'isol' Isolated Forms in Arabic lookup 1 subtable" uni0622.isol
EndChar

StartChar: uni0623
Encoding: 1571 1571 195
Width: 406
GlyphClass: 2
Flags: W
LayerCount: 2
Fore
SplineSet
272 0 m 1
 136 0 l 1
 136 539 l 1
 272 539 l 1
 272 0 l 1
233 757 m 1
 267 765 298 768 334 774 c 1
 347 678 l 1
 312 671 281 670 243 661 c 0
 221 656 197 648 169 638 c 0
 141 628 108 614 72 596 c 1
 37 684 l 1
 70 699 98 713 130 725 c 1
 120 738 114 753 108 767 c 0
 102 781 99 795 99 808 c 0
 99 846 123 886 143 909 c 0
 162 931 189 963 224 963 c 0
 267 963 295 956 327 945 c 1
 302 853 l 1
 285 858 269 865 249 865 c 2
 224 865 l 2
 210 865 201 854 194 845 c 0
 186 836 177 823 177 808 c 0
 177 797 187 788 194 781 c 0
 204 771 219 762 233 757 c 1
EndSplineSet
Substitution2: "'fina' Terminal Forms in Arabic lookup 2 subtable" uni0623.fina
Substitution2: "'isol' Isolated Forms in Arabic lookup 1 subtable" uni0623.isol
Ligature2: "'ccmp' Glyph Composition/Decomposition in Arabic lookup 0 subtable" uni0654 uni0627
EndChar

StartChar: uni0624
Encoding: 1572 1572 196
Width: 632
GlyphClass: 2
Flags: W
LayerCount: 2
Fore
SplineSet
432 209 m 1
 421 246 404 284 377 304 c 0
 369 310 362 313 354 313 c 0
 336 313 325 295 318 281 c 0
 308 261 301 236 301 205 c 0
 301 204 303 203 307 203 c 0
 311 203 316 202 322 202 c 2
 358 202 l 2
 383 202 411 204 432 209 c 1
41 -132 m 1
 123 -102 203 -71 275 -39 c 0
 306 -25 333 -11 355 3 c 0
 377 17 392 30 401 44 c 1
 394 43 387 42 380 42 c 2
 360 42 l 2
 293 42 241 57 211 96 c 0
 189 124 178 163 178 215 c 0
 178 291 205 351 236 397 c 0
 256 426 282 450 314 464 c 0
 328 470 342 474 356 474 c 0
 401 474 436 446 460 420 c 0
 505 372 540 303 556 227 c 0
 561 203 564 181 564 160 c 0
 564 35 537 -43 469 -100 c 0
 413 -146 344 -178 264 -209 c 0
 218 -227 165 -248 105 -270 c 1
 41 -132 l 1
343 687 m 1
 377 695 408 698 444 704 c 1
 457 608 l 1
 422 601 391 600 353 591 c 0
 331 586 307 578 279 568 c 0
 251 558 218 544 182 526 c 1
 147 614 l 1
 180 629 208 643 240 655 c 1
 230 668 224 683 218 697 c 0
 212 711 209 725 209 738 c 0
 209 776 233 816 253 839 c 0
 272 861 299 893 334 893 c 0
 377 893 405 886 437 875 c 1
 412 783 l 1
 395 788 379 795 359 795 c 2
 334 795 l 2
 320 795 311 784 304 775 c 0
 296 766 287 753 287 738 c 0
 287 727 297 718 304 711 c 0
 314 701 329 692 343 687 c 1
EndSplineSet
Substitution2: "'fina' Terminal Forms in Arabic lookup 2 subtable" uni0624.fina
Substitution2: "'isol' Isolated Forms in Arabic lookup 1 subtable" uni0624.isol
Ligature2: "'ccmp' Glyph Composition/Decomposition in Arabic lookup 0 subtable" uni0654 uni0648
EndChar

StartChar: uni0625
Encoding: 1573 1573 197
Width: 369
GlyphClass: 2
Flags: W
LayerCount: 2
Fore
SplineSet
243 0 m 1
 107 0 l 1
 107 713 l 1
 243 713 l 1
 243 0 l 1
200 -269 m 1
 234 -261 265 -259 301 -253 c 1
 314 -348 l 1
 279 -356 248 -357 210 -366 c 0
 149 -380 98 -401 39 -430 c 1
 4 -342 l 1
 37 -327 65 -313 97 -301 c 1
 81 -281 66 -249 66 -218 c 0
 66 -180 90 -140 110 -117 c 0
 129 -95 157 -63 191 -63 c 0
 234 -63 262 -70 294 -81 c 1
 269 -173 l 1
 252 -168 237 -162 216 -162 c 0
 209 -162 200 -161 191 -161 c 0
 177 -161 168 -172 161 -181 c 0
 154 -190 144 -204 144 -218 c 0
 144 -229 154 -238 161 -245 c 0
 171 -255 186 -264 200 -269 c 1
EndSplineSet
Substitution2: "'fina' Terminal Forms in Arabic lookup 2 subtable" uni0625.fina
Substitution2: "'isol' Isolated Forms in Arabic lookup 1 subtable" uni0625.isol
Ligature2: "'ccmp' Glyph Composition/Decomposition in Arabic lookup 0 subtable" uni0655 uni0627
EndChar

StartChar: uni0626
Encoding: 1574 1574 198
Width: 929
GlyphClass: 2
Flags: W
LayerCount: 2
Fore
SplineSet
766 284 m 1
 756 302 739 320 716 320 c 0
 669 320 629 295 605 271 c 0
 597 263 593 255 593 248 c 0
 593 233 622 231 638 229 c 0
 732 219 803 182 810 87 c 0
 811 74 812 61 812 49 c 0
 812 -27 775 -74 731 -110 c 0
 657 -169 550 -196 430 -209 c 0
 392 -213 357 -215 323 -215 c 0
 212 -215 130 -185 91 -117 c 0
 71 -83 59 -47 57 1 c 0
 56 21 56 39 56 56 c 0
 56 107 64 162 73 207 c 0
 81 249 93 296 103 331 c 1
 237 297 l 1
 220 246 204 177 196 116 c 0
 193 93 191 73 191 56 c 0
 191 -21 241 -43 323 -43 c 0
 429 -43 540 -36 618 -6 c 0
 636 1 649 9 660 18 c 0
 671 27 676 37 676 49 c 1
 671 54 661 53 650 55 c 0
 577 65 515 81 485 132 c 0
 467 163 458 199 458 248 c 0
 458 289 479 327 499 355 c 0
 512 373 527 390 544 407 c 0
 561 424 580 437 599 450 c 0
 618 463 638 473 658 480 c 0
 678 487 697 492 716 492 c 0
 745 492 774 482 802 463 c 0
 830 444 856 415 881 374 c 1
 766 284 l 1
421 599 m 1
 455 607 486 610 522 616 c 1
 535 520 l 1
 500 513 469 512 431 503 c 0
 409 498 385 490 357 480 c 0
 329 470 296 456 260 438 c 1
 225 526 l 1
 258 541 286 555 318 567 c 1
 308 580 302 595 296 609 c 0
 290 623 287 637 287 650 c 0
 287 688 311 728 331 751 c 0
 350 773 377 805 412 805 c 0
 455 805 483 798 515 787 c 1
 490 695 l 1
 473 700 457 707 437 707 c 2
 412 707 l 2
 398 707 389 696 382 687 c 0
 374 678 365 665 365 650 c 0
 365 639 375 630 382 623 c 0
 392 613 407 604 421 599 c 1
EndSplineSet
Substitution2: "'init' Initial Forms in Arabic lookup 4 subtable" uni0626.init
Substitution2: "'medi' Medial Forms in Arabic lookup 3 subtable" uni0626.medi
Substitution2: "'fina' Terminal Forms in Arabic lookup 2 subtable" uni0626.fina
Substitution2: "'isol' Isolated Forms in Arabic lookup 1 subtable" uni0626.isol
Ligature2: "'ccmp' Glyph Composition/Decomposition in Arabic lookup 0 subtable" uni0654 uni064A
Ligature2: "'ccmp' Glyph Composition/Decomposition in Arabic lookup 0 subtable" uni0654 uni06CC
EndChar

StartChar: uni0627
Encoding: 1575 1575 199
Width: 348
GlyphClass: 2
Flags: W
LayerCount: 2
Fore
SplineSet
243 0 m 1
 107 0 l 1
 107 713 l 1
 243 713 l 1
 243 0 l 1
EndSplineSet
Substitution2: "'fina' Terminal Forms in Arabic lookup 2 subtable" uniFE8E
Substitution2: "'isol' Isolated Forms in Arabic lookup 1 subtable" uniFE8D
EndChar

StartChar: uni0628
Encoding: 1576 1576 200
Width: 1136
GlyphClass: 2
Flags: W
LayerCount: 2
Fore
SplineSet
1036 473 m 1
 1055 401 1075 335 1075 250 c 0
 1075 177 1043 122 1003 87 c 0
 972 59 933 54 884 41 c 0
 807 21 717 6 630 -5 c 0
 569 -13 502 -18 434 -18 c 0
 310 -18 214 7 150 62 c 0
 99 106 66 168 66 256 c 0
 66 292 72 331 79 364 c 0
 86 400 94 441 104 473 c 1
 240 449 l 1
 227 403 212 347 206 296 c 0
 204 280 202 266 202 256 c 0
 202 220 226 198 255 184 c 0
 300 162 361 154 434 154 c 0
 573 154 707 174 821 200 c 0
 856 208 885 215 908 222 c 0
 923 226 939 235 939 250 c 0
 939 270 936 296 929 329 c 0
 922 362 912 402 899 449 c 1
 1036 473 l 1
575 -235 m 1
 463 -235 l 1
 463 -123 l 1
 575 -123 l 1
 575 -235 l 1
EndSplineSet
Substitution2: "'init' Initial Forms in Arabic lookup 4 subtable" uni0628.init
Substitution2: "'medi' Medial Forms in Arabic lookup 3 subtable" uni0628.medi
Substitution2: "'fina' Terminal Forms in Arabic lookup 2 subtable" uni0628.fina
Substitution2: "'isol' Isolated Forms in Arabic lookup 1 subtable" uni0628.isol
EndChar

StartChar: uni0629
Encoding: 1577 1577 201
Width: 632
GlyphClass: 2
Flags: W
LayerCount: 2
Fore
SplineSet
442 208 m 0
 442 250 417 280 392 303 c 0
 359 334 315 360 268 379 c 1
 231 345 194 291 194 223 c 0
 194 185 225 161 263 161 c 0
 284 161 306 162 327 164 c 0
 363 167 402 176 427 190 c 0
 438 196 442 201 442 208 c 0
59 223 m 0
 59 330 103 413 150 477 c 0
 176 512 211 545 252 563 c 1
 281 554 310 544 338 530 c 0
 440 479 530 403 566 287 c 0
 574 261 578 235 578 208 c 0
 578 162 555 124 530 98 c 0
 484 49 418 13 339 -3 c 0
 314 -8 288 -11 263 -11 c 0
 201 -11 152 21 120 56 c 0
 85 95 59 152 59 223 c 0
224 626 m 1
 112 626 l 1
 112 738 l 1
 224 738 l 1
 224 626 l 1
395 626 m 1
 282 626 l 1
 282 738 l 1
 395 738 l 1
 395 626 l 1
EndSplineSet
Substitution2: "'fina' Terminal Forms in Arabic lookup 2 subtable" uni0629.fina
Substitution2: "'isol' Isolated Forms in Arabic lookup 1 subtable" uni0629.isol
EndChar

StartChar: uni062A
Encoding: 1578 1578 202
Width: 1136
GlyphClass: 2
Flags: W
LayerCount: 2
Fore
SplineSet
1036 473 m 1
 1055 401 1075 335 1075 250 c 0
 1075 177 1043 122 1003 87 c 0
 972 59 933 54 884 41 c 0
 807 21 717 6 630 -5 c 0
 569 -13 502 -18 434 -18 c 0
 310 -18 214 7 150 62 c 0
 99 106 66 168 66 256 c 0
 66 292 72 331 79 364 c 0
 86 400 94 441 104 473 c 1
 240 449 l 1
 227 403 212 347 206 296 c 0
 204 280 202 266 202 256 c 0
 202 220 226 198 255 184 c 0
 300 162 361 154 434 154 c 0
 573 154 707 174 821 200 c 0
 856 208 885 215 908 222 c 0
 923 226 939 235 939 250 c 0
 939 270 936 296 929 329 c 0
 922 362 912 402 899 449 c 1
 1036 473 l 1
527 480 m 1
 415 480 l 1
 415 592 l 1
 527 592 l 1
 527 480 l 1
698 480 m 1
 585 480 l 1
 585 592 l 1
 698 592 l 1
 698 480 l 1
EndSplineSet
Substitution2: "'init' Initial Forms in Arabic lookup 4 subtable" uni062A.init
Substitution2: "'medi' Medial Forms in Arabic lookup 3 subtable" uni062A.medi
Substitution2: "'fina' Terminal Forms in Arabic lookup 2 subtable" uni062A.fina
Substitution2: "'isol' Isolated Forms in Arabic lookup 1 subtable" uni062A.isol
EndChar

StartChar: uni062B
Encoding: 1579 1579 203
Width: 1136
GlyphClass: 2
Flags: W
LayerCount: 2
Fore
SplineSet
1036 473 m 1
 1055 401 1075 335 1075 250 c 0
 1075 177 1043 122 1003 87 c 0
 972 59 933 54 884 41 c 0
 807 21 717 6 630 -5 c 0
 569 -13 502 -18 434 -18 c 0
 310 -18 214 7 150 62 c 0
 99 106 66 168 66 256 c 0
 66 292 72 331 79 364 c 0
 86 400 94 441 104 473 c 1
 240 449 l 1
 227 403 212 347 206 296 c 0
 204 280 202 266 202 256 c 0
 202 220 226 198 255 184 c 0
 300 162 361 154 434 154 c 0
 573 154 707 174 821 200 c 0
 856 208 885 215 908 222 c 0
 923 226 939 235 939 250 c 0
 939 270 936 296 929 329 c 0
 922 362 912 402 899 449 c 1
 1036 473 l 1
612 622 m 1
 500 622 l 1
 500 734 l 1
 612 734 l 1
 612 622 l 1
527 460 m 1
 415 460 l 1
 415 573 l 1
 527 573 l 1
 527 460 l 1
698 460 m 1
 585 460 l 1
 585 573 l 1
 698 573 l 1
 698 460 l 1
EndSplineSet
Substitution2: "'init' Initial Forms in Arabic lookup 4 subtable" uni062B.init
Substitution2: "'medi' Medial Forms in Arabic lookup 3 subtable" uni062B.medi
Substitution2: "'fina' Terminal Forms in Arabic lookup 2 subtable" uni062B.fina
Substitution2: "'isol' Isolated Forms in Arabic lookup 1 subtable" uni062B.isol
EndChar

StartChar: uni062C
Encoding: 1580 1580 204
Width: 791
GlyphClass: 2
Flags: W
LayerCount: 2
Fore
SplineSet
224 68 m 0
 224 -40 308 -78 414 -78 c 0
 489 -78 558 -68 616 -53 c 0
 632 -49 645 -46 655 -42 c 1
 698 -205 l 1
 618 -230 522 -250 414 -250 c 0
 285 -250 188 -208 137 -127 c 0
 106 -78 88 -12 88 68 c 0
 88 154 126 216 171 263 c 0
 220 314 288 354 358 384 c 1
 312 421 l 2
 291 438 279 449 248 449 c 0
 223 449 214 441 199 430 c 2
 127 375 l 1
 64 495 l 1
 92 530 l 2
 102 543 114 555 125 566 c 0
 154 595 191 621 248 621 c 0
 295 621 326 604 357 585 c 0
 370 577 382 567 397 555 c 2
 473 494 l 2
 517 457 587 448 671 448 c 2
 706 448 l 1
 706 276 l 1
 655 276 l 2
 591 276 529 265 473 254 c 0
 398 239 325 212 277 170 c 0
 249 145 224 117 224 68 c 0
517 29 m 1
 405 29 l 1
 405 141 l 1
 517 141 l 1
 517 29 l 1
EndSplineSet
Substitution2: "'init' Initial Forms in Arabic lookup 4 subtable" uni062C.init
Substitution2: "'medi' Medial Forms in Arabic lookup 3 subtable" uni062C.medi
Substitution2: "'fina' Terminal Forms in Arabic lookup 2 subtable" uni062C.fina
Substitution2: "'isol' Isolated Forms in Arabic lookup 1 subtable" uni062C.isol
EndChar

StartChar: uni062D
Encoding: 1581 1581 205
Width: 791
GlyphClass: 2
Flags: W
LayerCount: 2
Fore
SplineSet
224 68 m 0
 224 -40 308 -78 414 -78 c 0
 489 -78 558 -68 616 -53 c 0
 632 -49 645 -46 655 -42 c 1
 698 -205 l 1
 618 -230 522 -250 414 -250 c 0
 285 -250 188 -208 137 -127 c 0
 106 -78 88 -12 88 68 c 0
 88 154 126 216 171 263 c 0
 220 314 288 354 358 384 c 1
 312 421 l 2
 291 438 279 449 248 449 c 0
 223 449 214 441 199 430 c 2
 127 375 l 1
 64 495 l 1
 92 530 l 2
 102 543 114 555 125 566 c 0
 154 595 191 621 248 621 c 0
 295 621 326 604 357 585 c 0
 370 577 382 567 397 555 c 2
 473 494 l 2
 517 457 587 448 671 448 c 2
 706 448 l 1
 706 276 l 1
 655 276 l 2
 591 276 529 265 473 254 c 0
 398 239 325 212 277 170 c 0
 249 145 224 117 224 68 c 0
EndSplineSet
Substitution2: "'init' Initial Forms in Arabic lookup 4 subtable" uni062D.init
Substitution2: "'medi' Medial Forms in Arabic lookup 3 subtable" uni062D.medi
Substitution2: "'fina' Terminal Forms in Arabic lookup 2 subtable" uni062D.fina
Substitution2: "'isol' Isolated Forms in Arabic lookup 1 subtable" uni062D.isol
EndChar

StartChar: uni062E
Encoding: 1582 1582 206
Width: 791
GlyphClass: 2
Flags: W
LayerCount: 2
Fore
SplineSet
224 68 m 0
 224 -40 308 -78 414 -78 c 0
 489 -78 558 -68 616 -53 c 0
 632 -49 645 -46 655 -42 c 1
 698 -205 l 1
 618 -230 522 -250 414 -250 c 0
 285 -250 188 -208 137 -127 c 0
 106 -78 88 -12 88 68 c 0
 88 154 126 216 171 263 c 0
 220 314 288 354 358 384 c 1
 312 421 l 2
 291 438 279 449 248 449 c 0
 223 449 214 441 199 430 c 2
 127 375 l 1
 64 495 l 1
 92 530 l 2
 102 543 114 555 125 566 c 0
 154 595 191 621 248 621 c 0
 295 621 326 604 357 585 c 0
 370 577 382 567 397 555 c 2
 473 494 l 2
 517 457 587 448 671 448 c 2
 706 448 l 1
 706 276 l 1
 655 276 l 2
 591 276 529 265 473 254 c 0
 398 239 325 212 277 170 c 0
 249 145 224 117 224 68 c 0
473 695 m 1
 361 695 l 1
 361 807 l 1
 473 807 l 1
 473 695 l 1
EndSplineSet
Substitution2: "'init' Initial Forms in Arabic lookup 4 subtable" uni062E.init
Substitution2: "'medi' Medial Forms in Arabic lookup 3 subtable" uni062E.medi
Substitution2: "'fina' Terminal Forms in Arabic lookup 2 subtable" uni062E.fina
Substitution2: "'isol' Isolated Forms in Arabic lookup 1 subtable" uni062E.isol
EndChar

StartChar: uni062F
Encoding: 1583 1583 207
Width: 607
GlyphClass: 2
Flags: W
LayerCount: 2
Fore
SplineSet
129 172 m 1
 145 162 177 158 201 156 c 0
 211 155 221 154 230 154 c 0
 294 154 363 162 400 188 c 0
 410 195 416 204 416 213 c 0
 416 273 394 320 372 359 c 0
 346 404 316 441 278 476 c 1
 367 605 l 1
 433 543 488 467 523 373 c 0
 540 328 552 273 552 213 c 0
 552 159 532 119 505 89 c 0
 459 37 395 5 312 -10 c 0
 285 -15 258 -18 230 -18 c 0
 174 -18 127 -3 91 17 c 1
 129 172 l 1
EndSplineSet
Substitution2: "'fina' Terminal Forms in Arabic lookup 2 subtable" uni062F.fina
Substitution2: "'isol' Isolated Forms in Arabic lookup 1 subtable" uni062F.isol
EndChar

StartChar: uni0630
Encoding: 1584 1584 208
Width: 607
GlyphClass: 2
Flags: W
LayerCount: 2
Fore
SplineSet
129 172 m 1
 145 162 177 158 201 156 c 0
 211 155 221 154 230 154 c 0
 294 154 363 162 400 188 c 0
 410 195 416 204 416 213 c 0
 416 273 394 320 372 359 c 0
 346 404 316 441 278 476 c 1
 367 605 l 1
 433 543 488 467 523 373 c 0
 540 328 552 273 552 213 c 0
 552 159 532 119 505 89 c 0
 459 37 395 5 312 -10 c 0
 285 -15 258 -18 230 -18 c 0
 174 -18 127 -3 91 17 c 1
 129 172 l 1
336 695 m 1
 224 695 l 1
 224 807 l 1
 336 807 l 1
 336 695 l 1
EndSplineSet
Substitution2: "'fina' Terminal Forms in Arabic lookup 2 subtable" uni0630.fina
Substitution2: "'isol' Isolated Forms in Arabic lookup 1 subtable" uni0630.isol
EndChar

StartChar: uni0631
Encoding: 1585 1585 209
Width: 589
GlyphClass: 2
Flags: W
LayerCount: 2
Fore
SplineSet
38 -129 m 1
 125 -100 206 -51 272 0 c 0
 311 31 348 65 372 106 c 0
 382 123 387 140 387 155 c 0
 387 237 354 298 316 345 c 1
 446 417 l 1
 481 367 505 299 517 226 c 0
 521 202 523 178 523 155 c 0
 523 88 493 33 462 -11 c 0
 400 -99 311 -170 212 -222 c 0
 178 -240 143 -256 108 -268 c 1
 38 -129 l 1
EndSplineSet
Substitution2: "'fina' Terminal Forms in Arabic lookup 2 subtable" uni0631.fina
Substitution2: "'isol' Isolated Forms in Arabic lookup 1 subtable" uni0631.isol
EndChar

StartChar: uni0632
Encoding: 1586 1586 210
Width: 589
GlyphClass: 2
Flags: W
LayerCount: 2
Fore
SplineSet
38 -129 m 1
 125 -100 206 -51 272 0 c 0
 311 31 348 65 372 106 c 0
 382 123 387 140 387 155 c 0
 387 237 354 298 316 345 c 1
 446 417 l 1
 481 367 505 299 517 226 c 0
 521 202 523 178 523 155 c 0
 523 88 493 33 462 -11 c 0
 400 -99 311 -170 212 -222 c 0
 178 -240 143 -256 108 -268 c 1
 38 -129 l 1
381 572 m 1
 269 572 l 1
 269 684 l 1
 381 684 l 1
 381 572 l 1
EndSplineSet
Substitution2: "'fina' Terminal Forms in Arabic lookup 2 subtable" uni0632.fina
Substitution2: "'isol' Isolated Forms in Arabic lookup 1 subtable" uni0632.isol
EndChar

StartChar: uni0633
Encoding: 1587 1587 211
Width: 1434
GlyphClass: 2
Flags: W
LayerCount: 2
Fore
SplineSet
821 0 m 0
 788 0 762 13 741 27 c 1
 733 -41 707 -90 669 -128 c 0
 595 -202 476 -232 329 -232 c 0
 233 -232 167 -204 121 -156 c 0
 81 -115 57 -55 57 21 c 0
 57 106 85 179 109 242 c 0
 117 263 124 282 130 297 c 1
 264 242 l 1
 251 208 237 171 222 136 c 0
 211 111 204 84 197 55 c 0
 194 42 192 31 192 21 c 0
 192 -23 229 -45 267 -54 c 0
 284 -58 305 -61 329 -61 c 0
 433 -61 535 -48 584 5 c 0
 599 21 607 41 607 65 c 0
 607 85 599 102 593 121 c 0
 589 134 583 147 578 161 c 0
 565 198 548 239 532 272 c 1
 655 348 l 1
 684 284 l 2
 702 244 734 203 774 184 c 0
 789 177 804 172 821 172 c 0
 870 172 911 204 911 252 c 2
 911 340 l 1
 1046 340 l 1
 1046 252 l 2
 1046 215 1074 189 1101 178 c 0
 1111 174 1120 172 1130 172 c 0
 1171 172 1212 182 1230 204 c 0
 1235 210 1238 216 1238 222 c 0
 1238 254 1233 285 1228 317 c 0
 1221 361 1210 408 1199 450 c 1
 1336 468 l 1
 1359 387 1374 308 1374 222 c 0
 1374 156 1342 107 1307 72 c 0
 1267 32 1209 0 1130 0 c 0
 1068 0 1014 37 981 73 c 1
 946 32 892 0 821 0 c 0
EndSplineSet
Substitution2: "'init' Initial Forms in Arabic lookup 4 subtable" uni0633.init
Substitution2: "'medi' Medial Forms in Arabic lookup 3 subtable" uni0633.medi
Substitution2: "'fina' Terminal Forms in Arabic lookup 2 subtable" uni0633.fina
Substitution2: "'isol' Isolated Forms in Arabic lookup 1 subtable" uni0633.isol
EndChar

StartChar: uni0634
Encoding: 1588 1588 212
Width: 1434
GlyphClass: 2
Flags: W
LayerCount: 2
Fore
SplineSet
821 0 m 0
 788 0 762 13 741 27 c 1
 733 -41 707 -90 669 -128 c 0
 595 -202 476 -232 329 -232 c 0
 233 -232 167 -204 121 -156 c 0
 81 -115 57 -55 57 21 c 0
 57 106 85 179 109 242 c 0
 117 263 124 282 130 297 c 1
 264 242 l 1
 251 208 237 171 222 136 c 0
 211 111 204 84 197 55 c 0
 194 42 192 31 192 21 c 0
 192 -23 229 -45 267 -54 c 0
 284 -58 305 -61 329 -61 c 0
 433 -61 535 -48 584 5 c 0
 599 21 607 41 607 65 c 0
 607 85 599 102 593 121 c 0
 589 134 583 147 578 161 c 0
 565 198 548 239 532 272 c 1
 655 348 l 1
 684 284 l 2
 702 244 734 203 774 184 c 0
 789 177 804 172 821 172 c 0
 870 172 911 204 911 252 c 2
 911 340 l 1
 1046 340 l 1
 1046 252 l 2
 1046 215 1074 189 1101 178 c 0
 1111 174 1120 172 1130 172 c 0
 1171 172 1212 182 1230 204 c 0
 1235 210 1238 216 1238 222 c 0
 1238 254 1233 285 1228 317 c 0
 1221 361 1210 408 1199 450 c 1
 1336 468 l 1
 1359 387 1374 308 1374 222 c 0
 1374 156 1342 107 1307 72 c 0
 1267 32 1209 0 1130 0 c 0
 1068 0 1014 37 981 73 c 1
 946 32 892 0 821 0 c 0
961 622 m 1
 849 622 l 1
 849 734 l 1
 961 734 l 1
 961 622 l 1
876 460 m 1
 764 460 l 1
 764 573 l 1
 876 573 l 1
 876 460 l 1
1047 460 m 1
 934 460 l 1
 934 573 l 1
 1047 573 l 1
 1047 460 l 1
EndSplineSet
Substitution2: "'init' Initial Forms in Arabic lookup 4 subtable" uni0634.init
Substitution2: "'medi' Medial Forms in Arabic lookup 3 subtable" uni0634.medi
Substitution2: "'fina' Terminal Forms in Arabic lookup 2 subtable" uni0634.fina
Substitution2: "'isol' Isolated Forms in Arabic lookup 1 subtable" uni0634.isol
EndChar

StartChar: uni0635
Encoding: 1589 1589 213
Width: 1453
GlyphClass: 2
Flags: W
LayerCount: 2
Fore
SplineSet
821 0 m 2
 788 0 762 13 741 27 c 1
 733 -41 707 -90 669 -128 c 0
 595 -202 476 -232 329 -232 c 0
 233 -232 167 -204 121 -156 c 0
 81 -115 57 -55 57 21 c 0
 57 106 85 179 109 242 c 0
 117 263 124 282 130 297 c 1
 264 242 l 1
 251 208 237 171 222 136 c 0
 211 111 204 84 197 55 c 0
 194 42 192 31 192 21 c 0
 192 -23 229 -45 267 -54 c 0
 284 -58 305 -61 329 -61 c 0
 433 -61 535 -48 584 5 c 0
 599 21 607 41 607 65 c 0
 607 85 599 102 593 121 c 0
 589 134 583 147 578 161 c 0
 565 198 548 239 532 272 c 1
 655 348 l 1
 684 284 l 2
 699 250 721 222 749 200 c 0
 759 192 770 185 782 180 c 1
 818 229 858 281 899 328 c 0
 958 395 1026 462 1114 497 c 0
 1139 507 1165 512 1190 512 c 0
 1255 512 1299 472 1327 433 c 0
 1346 406 1363 374 1372 340 c 0
 1376 325 1377 311 1377 298 c 0
 1377 248 1359 203 1337 168 c 0
 1274 69 1163 0 1000 0 c 2
 821 0 l 2
1000 172 m 2
 1076 172 1139 188 1183 217 c 0
 1203 230 1217 242 1227 257 c 0
 1237 272 1242 286 1242 298 c 0
 1242 322 1215 340 1190 340 c 0
 1172 340 1153 335 1134 326 c 0
 1064 293 1013 229 964 172 c 1
 1000 172 l 2
EndSplineSet
Substitution2: "'init' Initial Forms in Arabic lookup 4 subtable" uni0635.init
Substitution2: "'medi' Medial Forms in Arabic lookup 3 subtable" uni0635.medi
Substitution2: "'fina' Terminal Forms in Arabic lookup 2 subtable" uni0635.fina
Substitution2: "'isol' Isolated Forms in Arabic lookup 1 subtable" uni0635.isol
EndChar

StartChar: uni0636
Encoding: 1590 1590 214
Width: 1453
GlyphClass: 2
Flags: W
LayerCount: 2
Fore
SplineSet
821 0 m 2
 788 0 762 13 741 27 c 1
 733 -41 707 -90 669 -128 c 0
 595 -202 476 -232 329 -232 c 0
 233 -232 167 -204 121 -156 c 0
 81 -115 57 -55 57 21 c 0
 57 106 85 179 109 242 c 0
 117 263 124 282 130 297 c 1
 264 242 l 1
 251 208 237 171 222 136 c 0
 211 111 204 84 197 55 c 0
 194 42 192 31 192 21 c 0
 192 -23 229 -45 267 -54 c 0
 284 -58 305 -61 329 -61 c 0
 433 -61 535 -48 584 5 c 0
 599 21 607 41 607 65 c 0
 607 85 599 102 593 121 c 0
 589 134 583 147 578 161 c 0
 565 198 548 239 532 272 c 1
 655 348 l 1
 684 284 l 2
 699 250 721 222 749 200 c 0
 759 192 770 185 782 180 c 1
 818 229 858 281 899 328 c 0
 958 395 1026 462 1114 497 c 0
 1139 507 1165 512 1190 512 c 0
 1255 512 1299 472 1327 433 c 0
 1346 406 1363 374 1372 340 c 0
 1376 325 1377 311 1377 298 c 0
 1377 248 1359 203 1337 168 c 0
 1274 69 1163 0 1000 0 c 2
 821 0 l 2
1000 172 m 2
 1076 172 1139 188 1183 217 c 0
 1203 230 1217 242 1227 257 c 0
 1237 272 1242 286 1242 298 c 0
 1242 322 1215 340 1190 340 c 0
 1172 340 1153 335 1134 326 c 0
 1064 293 1013 229 964 172 c 1
 1000 172 l 2
1015 572 m 1
 903 572 l 1
 903 684 l 1
 1015 684 l 1
 1015 572 l 1
EndSplineSet
Substitution2: "'init' Initial Forms in Arabic lookup 4 subtable" uni0636.init
Substitution2: "'medi' Medial Forms in Arabic lookup 3 subtable" uni0636.medi
Substitution2: "'fina' Terminal Forms in Arabic lookup 2 subtable" uni0636.fina
Substitution2: "'isol' Isolated Forms in Arabic lookup 1 subtable" uni0636.isol
EndChar

StartChar: uni0637
Encoding: 1591 1591 215
Width: 875
GlyphClass: 2
Flags: W
LayerCount: 2
Fore
SplineSet
368 170 m 1
 381 170 393 169 404 169 c 2
 435 169 l 2
 511 169 575 180 620 207 c 0
 651 226 680 252 680 295 c 0
 680 306 672 315 666 323 c 0
 659 332 643 340 628 340 c 0
 573 340 528 314 492 288 c 0
 447 255 406 210 368 170 c 1
316 337 m 1
 380 401 448 468 543 498 c 0
 571 507 599 512 628 512 c 0
 694 512 736 471 765 432 c 0
 791 397 815 351 815 295 c 0
 815 202 776 133 722 86 c 0
 657 29 560 -2 435 -2 c 2
 384 -2 l 2
 318 -2 249 1 188 7 c 0
 147 11 108 18 75 29 c 1
 118 192 l 1
 135 186 158 184 180 180 c 1
 180 713 l 1
 316 713 l 1
 316 337 l 1
EndSplineSet
Substitution2: "'init' Initial Forms in Arabic lookup 4 subtable" uni0637.init
Substitution2: "'medi' Medial Forms in Arabic lookup 3 subtable" uni0637.medi
Substitution2: "'fina' Terminal Forms in Arabic lookup 2 subtable" uni0637.fina
Substitution2: "'isol' Isolated Forms in Arabic lookup 1 subtable" uni0637.isol
EndChar

StartChar: uni0638
Encoding: 1592 1592 216
Width: 875
GlyphClass: 2
Flags: W
LayerCount: 2
Fore
SplineSet
368 170 m 1
 381 170 393 169 404 169 c 2
 435 169 l 2
 511 169 575 180 620 207 c 0
 651 226 680 252 680 295 c 0
 680 306 672 315 666 323 c 0
 659 332 643 340 628 340 c 0
 573 340 528 314 492 288 c 0
 447 255 406 210 368 170 c 1
316 337 m 1
 380 401 448 468 543 498 c 0
 571 507 599 512 628 512 c 0
 694 512 736 471 765 432 c 0
 791 397 815 351 815 295 c 0
 815 202 776 133 722 86 c 0
 657 29 560 -2 435 -2 c 2
 384 -2 l 2
 318 -2 249 1 188 7 c 0
 147 11 108 18 75 29 c 1
 118 192 l 1
 135 186 158 184 180 180 c 1
 180 713 l 1
 316 713 l 1
 316 337 l 1
600 626 m 1
 488 626 l 1
 488 738 l 1
 600 738 l 1
 600 626 l 1
EndSplineSet
Substitution2: "'init' Initial Forms in Arabic lookup 4 subtable" uni0638.init
Substitution2: "'medi' Medial Forms in Arabic lookup 3 subtable" uni0638.medi
Substitution2: "'fina' Terminal Forms in Arabic lookup 2 subtable" uni0638.fina
Substitution2: "'isol' Isolated Forms in Arabic lookup 1 subtable" uni0638.isol
EndChar

StartChar: uni0639
Encoding: 1593 1593 217
Width: 659
GlyphClass: 2
Flags: W
LayerCount: 2
Fore
SplineSet
587 -233 m 1
 538 -242 479 -250 420 -250 c 0
 296 -250 188 -208 124 -144 c 0
 86 -106 59 -54 59 20 c 0
 59 117 91 183 137 235 c 0
 153 253 169 270 188 285 c 1
 146 333 125 395 125 473 c 0
 125 516 140 552 158 580 c 0
 186 624 230 663 284 680 c 0
 300 685 317 688 333 688 c 2
 365 688 l 2
 401 688 434 682 465 675 c 1
 448 516 l 1
 333 516 l 2
 305 516 280 505 268 489 c 0
 264 484 261 479 261 473 c 0
 261 417 300 389 345 371 c 1
 404 394 473 408 534 421 c 1
 559 252 l 1
 452 234 339 201 266 146 c 0
 230 119 194 79 194 20 c 0
 194 -9 215 -27 235 -39 c 0
 280 -65 350 -78 420 -78 c 0
 471 -78 520 -73 562 -64 c 1
 587 -233 l 1
EndSplineSet
Substitution2: "'init' Initial Forms in Arabic lookup 4 subtable" uni0639.init
Substitution2: "'medi' Medial Forms in Arabic lookup 3 subtable" uni0639.medi
Substitution2: "'fina' Terminal Forms in Arabic lookup 2 subtable" uni0639.fina
Substitution2: "'isol' Isolated Forms in Arabic lookup 1 subtable" uni0639.isol
EndChar

StartChar: uni063A
Encoding: 1594 1594 218
Width: 659
GlyphClass: 2
Flags: W
LayerCount: 2
Fore
SplineSet
587 -233 m 1
 538 -242 479 -250 420 -250 c 0
 296 -250 188 -208 124 -144 c 0
 86 -106 59 -54 59 20 c 0
 59 117 91 183 137 235 c 0
 153 253 169 270 188 285 c 1
 146 333 125 395 125 473 c 0
 125 516 140 552 158 580 c 0
 186 624 230 663 284 680 c 0
 300 685 317 688 333 688 c 2
 365 688 l 2
 401 688 434 682 465 675 c 1
 448 516 l 1
 333 516 l 2
 305 516 280 505 268 489 c 0
 264 484 261 479 261 473 c 0
 261 417 300 389 345 371 c 1
 404 394 473 408 534 421 c 1
 559 252 l 1
 452 234 339 201 266 146 c 0
 230 119 194 79 194 20 c 0
 194 -9 215 -27 235 -39 c 0
 280 -65 350 -78 420 -78 c 0
 471 -78 520 -73 562 -64 c 1
 587 -233 l 1
404 773 m 1
 292 773 l 1
 292 885 l 1
 404 885 l 1
 404 773 l 1
EndSplineSet
Substitution2: "'init' Initial Forms in Arabic lookup 4 subtable" uni063A.init
Substitution2: "'medi' Medial Forms in Arabic lookup 3 subtable" uni063A.medi
Substitution2: "'fina' Terminal Forms in Arabic lookup 2 subtable" uni063A.fina
Substitution2: "'isol' Isolated Forms in Arabic lookup 1 subtable" uni063A.isol
EndChar

StartChar: uni0641
Encoding: 1601 1601 219
Width: 1086
GlyphClass: 2
Flags: W
LayerCount: 2
Fore
SplineSet
66 256 m 0
 66 292 72 331 79 364 c 0
 86 400 94 441 104 473 c 1
 240 449 l 1
 227 403 212 347 206 296 c 0
 204 280 202 266 202 256 c 0
 202 220 226 198 255 184 c 0
 300 162 361 154 434 154 c 0
 541 154 637 156 726 166 c 0
 787 173 839 178 885 192 c 0
 887 194 890 201 891 212 c 1
 878 210 864 209 851 209 c 0
 802 209 758 228 725 248 c 0
 683 273 645 317 645 383 c 0
 645 445 671 496 699 533 c 0
 724 566 765 605 817 605 c 0
 852 605 881 592 906 576 c 0
 980 530 1031 443 1031 322 c 0
 1031 239 1022 168 1001 112 c 0
 985 70 962 40 921 28 c 0
 832 1 728 -7 611 -14 c 0
 559 -17 500 -18 434 -18 c 0
 310 -18 214 7 150 62 c 0
 99 106 66 168 66 256 c 0
917 350 m 1
 898 384 876 416 843 436 c 0
 833 442 822 444 811 444 c 0
 787 444 776 420 769 403 c 0
 766 396 765 388 765 381 c 0
 765 346 821 337 858 337 c 0
 881 337 904 341 917 350 c 1
873 695 m 1
 761 695 l 1
 761 807 l 1
 873 807 l 1
 873 695 l 1
EndSplineSet
Substitution2: "'init' Initial Forms in Arabic lookup 4 subtable" uni0641.init
Substitution2: "'medi' Medial Forms in Arabic lookup 3 subtable" uni0641.medi
Substitution2: "'fina' Terminal Forms in Arabic lookup 2 subtable" uni0641.fina
Substitution2: "'isol' Isolated Forms in Arabic lookup 1 subtable" uni0641.isol
EndChar

StartChar: uni0642
Encoding: 1602 1602 220
Width: 861
GlyphClass: 2
Flags: W
LayerCount: 2
Fore
SplineSet
192 21 m 0
 192 -23 229 -45 267 -54 c 0
 284 -58 305 -61 329 -61 c 0
 414 -61 494 -51 562 -35 c 0
 599 -26 631 -14 653 6 c 0
 662 14 667 23 667 32 c 2
 667 65 l 1
 660 64 651 62 644 62 c 2
 622 62 l 2
 571 62 531 81 497 101 c 0
 454 127 416 168 416 235 c 0
 416 294 442 350 470 386 c 0
 495 419 536 458 588 458 c 0
 623 458 652 445 677 429 c 0
 752 382 802 298 802 175 c 2
 802 32 l 2
 802 -30 769 -74 733 -107 c 0
 664 -169 560 -207 447 -224 c 0
 408 -230 369 -232 329 -232 c 0
 233 -232 167 -204 121 -156 c 0
 81 -115 57 -55 57 21 c 0
 57 119 78 211 100 288 c 1
 234 253 l 1
 218 204 205 138 197 80 c 0
 194 58 192 38 192 21 c 0
685 194 m 1
 678 234 647 269 618 288 c 0
 607 295 595 298 584 298 c 0
 562 298 549 273 542 257 c 0
 539 250 539 241 539 234 c 0
 539 199 595 191 631 191 c 2
 663 191 l 2
 672 191 679 192 685 194 c 1
564 572 m 1
 452 572 l 1
 452 684 l 1
 564 684 l 1
 564 572 l 1
735 572 m 1
 622 572 l 1
 622 684 l 1
 735 684 l 1
 735 572 l 1
EndSplineSet
Substitution2: "'init' Initial Forms in Arabic lookup 4 subtable" uni0642.init
Substitution2: "'medi' Medial Forms in Arabic lookup 3 subtable" uni0642.medi
Substitution2: "'fina' Terminal Forms in Arabic lookup 2 subtable" uni0642.fina
Substitution2: "'isol' Isolated Forms in Arabic lookup 1 subtable" uni0642.isol
EndChar

StartChar: uni0643
Encoding: 1603 1603 221
Width: 875
GlyphClass: 2
Flags: W
LayerCount: 2
Fore
SplineSet
256 372 m 1
 310 372 369 374 406 389 c 0
 416 393 422 398 422 405 c 0
 422 417 400 427 391 432 c 2
 373 441 l 2
 329 463 294 486 294 554 c 0
 294 650 366 679 461 679 c 1
 461 591 l 1
 422 591 379 589 357 573 c 0
 350 568 347 562 347 554 c 0
 347 542 369 533 378 528 c 2
 396 519 l 2
 440 497 475 472 475 405 c 0
 475 354 439 325 402 309 c 0
 363 292 311 284 256 284 c 1
 256 372 l 1
123 185 m 1
 166 161 235 154 307 154 c 0
 384 154 469 157 538 165 c 0
 590 169 649 182 649 238 c 2
 649 713 l 1
 785 713 l 1
 785 238 l 2
 785 176 773 125 749 88 c 0
 709 27 644 4 553 -6 c 0
 477 -16 390 -18 307 -18 c 0
 208 -18 122 0 59 33 c 1
 123 185 l 1
EndSplineSet
Substitution2: "'init' Initial Forms in Arabic lookup 4 subtable" uni0643.init
Substitution2: "'medi' Medial Forms in Arabic lookup 3 subtable" uni0643.medi
Substitution2: "'fina' Terminal Forms in Arabic lookup 2 subtable" uni0643.fina
Substitution2: "'isol' Isolated Forms in Arabic lookup 1 subtable" uni0643.isol
EndChar

StartChar: uni0644
Encoding: 1604 1604 222
Width: 832
GlyphClass: 2
Flags: W
LayerCount: 2
Fore
SplineSet
192 21 m 0
 192 -23 229 -45 267 -54 c 0
 284 -58 305 -61 329 -61 c 0
 433 -61 535 -48 584 5 c 0
 599 21 607 41 607 65 c 2
 607 713 l 1
 743 713 l 1
 743 65 l 2
 743 -53 693 -127 618 -170 c 0
 544 -213 446 -232 329 -232 c 0
 233 -232 167 -204 121 -156 c 0
 81 -115 57 -55 57 21 c 0
 57 106 85 179 109 242 c 0
 117 263 124 282 130 297 c 1
 264 242 l 1
 251 208 237 171 222 136 c 0
 211 111 204 84 197 55 c 0
 194 42 192 31 192 21 c 0
EndSplineSet
Substitution2: "'init' Initial Forms in Arabic lookup 4 subtable" uni0644.init
Substitution2: "'medi' Medial Forms in Arabic lookup 3 subtable" uni0644.medi
Substitution2: "'fina' Terminal Forms in Arabic lookup 2 subtable" uni0644.fina
Substitution2: "'isol' Isolated Forms in Arabic lookup 1 subtable" uni0644.isol
EndChar

StartChar: uni0645
Encoding: 1605 1605 223
Width: 691
GlyphClass: 2
Flags: W
LayerCount: 2
Fore
SplineSet
346 397 m 0
 346 379 349 366 356 351 c 1
 406 345 457 337 503 326 c 1
 499 381 463 423 425 445 c 0
 411 453 396 457 381 457 c 0
 355 457 346 424 346 397 c 0
579 139 m 1
 522 159 456 176 388 185 c 0
 365 188 342 190 320 190 c 0
 272 190 231 180 207 156 c 0
 200 149 197 141 197 133 c 0
 197 74 212 25 221 -29 c 0
 233 -108 243 -188 250 -279 c 1
 114 -291 l 1
 105 -190 96 -98 78 -9 c 0
 70 37 61 78 61 133 c 0
 61 191 80 236 108 269 c 0
 137 304 180 334 229 348 c 1
 227 356 226 364 226 372 c 2
 226 396 l 2
 226 491 266 562 326 598 c 0
 346 610 368 616 390 616 c 0
 436 616 475 595 503 572 c 0
 554 530 594 474 614 402 c 0
 620 380 623 358 623 337 c 0
 623 308 616 282 610 259 c 2
 579 139 l 1
EndSplineSet
Substitution2: "'init' Initial Forms in Arabic lookup 4 subtable" uni0645.init
Substitution2: "'medi' Medial Forms in Arabic lookup 3 subtable" uni0645.medi
Substitution2: "'fina' Terminal Forms in Arabic lookup 2 subtable" uni0645.fina
Substitution2: "'isol' Isolated Forms in Arabic lookup 1 subtable" uni0645.isol
EndChar

StartChar: uni0646
Encoding: 1606 1606 224
Width: 791
GlyphClass: 2
Flags: W
LayerCount: 2
Fore
SplineSet
663 364 m 1
 682 314 705 249 719 194 c 0
 729 153 743 107 743 65 c 0
 743 -53 693 -127 618 -170 c 0
 544 -213 446 -232 329 -232 c 0
 233 -232 167 -204 121 -156 c 0
 81 -115 57 -55 57 21 c 0
 57 106 85 179 109 242 c 0
 117 263 124 282 130 297 c 1
 264 242 l 1
 251 208 237 171 222 136 c 0
 211 111 204 84 197 55 c 0
 194 42 192 31 192 21 c 0
 192 -23 229 -45 267 -54 c 0
 284 -58 305 -61 329 -61 c 0
 433 -61 535 -48 584 5 c 0
 599 21 607 41 607 65 c 0
 607 84 601 106 595 125 c 0
 576 193 553 261 525 321 c 1
 663 364 l 1
434 373 m 1
 322 373 l 1
 322 485 l 1
 434 485 l 1
 434 373 l 1
EndSplineSet
Substitution2: "'init' Initial Forms in Arabic lookup 4 subtable" uni0646.init
Substitution2: "'medi' Medial Forms in Arabic lookup 3 subtable" uni0646.medi
Substitution2: "'fina' Terminal Forms in Arabic lookup 2 subtable" uni0646.fina
Substitution2: "'isol' Isolated Forms in Arabic lookup 1 subtable" uni0646.isol
EndChar

StartChar: uni0647
Encoding: 1607 1607 225
Width: 632
GlyphClass: 2
Flags: W
LayerCount: 2
Fore
SplineSet
442 208 m 0
 442 250 417 280 392 303 c 0
 359 334 315 360 268 379 c 1
 231 345 194 291 194 223 c 0
 194 185 225 161 263 161 c 0
 284 161 306 162 327 164 c 0
 363 167 402 176 427 190 c 0
 438 196 442 201 442 208 c 0
59 223 m 0
 59 330 103 413 150 477 c 0
 176 512 211 545 252 563 c 1
 281 554 310 544 338 530 c 0
 440 479 530 403 566 287 c 0
 574 261 578 235 578 208 c 0
 578 162 555 124 530 98 c 0
 484 49 418 13 339 -3 c 0
 314 -8 288 -11 263 -11 c 0
 201 -11 152 21 120 56 c 0
 85 95 59 152 59 223 c 0
EndSplineSet
Substitution2: "'init' Initial Forms in Arabic lookup 4 subtable" uni0647.init
Substitution2: "'medi' Medial Forms in Arabic lookup 3 subtable" uni0647.medi
Substitution2: "'fina' Terminal Forms in Arabic lookup 2 subtable" uni0647.fina
Substitution2: "'isol' Isolated Forms in Arabic lookup 1 subtable" uni0647.isol
EndChar

StartChar: uni0647_uni0654
Encoding: 65610 -1 226
Width: 632
GlyphClass: 2
Flags: W
LayerCount: 2
Fore
SplineSet
442 208 m 0
 442 250 417 280 392 303 c 0
 359 334 315 360 268 379 c 1
 231 345 194 291 194 223 c 0
 194 185 225 161 263 161 c 0
 284 161 306 162 327 164 c 0
 363 167 402 176 427 190 c 0
 438 196 442 201 442 208 c 0
59 223 m 0
 59 330 103 413 150 477 c 0
 176 512 211 545 252 563 c 1
 281 554 310 544 338 530 c 0
 440 479 530 403 566 287 c 0
 574 261 578 235 578 208 c 0
 578 162 555 124 530 98 c 0
 484 49 418 13 339 -3 c 0
 314 -8 288 -11 263 -11 c 0
 201 -11 152 21 120 56 c 0
 85 95 59 152 59 223 c 0
220 774 m 1
 195 792 175 821 175 860 c 0
 175 928 213 974 262 995 c 0
 281 1003 303 1007 329 1007 c 0
 349 1007 368 1005 388 1001 c 1
 377 915 l 1
 362 919 346 919 329 919 c 0
 287 919 249 908 234 882 c 0
 230 875 228 868 228 860 c 0
 228 834 289 829 317 829 c 0
 321 829 332 831 351 835 c 1
 370 763 l 1
 308 717 235 680 136 672 c 1
 132 760 l 1
 166 762 195 767 220 774 c 1
EndSplineSet
Substitution2: "'init' Initial Forms in Arabic lookup 4 subtable" uni0647_uni0654.init
Substitution2: "'medi' Medial Forms in Arabic lookup 3 subtable" uni0647_uni0654.medi
Substitution2: "'fina' Terminal Forms in Arabic lookup 2 subtable" uni0647_uni0654.isol
Substitution2: "'isol' Isolated Forms in Arabic lookup 1 subtable" uni0647_uni0654.isol
EndChar

StartChar: uni0648
Encoding: 1608 1608 227
Width: 632
GlyphClass: 2
Flags: W
LayerCount: 2
Fore
SplineSet
432 209 m 1
 421 246 404 284 377 304 c 0
 369 310 362 313 354 313 c 0
 336 313 325 295 318 281 c 0
 308 261 301 236 301 205 c 0
 301 204 303 203 307 203 c 0
 311 203 316 202 322 202 c 2
 358 202 l 2
 383 202 411 204 432 209 c 1
41 -132 m 1
 123 -102 203 -71 275 -39 c 0
 306 -25 333 -11 355 3 c 0
 377 17 392 30 401 44 c 1
 394 43 387 42 380 42 c 2
 360 42 l 2
 293 42 241 57 211 96 c 0
 189 124 178 163 178 215 c 0
 178 291 205 351 236 397 c 0
 256 426 282 450 314 464 c 0
 328 470 342 474 356 474 c 0
 401 474 436 446 460 420 c 0
 505 372 540 303 556 227 c 0
 561 203 564 181 564 160 c 0
 564 35 537 -43 469 -100 c 0
 413 -146 344 -178 264 -209 c 0
 218 -227 165 -248 105 -270 c 1
 41 -132 l 1
EndSplineSet
Substitution2: "'fina' Terminal Forms in Arabic lookup 2 subtable" uni0648.fina
Substitution2: "'isol' Isolated Forms in Arabic lookup 1 subtable" uni0648.isol
EndChar

StartChar: uni0649
Encoding: 1609 1609 228
Width: 929
GlyphClass: 2
Flags: W
LayerCount: 2
Fore
SplineSet
766 284 m 1
 756 302 739 320 716 320 c 0
 669 320 629 295 605 271 c 0
 597 263 593 255 593 248 c 0
 593 233 622 231 638 229 c 0
 732 219 803 182 810 87 c 0
 811 74 812 61 812 49 c 0
 812 -27 775 -74 731 -110 c 0
 657 -169 550 -196 430 -209 c 0
 392 -213 357 -215 323 -215 c 0
 212 -215 130 -185 91 -117 c 0
 71 -83 59 -47 57 1 c 0
 56 21 56 39 56 56 c 0
 56 107 64 162 73 207 c 0
 81 249 93 296 103 331 c 1
 237 297 l 1
 220 246 204 177 196 116 c 0
 193 93 191 73 191 56 c 0
 191 -21 241 -43 323 -43 c 0
 429 -43 540 -36 618 -6 c 0
 636 1 649 9 660 18 c 0
 671 27 676 37 676 49 c 1
 671 54 661 53 650 55 c 0
 577 65 515 81 485 132 c 0
 467 163 458 199 458 248 c 0
 458 289 479 327 499 355 c 0
 512 373 527 390 544 407 c 0
 561 424 580 437 599 450 c 0
 618 463 638 473 658 480 c 0
 678 487 697 492 716 492 c 0
 745 492 774 482 802 463 c 0
 830 444 856 415 881 374 c 1
 766 284 l 1
EndSplineSet
Substitution2: "'init' Initial Forms in Arabic lookup 4 subtable" uni0649.init
Substitution2: "'medi' Medial Forms in Arabic lookup 3 subtable" uni0649.medi
Substitution2: "'fina' Terminal Forms in Arabic lookup 2 subtable" uni0649.fina
Substitution2: "'isol' Isolated Forms in Arabic lookup 1 subtable" uni0649.isol
EndChar

StartChar: uni064A
Encoding: 1610 1610 229
Width: 929
GlyphClass: 2
Flags: W
LayerCount: 2
Fore
SplineSet
766 284 m 1
 756 302 739 320 716 320 c 0
 669 320 629 295 605 271 c 0
 597 263 593 255 593 248 c 0
 593 233 622 231 638 229 c 0
 732 219 803 182 810 87 c 0
 811 74 812 61 812 49 c 0
 812 -27 775 -74 731 -110 c 0
 657 -169 550 -196 430 -209 c 0
 392 -213 357 -215 323 -215 c 0
 212 -215 130 -185 91 -117 c 0
 71 -83 59 -47 57 1 c 0
 56 21 56 39 56 56 c 0
 56 107 64 162 73 207 c 0
 81 249 93 296 103 331 c 1
 237 297 l 1
 220 246 204 177 196 116 c 0
 193 93 191 73 191 56 c 0
 191 -21 241 -43 323 -43 c 0
 429 -43 540 -36 618 -6 c 0
 636 1 649 9 660 18 c 0
 671 27 676 37 676 49 c 1
 671 54 661 53 650 55 c 0
 577 65 515 81 485 132 c 0
 467 163 458 199 458 248 c 0
 458 289 479 327 499 355 c 0
 512 373 527 390 544 407 c 0
 561 424 580 437 599 450 c 0
 618 463 638 473 658 480 c 0
 678 487 697 492 716 492 c 0
 745 492 774 482 802 463 c 0
 830 444 856 415 881 374 c 1
 766 284 l 1
368 -371 m 1
 256 -371 l 1
 256 -259 l 1
 368 -259 l 1
 368 -371 l 1
539 -371 m 1
 426 -371 l 1
 426 -259 l 1
 539 -259 l 1
 539 -371 l 1
EndSplineSet
Substitution2: "'init' Initial Forms in Arabic lookup 4 subtable" uni064A.init
Substitution2: "'medi' Medial Forms in Arabic lookup 3 subtable" uni064A.medi
Substitution2: "'fina' Terminal Forms in Arabic lookup 2 subtable" uni064A.fina
Substitution2: "'isol' Isolated Forms in Arabic lookup 1 subtable" uni064A.isol
EndChar

StartChar: uni0671
Encoding: 1649 1649 230
Width: 406
GlyphClass: 2
Flags: W
LayerCount: 2
Fore
SplineSet
272 0 m 1
 136 0 l 1
 136 539 l 1
 272 539 l 1
 272 0 l 1
345 775 m 0
 345 784 312 788 301 788 c 0
 263 788 242 768 222 744 c 0
 211 731 198 715 186 694 c 1
 240 701 296 717 329 744 c 0
 340 753 345 764 345 775 c 0
64 639 m 0
 50 639 45 635 38 627 c 1
 -10 690 l 1
 2 705 13 716 28 726 c 0
 39 733 48 736 64 736 c 0
 89 736 101 722 115 708 c 1
 137 755 161 794 191 826 c 0
 211 847 230 862 255 873 c 0
 269 879 283 881 301 881 c 0
 365 881 407 842 407 775 c 0
 407 733 384 701 360 679 c 0
 346 666 331 653 313 643 c 0
 280 625 245 609 206 600 c 0
 189 596 174 595 161 595 c 0
 138 595 123 600 109 608 c 0
 94 617 84 626 72 638 c 0
 71 639 68 639 64 639 c 0
EndSplineSet
Substitution2: "'fina' Terminal Forms in Arabic lookup 2 subtable" uni0671.fina
Substitution2: "'isol' Isolated Forms in Arabic lookup 1 subtable" uni0671.isol
EndChar

StartChar: uni067E
Encoding: 1662 1662 231
Width: 1136
GlyphClass: 2
Flags: W
LayerCount: 2
Fore
SplineSet
1036 473 m 1
 1055 401 1075 335 1075 250 c 0
 1075 177 1043 122 1003 87 c 0
 972 59 933 54 884 41 c 0
 807 21 717 6 630 -5 c 0
 569 -13 502 -18 434 -18 c 0
 310 -18 214 7 150 62 c 0
 99 106 66 168 66 256 c 0
 66 292 72 331 79 364 c 0
 86 400 94 441 104 473 c 1
 240 449 l 1
 227 403 212 347 206 296 c 0
 204 280 202 266 202 256 c 0
 202 220 226 198 255 184 c 0
 300 162 361 154 434 154 c 0
 573 154 707 174 821 200 c 0
 856 208 885 215 908 222 c 0
 923 226 939 235 939 250 c 0
 939 270 936 296 929 329 c 0
 922 362 912 402 899 449 c 1
 1036 473 l 1
463 -364 m 1
 463 -252 l 1
 575 -252 l 1
 575 -364 l 1
 463 -364 l 1
378 -210 m 1
 378 -98 l 1
 490 -98 l 1
 490 -210 l 1
 378 -210 l 1
548 -210 m 1
 548 -98 l 1
 661 -98 l 1
 661 -210 l 1
 548 -210 l 1
EndSplineSet
Substitution2: "'init' Initial Forms in Arabic lookup 4 subtable" uni067E.init
Substitution2: "'medi' Medial Forms in Arabic lookup 3 subtable" uni067E.medi
Substitution2: "'fina' Terminal Forms in Arabic lookup 2 subtable" uni067E.fina
Substitution2: "'isol' Isolated Forms in Arabic lookup 1 subtable" uni067E.isol
EndChar

StartChar: uni0686
Encoding: 1670 1670 232
Width: 791
GlyphClass: 2
Flags: W
LayerCount: 2
Fore
SplineSet
224 68 m 0
 224 -40 308 -78 414 -78 c 0
 489 -78 558 -68 616 -53 c 0
 632 -49 645 -46 655 -42 c 1
 698 -205 l 1
 618 -230 522 -250 414 -250 c 0
 285 -250 188 -208 137 -127 c 0
 106 -78 88 -12 88 68 c 0
 88 154 126 216 171 263 c 0
 220 314 288 354 358 384 c 1
 312 421 l 2
 291 438 279 449 248 449 c 0
 223 449 214 441 199 430 c 2
 127 375 l 1
 64 495 l 1
 92 530 l 2
 102 543 114 555 125 566 c 0
 154 595 191 621 248 621 c 0
 295 621 326 604 357 585 c 0
 370 577 382 567 397 555 c 2
 473 494 l 2
 517 457 587 448 671 448 c 2
 706 448 l 1
 706 276 l 1
 655 276 l 2
 591 276 529 265 473 254 c 0
 398 239 325 212 277 170 c 0
 249 145 224 117 224 68 c 0
458 -18 m 1
 458 77 l 1
 554 77 l 1
 554 -18 l 1
 458 -18 l 1
391 107 m 1
 391 202 l 1
 487 202 l 1
 487 107 l 1
 391 107 l 1
525 107 m 1
 525 202 l 1
 620 202 l 1
 620 107 l 1
 525 107 l 1
EndSplineSet
Substitution2: "'init' Initial Forms in Arabic lookup 4 subtable" uni0686.init
Substitution2: "'medi' Medial Forms in Arabic lookup 3 subtable" uni0686.medi
Substitution2: "'fina' Terminal Forms in Arabic lookup 2 subtable" uni0686.fina
Substitution2: "'isol' Isolated Forms in Arabic lookup 1 subtable" uni0686.isol
EndChar

StartChar: uni0698
Encoding: 1688 1688 233
Width: 589
GlyphClass: 2
Flags: W
LayerCount: 2
Fore
SplineSet
38 -129 m 1
 125 -100 206 -51 272 0 c 0
 311 31 348 65 372 106 c 0
 382 123 387 140 387 155 c 0
 387 237 354 298 316 345 c 1
 446 417 l 1
 481 367 505 299 517 226 c 0
 521 202 523 178 523 155 c 0
 523 88 493 33 462 -11 c 0
 400 -99 311 -170 212 -222 c 0
 178 -240 143 -256 108 -268 c 1
 38 -129 l 1
356 714 m 1
 244 714 l 1
 244 826 l 1
 356 826 l 1
 356 714 l 1
271 552 m 1
 159 552 l 1
 159 665 l 1
 271 665 l 1
 271 552 l 1
442 552 m 1
 329 552 l 1
 329 665 l 1
 442 665 l 1
 442 552 l 1
EndSplineSet
Substitution2: "'fina' Terminal Forms in Arabic lookup 2 subtable" uni0698.fina
Substitution2: "'isol' Isolated Forms in Arabic lookup 1 subtable" uni0698.isol
EndChar

StartChar: uni06A9
Encoding: 1705 1705 234
Width: 1136
GlyphClass: 2
Flags: W
LayerCount: 2
Fore
SplineSet
66 256 m 0
 66 292 72 331 79 364 c 0
 86 400 94 441 104 473 c 1
 240 449 l 1
 227 403 212 347 206 296 c 0
 204 280 202 266 202 256 c 0
 202 219 227 197 255 182 c 0
 298 158 361 151 434 151 c 0
 524 151 617 153 696 165 c 0
 743 172 789 183 816 206 c 0
 828 216 834 227 834 240 c 0
 834 259 829 277 818 295 c 0
 777 362 700 407 629 448 c 1
 637 642 l 1
 766 707 919 744 1078 775 c 1
 1107 607 l 1
 1001 588 895 564 801 532 c 1
 849 497 891 456 922 406 c 0
 949 362 970 307 970 240 c 0
 970 158 930 103 880 68 c 0
 776 -5 609 -21 434 -21 c 0
 310 -21 214 6 150 61 c 0
 99 105 66 168 66 256 c 0
EndSplineSet
Substitution2: "'init' Initial Forms in Arabic lookup 4 subtable" uni06A9.init
Substitution2: "'medi' Medial Forms in Arabic lookup 3 subtable" uni06A9.medi
Substitution2: "'fina' Terminal Forms in Arabic lookup 2 subtable" uni06A9.fina
Substitution2: "'isol' Isolated Forms in Arabic lookup 1 subtable" uni06A9.isol
EndChar

StartChar: uni06AF
Encoding: 1711 1711 235
Width: 1143
GlyphClass: 2
Flags: W
LayerCount: 2
Fore
SplineSet
203 256 m 0
 203 219 228 197 256 182 c 0
 299 158 362 151 435 151 c 0
 524 151 618 154 697 163 c 0
 743 168 788 177 817 194 c 0
 829 201 835 211 835 221 c 0
 835 238 830 253 819 268 c 0
 775 327 698 363 630 402 c 1
 645 558 l 1
 747 598 868 627 990 644 c 0
 1026 649 1061 653 1092 657 c 1
 1104 529 l 1
 1032 519 961 511 892 497 c 0
 867 492 842 486 817 480 c 1
 897 424 971 355 971 221 c 0
 971 162 949 123 918 92 c 0
 820 -6 627 -21 435 -21 c 0
 311 -21 215 6 151 61 c 0
 100 105 67 168 67 256 c 0
 67 292 73 331 80 364 c 0
 87 400 95 441 105 473 c 1
 241 449 l 1
 228 403 213 347 207 296 c 0
 205 280 203 266 203 256 c 0
1086 717 m 1
 1018 708 945 697 877 685 c 0
 798 670 720 648 651 621 c 1
 654 709 l 1
 778 759 926 780 1078 800 c 1
 1086 717 l 1
EndSplineSet
Substitution2: "'init' Initial Forms in Arabic lookup 4 subtable" uni06AF.init
Substitution2: "'medi' Medial Forms in Arabic lookup 3 subtable" uni06AF.medi
Substitution2: "'fina' Terminal Forms in Arabic lookup 2 subtable" uni06AF.fina
Substitution2: "'isol' Isolated Forms in Arabic lookup 1 subtable" uniFB92
EndChar

StartChar: uni06C0
Encoding: 1728 1728 236
Width: 632
GlyphClass: 2
Flags: W
LayerCount: 2
Fore
SplineSet
442 208 m 0
 442 250 417 280 392 303 c 0
 359 334 315 360 268 379 c 1
 231 345 194 291 194 223 c 0
 194 185 225 161 263 161 c 0
 284 161 306 162 327 164 c 0
 363 167 402 176 427 190 c 0
 438 196 442 201 442 208 c 0
59 223 m 0
 59 330 103 413 150 477 c 0
 176 512 211 545 252 563 c 1
 281 554 310 544 338 530 c 0
 440 479 530 403 566 287 c 0
 574 261 578 235 578 208 c 0
 578 162 555 124 530 98 c 0
 484 49 418 13 339 -3 c 0
 314 -8 288 -11 263 -11 c 0
 201 -11 152 21 120 56 c 0
 85 95 59 152 59 223 c 0
244 771 m 1
 278 779 309 782 345 788 c 1
 358 692 l 1
 323 685 292 684 254 675 c 0
 232 670 208 662 180 652 c 0
 152 642 119 628 83 610 c 1
 48 698 l 1
 81 713 109 727 141 739 c 1
 131 752 125 767 119 781 c 0
 113 795 110 809 110 822 c 0
 110 860 134 900 154 923 c 0
 173 945 200 977 235 977 c 0
 278 977 306 970 338 959 c 1
 313 867 l 1
 296 872 280 879 260 879 c 2
 235 879 l 2
 221 879 212 868 205 859 c 0
 197 850 188 837 188 822 c 0
 188 811 198 802 205 795 c 0
 215 785 230 776 244 771 c 1
EndSplineSet
Substitution2: "'fina' Terminal Forms in Arabic lookup 2 subtable" uni06C0.fina
Substitution2: "'isol' Isolated Forms in Arabic lookup 1 subtable" uni06C0.isol
EndChar

StartChar: uni06CC
Encoding: 1740 1740 237
Width: 929
GlyphClass: 2
Flags: W
LayerCount: 2
Fore
SplineSet
766 284 m 1
 756 302 739 320 716 320 c 0
 669 320 629 295 605 271 c 0
 597 263 593 255 593 248 c 0
 593 233 622 231 638 229 c 0
 732 219 803 182 810 87 c 0
 811 74 812 61 812 49 c 0
 812 -27 775 -74 731 -110 c 0
 657 -169 550 -196 430 -209 c 0
 392 -213 357 -215 323 -215 c 0
 212 -215 130 -185 91 -117 c 0
 71 -83 59 -47 57 1 c 0
 56 21 56 39 56 56 c 0
 56 107 64 162 73 207 c 0
 81 249 93 296 103 331 c 1
 237 297 l 1
 220 246 204 177 196 116 c 0
 193 93 191 73 191 56 c 0
 191 -21 241 -43 323 -43 c 0
 429 -43 540 -36 618 -6 c 0
 636 1 649 9 660 18 c 0
 671 27 676 37 676 49 c 1
 671 54 661 53 650 55 c 0
 577 65 515 81 485 132 c 0
 467 163 458 199 458 248 c 0
 458 289 479 327 499 355 c 0
 512 373 527 390 544 407 c 0
 561 424 580 437 599 450 c 0
 618 463 638 473 658 480 c 0
 678 487 697 492 716 492 c 0
 745 492 774 482 802 463 c 0
 830 444 856 415 881 374 c 1
 766 284 l 1
EndSplineSet
Substitution2: "'init' Initial Forms in Arabic lookup 4 subtable" uni06CC.init
Substitution2: "'medi' Medial Forms in Arabic lookup 3 subtable" uni06CC.medi
Substitution2: "'fina' Terminal Forms in Arabic lookup 2 subtable" uni06CC.fina
Substitution2: "'isol' Isolated Forms in Arabic lookup 1 subtable" uni06CC.isol
EndChar

StartChar: uni0671.isol
Encoding: 64336 64336 238
Width: 406
GlyphClass: 2
Flags: W
LayerCount: 2
Fore
SplineSet
272 0 m 1
 136 0 l 1
 136 539 l 1
 272 539 l 1
 272 0 l 1
345 775 m 0
 345 784 312 788 301 788 c 0
 263 788 242 768 222 744 c 0
 211 731 198 715 186 694 c 1
 240 701 296 717 329 744 c 0
 340 753 345 764 345 775 c 0
64 639 m 0
 50 639 45 635 38 627 c 1
 -10 690 l 1
 2 705 13 716 28 726 c 0
 39 733 48 736 64 736 c 0
 89 736 101 722 115 708 c 1
 137 755 161 794 191 826 c 0
 211 847 230 862 255 873 c 0
 269 879 283 881 301 881 c 0
 365 881 407 842 407 775 c 0
 407 733 384 701 360 679 c 0
 346 666 331 653 313 643 c 0
 280 625 245 609 206 600 c 0
 189 596 174 595 161 595 c 0
 138 595 123 600 109 608 c 0
 94 617 84 626 72 638 c 0
 71 639 68 639 64 639 c 0
EndSplineSet
EndChar

StartChar: uni0671.fina
Encoding: 64337 64337 239
Width: 430
GlyphClass: 2
Flags: W
LayerCount: 2
Fore
SplineSet
246 252 m 2
 246 190 294 172 358 172 c 2
 430 172 l 1
 430 0 l 1
 358 0 l 2
 187 0 110 82 110 252 c 2
 110 539 l 1
 246 539 l 1
 246 252 l 2
348 773 m 0
 348 782 315 786 304 786 c 0
 266 786 245 766 225 742 c 0
 214 729 201 713 189 692 c 1
 243 699 299 715 332 742 c 0
 343 751 348 762 348 773 c 0
67 637 m 0
 53 637 48 633 41 625 c 1
 -7 688 l 1
 5 703 16 714 31 724 c 0
 42 731 51 734 67 734 c 0
 92 734 104 720 118 706 c 1
 140 753 164 792 194 824 c 0
 214 845 233 860 258 871 c 0
 272 877 286 879 304 879 c 0
 368 879 410 840 410 773 c 0
 410 731 387 699 363 677 c 0
 349 664 334 651 316 641 c 0
 283 623 248 607 209 598 c 0
 192 594 177 593 164 593 c 0
 141 593 126 598 112 606 c 0
 97 615 87 624 75 636 c 0
 74 637 71 637 67 637 c 0
EndSplineSet
EndChar

StartChar: uni067E.isol
Encoding: 64342 64342 240
Width: 1136
GlyphClass: 2
Flags: W
LayerCount: 2
Fore
SplineSet
1036 473 m 1
 1055 401 1075 335 1075 250 c 0
 1075 177 1043 122 1003 87 c 0
 972 59 933 54 884 41 c 0
 807 21 717 6 630 -5 c 0
 569 -13 502 -18 434 -18 c 0
 310 -18 214 7 150 62 c 0
 99 106 66 168 66 256 c 0
 66 292 72 331 79 364 c 0
 86 400 94 441 104 473 c 1
 240 449 l 1
 227 403 212 347 206 296 c 0
 204 280 202 266 202 256 c 0
 202 220 226 198 255 184 c 0
 300 162 361 154 434 154 c 0
 573 154 707 174 821 200 c 0
 856 208 885 215 908 222 c 0
 923 226 939 235 939 250 c 0
 939 270 936 296 929 329 c 0
 922 362 912 402 899 449 c 1
 1036 473 l 1
463 -364 m 1
 463 -252 l 1
 575 -252 l 1
 575 -364 l 1
 463 -364 l 1
378 -210 m 1
 378 -98 l 1
 490 -98 l 1
 490 -210 l 1
 378 -210 l 1
548 -210 m 1
 548 -98 l 1
 661 -98 l 1
 661 -210 l 1
 548 -210 l 1
EndSplineSet
EndChar

StartChar: uni067E.fina
Encoding: 64343 64343 241
Width: 1193
GlyphClass: 2
Flags: W
LayerCount: 2
Fore
SplineSet
1193 0 m 1
 1095 0 1026 39 988 99 c 1
 949 65 907 53 844 36 c 0
 726 4 585 -18 434 -18 c 0
 310 -18 214 7 150 62 c 0
 99 106 66 168 66 256 c 0
 66 292 72 331 79 364 c 0
 86 400 94 441 104 473 c 1
 240 449 l 1
 227 403 212 347 206 296 c 0
 204 280 202 266 202 256 c 0
 202 220 226 198 255 184 c 0
 300 162 361 154 434 154 c 0
 570 154 697 172 805 199 c 0
 837 207 864 216 885 225 c 0
 940 248 957 322 978 379 c 2
 990 416 l 1
 1125 377 l 1
 1105 322 l 2
 1097 299 1090 281 1087 261 c 0
 1086 255 1084 250 1084 247 c 0
 1084 244 1083 241 1083 239 c 0
 1083 205 1112 187 1141 179 c 0
 1155 175 1172 172 1193 172 c 1
 1193 0 l 1
463 -364 m 1
 463 -252 l 1
 575 -252 l 1
 575 -364 l 1
 463 -364 l 1
378 -210 m 1
 378 -98 l 1
 490 -98 l 1
 490 -210 l 1
 378 -210 l 1
548 -210 m 1
 548 -98 l 1
 661 -98 l 1
 661 -210 l 1
 548 -210 l 1
EndSplineSet
EndChar

StartChar: uni067E.init
Encoding: 64344 64344 242
Width: 406
GlyphClass: 2
Flags: W
LayerCount: 2
Fore
SplineSet
272 473 m 1
 293 396 310 315 310 222 c 0
 310 157 277 107 243 73 c 0
 203 33 143 0 64 0 c 2
 -34 0 l 1
 -34 172 l 1
 64 172 l 2
 95 172 124 179 144 189 c 0
 158 196 174 205 174 222 c 0
 174 254 169 287 164 319 c 0
 158 364 146 412 135 454 c 1
 272 473 l 1
146 -364 m 1
 146 -252 l 1
 258 -252 l 1
 258 -364 l 1
 146 -364 l 1
61 -210 m 1
 61 -98 l 1
 173 -98 l 1
 173 -210 l 1
 61 -210 l 1
231 -210 m 1
 231 -98 l 1
 344 -98 l 1
 344 -210 l 1
 231 -210 l 1
EndSplineSet
EndChar

StartChar: uni067E.medi
Encoding: 64345 64345 243
Width: 406
GlyphClass: 2
Flags: W
LayerCount: 2
Fore
SplineSet
200 72 m 1
 158 31 98 0 18 0 c 2
 -34 0 l 1
 -34 172 l 1
 18 172 l 2
 67 172 110 190 128 220 c 0
 134 230 138 240 138 252 c 2
 138 377 l 1
 273 377 l 1
 273 252 l 2
 273 189 340 172 406 172 c 1
 406 0 l 1
 313 0 245 25 200 72 c 1
146 -364 m 1
 146 -252 l 1
 258 -252 l 1
 258 -364 l 1
 146 -364 l 1
61 -210 m 1
 61 -98 l 1
 173 -98 l 1
 173 -210 l 1
 61 -210 l 1
231 -210 m 1
 231 -98 l 1
 344 -98 l 1
 344 -210 l 1
 231 -210 l 1
EndSplineSet
EndChar

StartChar: uni0686.isol
Encoding: 64378 64378 244
Width: 791
GlyphClass: 2
Flags: W
LayerCount: 2
Fore
SplineSet
224 68 m 0
 224 -40 308 -78 414 -78 c 0
 489 -78 558 -68 616 -53 c 0
 632 -49 645 -46 655 -42 c 1
 698 -205 l 1
 618 -230 522 -250 414 -250 c 0
 285 -250 188 -208 137 -127 c 0
 106 -78 88 -12 88 68 c 0
 88 154 126 216 171 263 c 0
 220 314 288 354 358 384 c 1
 312 421 l 2
 291 438 279 449 248 449 c 0
 223 449 214 441 199 430 c 2
 127 375 l 1
 64 495 l 1
 92 530 l 2
 102 543 114 555 125 566 c 0
 154 595 191 621 248 621 c 0
 295 621 326 604 357 585 c 0
 370 577 382 567 397 555 c 2
 473 494 l 2
 517 457 587 448 671 448 c 2
 706 448 l 1
 706 276 l 1
 655 276 l 2
 591 276 529 265 473 254 c 0
 398 239 325 212 277 170 c 0
 249 145 224 117 224 68 c 0
458 -18 m 1
 458 77 l 1
 554 77 l 1
 554 -18 l 1
 458 -18 l 1
391 107 m 1
 391 202 l 1
 487 202 l 1
 487 107 l 1
 391 107 l 1
525 107 m 1
 525 202 l 1
 620 202 l 1
 620 107 l 1
 525 107 l 1
EndSplineSet
EndChar

StartChar: uni0686.fina
Encoding: 64379 64379 245
Width: 812
GlyphClass: 2
Flags: W
LayerCount: 2
Fore
SplineSet
812 0 m 1
 734 0 673 34 632 73 c 0
 592 111 558 168 543 227 c 2
 533 266 l 1
 460 253 387 232 329 202 c 0
 291 182 257 156 238 121 c 0
 229 105 224 87 224 68 c 0
 224 -44 312 -69 414 -78 c 2
 630 -95 l 1
 555 -250 l 1
 414 -250 l 2
 285 -250 188 -208 137 -127 c 0
 106 -78 88 -12 88 68 c 0
 88 154 126 216 171 263 c 0
 220 314 288 354 358 384 c 1
 312 421 l 2
 291 438 279 449 248 449 c 0
 223 449 214 441 199 430 c 2
 127 375 l 1
 64 495 l 1
 92 530 l 2
 102 543 114 555 125 566 c 0
 154 595 191 621 248 621 c 0
 295 621 326 604 357 585 c 0
 370 577 382 567 397 555 c 2
 473 494 l 2
 516 457 587 448 671 448 c 2
 706 448 l 1
 706 276 l 1
 673 276 l 1
 683 231 717 197 759 181 c 0
 775 175 792 172 812 172 c 1
 812 0 l 1
378 -50 m 1
 378 45 l 1
 474 45 l 1
 474 -50 l 1
 378 -50 l 1
311 75 m 1
 311 170 l 1
 407 170 l 1
 407 75 l 1
 311 75 l 1
445 75 m 1
 445 170 l 1
 540 170 l 1
 540 75 l 1
 445 75 l 1
EndSplineSet
EndChar

StartChar: uni0686.init
Encoding: 64380 64380 246
Width: 761
GlyphClass: 2
Flags: W
LayerCount: 2
Fore
SplineSet
706 173 m 1
 671 173 l 2
 599 173 551 136 507 107 c 0
 428 56 347 0 218 0 c 2
 -34 0 l 1
 -34 172 l 1
 218 172 l 2
 311 172 369 210 426 246 c 1
 412 257 397 267 384 278 c 2
 309 339 l 2
 288 355 274 368 244 368 c 0
 220 368 210 360 195 349 c 2
 124 293 l 1
 61 413 l 1
 88 448 l 2
 116 485 148 516 196 533 c 0
 210 538 227 540 244 540 c 0
 292 540 322 522 353 503 c 0
 366 495 379 485 394 473 c 2
 469 412 l 2
 477 405 487 399 498 391 c 0
 539 361 597 345 671 345 c 2
 706 345 l 1
 706 173 l 1
205 -364 m 1
 205 -252 l 1
 317 -252 l 1
 317 -364 l 1
 205 -364 l 1
120 -210 m 1
 120 -98 l 1
 232 -98 l 1
 232 -210 l 1
 120 -210 l 1
290 -210 m 1
 290 -98 l 1
 403 -98 l 1
 403 -210 l 1
 290 -210 l 1
EndSplineSet
EndChar

StartChar: uni0686.medi
Encoding: 64381 64381 247
Width: 779
GlyphClass: 2
Flags: W
LayerCount: 2
Fore
SplineSet
692 182 m 1
 718 175 746 172 780 172 c 1
 780 0 l 1
 650 0 566 42 517 122 c 1
 472 94 l 2
 435 71 397 48 355 30 c 0
 334 21 310 15 286 9 c 0
 262 3 235 0 206 0 c 2
 -34 0 l 1
 -34 172 l 1
 204 172 l 2
 298 172 355 209 412 246 c 1
 398 257 383 267 370 278 c 2
 294 339 l 2
 273 355 260 368 229 368 c 0
 204 368 196 360 181 349 c 2
 109 293 l 1
 46 413 l 1
 74 448 l 2
 103 485 134 516 182 533 c 0
 196 538 212 540 229 540 c 0
 277 540 308 522 339 503 c 0
 352 495 364 485 379 473 c 2
 455 412 l 2
 502 371 566 345 657 345 c 2
 692 345 l 1
 692 182 l 1
205 -364 m 1
 205 -252 l 1
 317 -252 l 1
 317 -364 l 1
 205 -364 l 1
120 -210 m 1
 120 -98 l 1
 232 -98 l 1
 232 -210 l 1
 120 -210 l 1
290 -210 m 1
 290 -98 l 1
 403 -98 l 1
 403 -210 l 1
 290 -210 l 1
EndSplineSet
EndChar

StartChar: uni0698.isol
Encoding: 64394 64394 248
Width: 589
GlyphClass: 2
Flags: W
LayerCount: 2
Fore
SplineSet
38 -129 m 1
 125 -100 206 -51 272 0 c 0
 311 31 348 65 372 106 c 0
 382 123 387 140 387 155 c 0
 387 237 354 298 316 345 c 1
 446 417 l 1
 481 367 505 299 517 226 c 0
 521 202 523 178 523 155 c 0
 523 88 493 33 462 -11 c 0
 400 -99 311 -170 212 -222 c 0
 178 -240 143 -256 108 -268 c 1
 38 -129 l 1
356 714 m 1
 244 714 l 1
 244 826 l 1
 356 826 l 1
 356 714 l 1
271 552 m 1
 159 552 l 1
 159 665 l 1
 271 665 l 1
 271 552 l 1
442 552 m 1
 329 552 l 1
 329 665 l 1
 442 665 l 1
 442 552 l 1
EndSplineSet
EndChar

StartChar: uni0698.fina
Encoding: 64395 64395 249
Width: 672
GlyphClass: 2
Flags: W
LayerCount: 2
Fore
SplineSet
672 0 m 1
 601 0 543 21 502 52 c 1
 481 -6 443 -51 400 -90 c 0
 377 -111 354 -129 328 -146 c 0
 262 -189 188 -231 113 -262 c 1
 38 -128 l 1
 136 -79 245 -23 321 49 c 0
 341 68 357 88 369 109 c 0
 381 130 388 150 388 171 c 0
 388 201 385 231 379 260 c 0
 373 289 366 319 354 351 c 1
 486 396 l 1
 499 358 508 321 521 277 c 0
 537 213 590 172 672 172 c 1
 672 0 l 1
421 725 m 1
 309 725 l 1
 309 837 l 1
 421 837 l 1
 421 725 l 1
336 563 m 1
 224 563 l 1
 224 676 l 1
 336 676 l 1
 336 563 l 1
507 563 m 1
 394 563 l 1
 394 676 l 1
 507 676 l 1
 507 563 l 1
EndSplineSet
EndChar

StartChar: uni06A9.isol
Encoding: 64398 64398 250
Width: 1131
GlyphClass: 2
Flags: W
LayerCount: 2
Fore
SplineSet
66 256 m 0
 66 292 72 331 79 364 c 0
 86 400 94 441 104 473 c 1
 240 449 l 1
 227 403 212 347 206 296 c 0
 204 280 202 266 202 256 c 0
 202 219 227 197 255 182 c 0
 298 158 361 151 434 151 c 0
 524 151 617 153 696 165 c 0
 743 172 789 183 816 206 c 0
 828 216 834 227 834 240 c 0
 834 259 829 277 818 295 c 0
 777 362 700 407 629 448 c 1
 637 642 l 1
 766 707 919 744 1078 775 c 1
 1107 607 l 1
 1001 588 895 564 801 532 c 1
 849 497 891 456 922 406 c 0
 949 362 970 307 970 240 c 0
 970 158 930 103 880 68 c 0
 776 -5 609 -21 434 -21 c 0
 310 -21 214 6 150 61 c 0
 99 105 66 168 66 256 c 0
EndSplineSet
EndChar

StartChar: uni06A9.fina
Encoding: 64399 64399 251
Width: 1201
GlyphClass: 2
Flags: W
LayerCount: 2
Fore
SplineSet
1201 0 m 1
 1072 0 987 43 931 116 c 1
 842 -2 637 -21 434 -21 c 0
 310 -21 214 6 150 61 c 0
 99 105 66 168 66 256 c 0
 66 292 72 331 79 364 c 0
 86 400 94 441 104 473 c 1
 240 449 l 1
 227 403 212 347 206 296 c 0
 204 280 202 266 202 256 c 0
 202 219 227 197 255 182 c 0
 298 158 361 151 434 151 c 0
 524 151 617 153 696 165 c 0
 743 172 789 183 816 206 c 0
 828 216 834 227 834 240 c 0
 834 259 829 277 818 295 c 0
 777 362 700 407 629 448 c 1
 637 642 l 1
 739 693 856 730 979 755 c 0
 1014 762 1047 769 1078 775 c 1
 1107 607 l 1
 1001 588 895 564 801 532 c 1
 861 489 903 437 942 374 c 0
 964 338 987 291 1012 255 c 0
 1050 200 1106 172 1201 172 c 1
 1201 0 l 1
EndSplineSet
EndChar

StartChar: uni06A9.init
Encoding: 64400 64400 252
Width: 566
GlyphClass: 2
Flags: W
LayerCount: 2
Fore
SplineSet
-34 0 m 1
 -34 172 l 1
 43 172 l 2
 99 172 157 176 200 187 c 0
 230 194 264 208 264 240 c 0
 264 259 259 277 248 294 c 0
 206 359 130 400 59 441 c 1
 67 635 l 1
 170 686 285 724 408 752 c 0
 443 760 477 768 508 775 c 1
 537 607 l 1
 432 583 326 558 231 525 c 1
 300 475 360 417 387 327 c 0
 395 300 400 271 400 240 c 0
 400 144 359 87 297 52 c 0
 232 16 144 0 43 0 c 2
 -34 0 l 1
EndSplineSet
EndChar

StartChar: uni06A9.medi
Encoding: 64401 64401 253
Width: 632
GlyphClass: 2
Flags: W
LayerCount: 2
Fore
SplineSet
633 0 m 1
 506 0 421 42 364 112 c 1
 307 27 183 0 42 0 c 2
 -34 0 l 1
 -34 172 l 1
 42 172 l 2
 99 172 156 176 200 187 c 0
 230 194 264 208 264 240 c 0
 264 259 259 277 248 294 c 0
 206 359 130 401 59 441 c 1
 67 635 l 1
 169 686 285 724 408 752 c 0
 443 760 476 768 507 775 c 1
 537 607 l 1
 461 590 382 573 309 551 c 0
 282 543 256 534 230 525 c 1
 251 510 269 495 285 479 c 0
 301 463 317 448 331 430 c 0
 361 391 384 352 410 307 c 0
 442 250 473 203 543 183 c 0
 567 176 597 172 633 172 c 1
 633 0 l 1
EndSplineSet
EndChar

StartChar: uni06C0.isol
Encoding: 64420 64420 254
Width: 632
GlyphClass: 2
Flags: W
LayerCount: 2
Fore
SplineSet
442 208 m 0
 442 250 417 280 392 303 c 0
 359 334 315 360 268 379 c 1
 231 345 194 291 194 223 c 0
 194 185 225 161 263 161 c 0
 284 161 306 162 327 164 c 0
 363 167 402 176 427 190 c 0
 438 196 442 201 442 208 c 0
59 223 m 0
 59 330 103 413 150 477 c 0
 176 512 211 545 252 563 c 1
 281 554 310 544 338 530 c 0
 440 479 530 403 566 287 c 0
 574 261 578 235 578 208 c 0
 578 162 555 124 530 98 c 0
 484 49 418 13 339 -3 c 0
 314 -8 288 -11 263 -11 c 0
 201 -11 152 21 120 56 c 0
 85 95 59 152 59 223 c 0
244 771 m 1
 278 779 309 782 345 788 c 1
 358 692 l 1
 323 685 292 684 254 675 c 0
 232 670 208 662 180 652 c 0
 152 642 119 628 83 610 c 1
 48 698 l 1
 81 713 109 727 141 739 c 1
 131 752 125 767 119 781 c 0
 113 795 110 809 110 822 c 0
 110 860 134 900 154 923 c 0
 173 945 200 977 235 977 c 0
 278 977 306 970 338 959 c 1
 313 867 l 1
 296 872 280 879 260 879 c 2
 235 879 l 2
 221 879 212 868 205 859 c 0
 197 850 188 837 188 822 c 0
 188 811 198 802 205 795 c 0
 215 785 230 776 244 771 c 1
EndSplineSet
EndChar

StartChar: uni06C0.fina
Encoding: 64421 64421 255
Width: 659
GlyphClass: 2
Flags: W
LayerCount: 2
Fore
SplineSet
363 364 m 1
 320 350 283 332 249 313 c 0
 235 305 225 297 218 289 c 0
 211 281 207 273 207 266 c 0
 207 251 244 246 263 243 c 0
 280 240 300 238 322 236 c 0
 344 234 369 231 394 230 c 1
 363 364 l 1
660 0 m 1
 636 0 613 1 590 2 c 0
 500 6 451 59 422 131 c 1
 365 67 l 1
 243 78 123 103 83 197 c 0
 75 216 71 240 71 266 c 0
 71 332 103 382 140 419 c 0
 188 467 253 503 326 529 c 1
 307 613 l 1
 439 651 l 1
 532 243 l 2
 546 185 589 172 660 172 c 1
 660 0 l 1
248 783 m 1
 282 791 313 794 349 800 c 1
 362 704 l 1
 327 697 296 696 258 687 c 0
 236 682 212 674 184 664 c 0
 156 654 123 640 87 622 c 1
 52 710 l 1
 85 725 113 739 145 751 c 1
 135 764 129 779 123 793 c 0
 117 807 114 821 114 834 c 0
 114 872 138 912 158 935 c 0
 177 957 204 989 239 989 c 0
 282 989 310 982 342 971 c 1
 317 879 l 1
 300 884 284 891 264 891 c 2
 239 891 l 2
 225 891 216 880 209 871 c 0
 201 862 192 849 192 834 c 0
 192 823 202 814 209 807 c 0
 219 797 234 788 248 783 c 1
EndSplineSet
EndChar

StartChar: uni0649.init
Encoding: 64488 64488 256
Width: 369
GlyphClass: 2
Flags: W
LayerCount: 2
Fore
SplineSet
272 473 m 1
 293 396 310 315 310 222 c 0
 310 157 277 107 243 73 c 0
 203 33 143 0 64 0 c 2
 -34 0 l 1
 -34 172 l 1
 64 172 l 2
 95 172 124 179 144 189 c 0
 158 196 174 205 174 222 c 0
 174 254 169 287 164 319 c 0
 158 364 146 412 135 454 c 1
 272 473 l 1
EndSplineSet
EndChar

StartChar: uni0649.medi
Encoding: 64489 64489 257
Width: 406
GlyphClass: 2
Flags: W
LayerCount: 2
Fore
SplineSet
200 72 m 1
 158 31 98 0 18 0 c 2
 -34 0 l 1
 -34 172 l 1
 18 172 l 2
 67 172 110 190 128 220 c 0
 134 230 138 240 138 252 c 2
 138 377 l 1
 273 377 l 1
 273 252 l 2
 273 189 340 172 406 172 c 1
 406 0 l 1
 313 0 245 25 200 72 c 1
EndSplineSet
EndChar

StartChar: uni06CC.isol
Encoding: 64508 64508 258
Width: 929
GlyphClass: 2
Flags: W
LayerCount: 2
Fore
SplineSet
766 284 m 1
 756 302 739 320 716 320 c 0
 669 320 629 295 605 271 c 0
 597 263 593 255 593 248 c 0
 593 233 622 231 638 229 c 0
 732 219 803 182 810 87 c 0
 811 74 812 61 812 49 c 0
 812 -27 775 -74 731 -110 c 0
 657 -169 550 -196 430 -209 c 0
 392 -213 357 -215 323 -215 c 0
 212 -215 130 -185 91 -117 c 0
 71 -83 59 -47 57 1 c 0
 56 21 56 39 56 56 c 0
 56 107 64 162 73 207 c 0
 81 249 93 296 103 331 c 1
 237 297 l 1
 220 246 204 177 196 116 c 0
 193 93 191 73 191 56 c 0
 191 -21 241 -43 323 -43 c 0
 429 -43 540 -36 618 -6 c 0
 636 1 649 9 660 18 c 0
 671 27 676 37 676 49 c 1
 671 54 661 53 650 55 c 0
 577 65 515 81 485 132 c 0
 467 163 458 199 458 248 c 0
 458 289 479 327 499 355 c 0
 512 373 527 390 544 407 c 0
 561 424 580 437 599 450 c 0
 618 463 638 473 658 480 c 0
 678 487 697 492 716 492 c 0
 745 492 774 482 802 463 c 0
 830 444 856 415 881 374 c 1
 766 284 l 1
EndSplineSet
EndChar

StartChar: uni06CC.fina
Encoding: 64509 64509 259
Width: 920
GlyphClass: 2
Flags: W
LayerCount: 2
Fore
SplineSet
191 12 m 0
 191 -11 207 -29 223 -41 c 0
 247 -58 281 -69 324 -69 c 0
 376 -69 424 -70 467 -70 c 2
 578 -70 l 2
 609 -70 633 -71 650 -71 c 2
 676 -71 l 1
 676 -64 672 -55 664 -42 c 0
 639 -1 595 42 545 58 c 1
 582 223 l 1
 658 201 746 185 835 176 c 0
 864 173 892 172 920 172 c 1
 920 0 l 1
 875 0 830 3 787 9 c 1
 795 -7 801 -22 805 -36 c 0
 809 -50 812 -61 812 -71 c 0
 812 -112 778 -139 749 -158 c 0
 677 -205 572 -225 460 -235 c 0
 417 -239 372 -241 324 -241 c 0
 228 -241 166 -204 121 -153 c 0
 94 -122 74 -85 63 -42 c 0
 58 -23 56 -5 56 12 c 0
 56 94 76 170 95 237 c 0
 103 267 112 296 123 320 c 1
 252 269 l 1
 242 251 235 222 227 198 c 0
 222 183 218 167 214 150 c 0
 204 108 191 61 191 12 c 0
EndSplineSet
EndChar

StartChar: uni06CC.init
Encoding: 64510 64510 260
Width: 406
GlyphClass: 2
Flags: W
LayerCount: 2
Fore
SplineSet
272 473 m 1
 293 396 310 315 310 222 c 0
 310 157 277 107 243 73 c 0
 203 33 143 0 64 0 c 2
 -34 0 l 1
 -34 172 l 1
 64 172 l 2
 95 172 124 179 144 189 c 0
 158 196 174 205 174 222 c 0
 174 254 169 287 164 319 c 0
 158 364 146 412 135 454 c 1
 272 473 l 1
173 -235 m 1
 61 -235 l 1
 61 -123 l 1
 173 -123 l 1
 173 -235 l 1
344 -235 m 1
 231 -235 l 1
 231 -123 l 1
 344 -123 l 1
 344 -235 l 1
EndSplineSet
EndChar

StartChar: uni06CC.medi
Encoding: 64511 64511 261
Width: 406
GlyphClass: 2
Flags: W
LayerCount: 2
Fore
SplineSet
200 72 m 1
 158 31 98 0 18 0 c 2
 -34 0 l 1
 -34 172 l 1
 18 172 l 2
 67 172 110 190 128 220 c 0
 134 230 138 240 138 252 c 2
 138 377 l 1
 273 377 l 1
 273 252 l 2
 273 189 340 172 406 172 c 1
 406 0 l 1
 313 0 245 25 200 72 c 1
173 -235 m 1
 61 -235 l 1
 61 -123 l 1
 173 -123 l 1
 173 -235 l 1
344 -235 m 1
 231 -235 l 1
 231 -123 l 1
 344 -123 l 1
 344 -235 l 1
EndSplineSet
EndChar

StartChar: uni0020_uni064C_uni0651
Encoding: 64606 64606 262
Width: 348
GlyphClass: 3
Flags: W
LayerCount: 2
Fore
SplineSet
271 497 m 0
 271 508 268 520 268 530 c 1
 308 539 l 1
 314 442 l 2
 314 397 299 368 271 351 c 0
 261 345 249 342 234 342 c 0
 208 342 191 365 182 384 c 1
 170 344 155 304 104 304 c 0
 50 304 31 359 31 413 c 2
 29 455 l 1
 68 464 l 1
 68 413 l 2
 68 388 73 368 87 357 c 0
 92 353 97 351 104 351 c 0
 146 351 154 409 154 451 c 2
 154 490 l 1
 190 502 l 1
 190 467 200 424 215 402 c 0
 221 393 228 389 236 389 c 0
 267 389 273 428 273 459 c 2
 273 476 l 2
 272 486 272 487 271 497 c 0
253 732 m 0
 253 761 243 779 222 788 c 1
 182 786 165 758 155 722 c 1
 174 703 206 696 235 686 c 1
 242 699 253 716 253 732 c 0
275 672 m 1
 288 666 295 667 310 663 c 1
 310 613 l 1
 291 621 273 625 253 633 c 1
 206 567 122 524 39 495 c 1
 23 548 l 1
 43 548 58 558 73 563 c 1
 73 603 59 640 19 640 c 0
 11 640 2 639 -5 636 c 1
 -14 653 -25 665 -33 683 c 1
 -19 688 -6 690 11 690 c 0
 75 690 108 638 111 576 c 1
 139 590 170 609 193 629 c 0
 201 636 208 642 213 648 c 1
 184 658 153 662 131 679 c 0
 123 685 116 693 109 702 c 1
 118 762 151 807 198 829 c 0
 213 836 230 840 247 840 c 1
 274 828 297 795 297 757 c 0
 297 721 287 696 275 672 c 1
EndSplineSet
Ligature2: "'rlig' Required Ligatures in Arabic lookup 6 subtable" space uni064C_uni0651
EndChar

StartChar: uni0020_uni064D_uni0651
Encoding: 64607 64607 263
Width: 348
GlyphClass: 3
Flags: W
LayerCount: 2
Fore
SplineSet
231 799 m 0
 231 810 228 822 228 832 c 1
 268 841 l 1
 274 744 l 2
 274 699 259 670 231 653 c 0
 221 647 209 644 194 644 c 0
 168 644 151 667 142 686 c 1
 130 646 115 606 64 606 c 0
 10 606 -9 661 -9 715 c 2
 -11 757 l 1
 28 766 l 1
 28 715 l 2
 28 690 33 670 47 659 c 0
 52 655 57 653 64 653 c 0
 106 653 114 711 114 753 c 2
 114 792 l 1
 150 804 l 1
 150 769 160 726 175 704 c 0
 181 695 188 691 196 691 c 0
 227 691 233 730 233 761 c 2
 233 778 l 2
 232 788 232 789 231 799 c 0
286 421 m 1
 36 321 l 1
 36 377 l 1
 286 477 l 1
 286 421 l 1
286 544 m 1
 36 444 l 1
 36 500 l 1
 286 600 l 1
 286 544 l 1
EndSplineSet
Ligature2: "'rlig' Required Ligatures in Arabic lookup 6 subtable" space uni064D_uni0651
EndChar

StartChar: uni0020_uni064E_uni0651
Encoding: 64608 64608 264
Width: 348
GlyphClass: 3
Flags: W
LayerCount: 2
Fore
SplineSet
261 663 m 0
 261 674 258 686 258 696 c 1
 298 705 l 1
 304 608 l 2
 304 563 289 534 261 517 c 0
 251 511 239 508 224 508 c 0
 198 508 181 531 172 550 c 1
 160 510 145 470 94 470 c 0
 40 470 21 525 21 579 c 2
 19 621 l 1
 58 630 l 1
 58 579 l 2
 58 554 63 534 77 523 c 0
 82 519 87 517 94 517 c 0
 136 517 144 575 144 617 c 2
 144 656 l 1
 180 668 l 1
 180 633 190 590 205 568 c 0
 211 559 218 555 226 555 c 0
 257 555 263 594 263 625 c 2
 263 642 l 2
 262 652 262 653 261 663 c 0
258 786 m 1
 8 685 l 1
 8 741 l 1
 258 841 l 1
 258 786 l 1
EndSplineSet
Ligature2: "'rlig' Required Ligatures in Arabic lookup 6 subtable" space uni064E_uni0651
EndChar

StartChar: uni0020_uni064F_uni0651
Encoding: 64609 64609 265
Width: 348
GlyphClass: 3
Flags: W
LayerCount: 2
Fore
SplineSet
262 497 m 0
 262 508 259 520 259 530 c 1
 299 539 l 1
 305 442 l 2
 305 397 290 368 262 351 c 0
 252 345 240 342 225 342 c 0
 199 342 182 365 173 384 c 1
 161 344 146 304 95 304 c 0
 41 304 22 359 22 413 c 2
 20 455 l 1
 59 464 l 1
 59 413 l 2
 59 388 64 368 78 357 c 0
 83 353 88 351 95 351 c 0
 137 351 145 409 145 451 c 2
 145 490 l 1
 181 502 l 1
 181 467 191 424 206 402 c 0
 212 393 219 389 227 389 c 0
 258 389 264 428 264 459 c 2
 264 476 l 2
 263 486 263 487 262 497 c 0
201 727 m 0
 201 756 191 774 170 783 c 1
 131 783 116 757 106 723 c 1
 126 703 159 696 189 684 c 1
 197 697 201 710 201 727 c 0
227 669 m 1
 239 663 257 658 272 654 c 1
 259 608 l 1
 250 611 243 615 237 617 c 0
 227 620 219 624 211 627 c 0
 208 628 204 629 201 631 c 0
 169 588 127 553 76 525 c 0
 56 514 33 505 9 496 c 1
 9 557 l 1
 57 570 99 589 132 616 c 0
 143 625 154 634 162 644 c 1
 127 657 91 671 67 695 c 1
 70 782 111 833 195 838 c 1
 217 828 232 798 240 774 c 0
 243 765 244 756 244 747 c 0
 244 720 234 691 227 669 c 1
EndSplineSet
Ligature2: "'rlig' Required Ligatures in Arabic lookup 6 subtable" space uni064F_uni0651
EndChar

StartChar: uni0020_uni0650_uni0651
Encoding: 64610 64610 266
Width: 348
GlyphClass: 3
Flags: W
LayerCount: 2
Fore
SplineSet
253 799 m 0
 253 810 250 822 250 832 c 1
 290 841 l 1
 296 744 l 2
 296 699 281 670 253 653 c 0
 243 647 231 644 216 644 c 0
 190 644 173 667 164 686 c 1
 152 646 137 606 86 606 c 0
 32 606 13 661 13 715 c 2
 11 757 l 1
 50 766 l 1
 50 715 l 2
 50 690 55 670 69 659 c 0
 74 655 79 653 86 653 c 0
 128 653 136 711 136 753 c 2
 136 792 l 1
 172 804 l 1
 172 769 182 726 197 704 c 0
 203 695 210 691 218 691 c 0
 249 691 255 730 255 761 c 2
 255 778 l 2
 254 788 254 789 253 799 c 0
308 550 m 1
 58 451 l 1
 58 507 l 1
 308 606 l 1
 308 550 l 1
EndSplineSet
Ligature2: "'rlig' Required Ligatures in Arabic lookup 6 subtable" space uni0650_uni0651
EndChar

StartChar: uni0020_uni0651_uni0670
Encoding: 64611 64611 267
Width: 348
GlyphClass: 3
Flags: W
LayerCount: 2
Fore
SplineSet
250 585 m 0
 250 596 247 608 247 618 c 1
 287 627 l 1
 293 530 l 2
 293 485 278 456 250 439 c 0
 240 433 228 430 213 430 c 0
 187 430 170 453 161 472 c 1
 149 432 134 392 83 392 c 0
 29 392 10 447 10 501 c 2
 8 543 l 1
 47 552 l 1
 47 501 l 2
 47 476 52 456 66 445 c 0
 71 441 76 439 83 439 c 0
 125 439 133 497 133 539 c 2
 133 578 l 1
 169 590 l 1
 169 555 179 512 194 490 c 0
 200 481 207 477 215 477 c 0
 246 477 252 516 252 547 c 2
 252 564 l 2
 251 574 251 575 250 585 c 0
118 848 m 1
 144 805 166 759 166 689 c 0
 166 680 164 663 162 652 c 2
 159 630 l 1
 123 630 l 1
 123 687 111 735 92 773 c 0
 86 785 79 795 72 806 c 1
 118 848 l 1
EndSplineSet
Ligature2: "'rlig' Required Ligatures in Arabic lookup 6 subtable" space uni0651_uni0670
EndChar

StartChar: uni0627_uni064B.fina
Encoding: 64828 64828 268
Width: 430
GlyphClass: 3
LigCaretCntFixed: 1
Flags: W
LayerCount: 2
Fore
SplineSet
246 252 m 2
 246 190 294 172 358 172 c 2
 430 172 l 1
 430 0 l 1
 358 0 l 2
 187 0 110 82 110 252 c 2
 110 539 l 1
 246 539 l 1
 246 252 l 2
303 700 m 1
 53 601 l 1
 53 657 l 1
 303 756 l 1
 303 700 l 1
303 828 m 1
 53 729 l 1
 53 785 l 1
 303 884 l 1
 303 828 l 1
EndSplineSet
Ligature2: "'rlig' Required Ligatures in Arabic lookup 6 subtable" uniFE8E uni064B
LCarets2: 1 205
EndChar

StartChar: uni0627_uni064B.isol
Encoding: 64829 64829 269
Width: 406
GlyphClass: 3
LigCaretCntFixed: 1
Flags: W
LayerCount: 2
Fore
SplineSet
272 0 m 1
 136 0 l 1
 136 539 l 1
 272 539 l 1
 272 0 l 1
317 688 m 1
 67 589 l 1
 67 645 l 1
 317 744 l 1
 317 688 l 1
317 816 m 1
 67 717 l 1
 67 773 l 1
 317 872 l 1
 317 816 l 1
EndSplineSet
Ligature2: "'rlig' Required Ligatures in Arabic lookup 6 subtable" uniFE8D uni064B
LCarets2: 1 183
EndChar

StartChar: uni0621.isol
Encoding: 65152 65152 270
Width: 430
GlyphClass: 2
Flags: W
LayerCount: 2
Fore
SplineSet
80 131 m 1
 58 162 40 196 40 246 c 0
 40 310 67 357 99 392 c 0
 121 416 144 437 174 451 c 0
 187 457 200 461 212 462 c 2
 306 472 l 1
 347 325 l 1
 228 291 l 2
 208 283 175 273 175 246 c 0
 175 241 182 235 195 228 c 0
 208 221 225 214 245 206 c 1
 264 211 281 214 297 215 c 2
 345 218 l 2
 351 218 356 219 360 219 c 0
 364 219 369 219 375 220 c 1
 388 49 l 1
 382 48 377 48 371 48 c 0
 365 48 360 46 354 46 c 0
 241 39 177 5 101 -47 c 1
 23 95 l 1
 42 109 61 118 80 131 c 1
EndSplineSet
EndChar

StartChar: uni0622.isol
Encoding: 65153 65153 271
Width: 406
GlyphClass: 2
Flags: W
LayerCount: 2
Fore
SplineSet
272 0 m 1
 136 0 l 1
 136 539 l 1
 272 539 l 1
 272 0 l 1
43 790 m 1
 81 776 127 770 180 770 c 0
 215 770 248 778 274 789 c 0
 308 803 338 813 369 831 c 1
 414 729 l 1
 365 702 315 682 257 664 c 0
 234 657 206 652 180 652 c 0
 145 652 114 656 83 659 c 1
 82 652 81 647 81 640 c 0
 81 633 80 628 80 622 c 1
 -13 622 l 1
 -13 690 10 751 43 790 c 1
EndSplineSet
EndChar

StartChar: uni0622.fina
Encoding: 65154 65154 272
Width: 430
GlyphClass: 2
Flags: W
LayerCount: 2
Fore
SplineSet
246 252 m 2
 246 190 294 172 358 172 c 2
 430 172 l 1
 430 0 l 1
 358 0 l 2
 187 0 110 82 110 252 c 2
 110 539 l 1
 246 539 l 1
 246 252 l 2
57 783 m 1
 95 769 141 763 194 763 c 0
 229 763 262 771 288 782 c 0
 322 796 352 806 383 824 c 1
 428 722 l 1
 379 695 329 675 271 657 c 0
 248 650 220 645 194 645 c 0
 159 645 128 649 97 652 c 1
 96 645 95 640 95 633 c 0
 95 626 94 621 94 615 c 1
 1 615 l 1
 1 683 24 744 57 783 c 1
EndSplineSet
EndChar

StartChar: uni0623.isol
Encoding: 65155 65155 273
Width: 406
GlyphClass: 2
Flags: W
LayerCount: 2
Fore
SplineSet
272 0 m 1
 136 0 l 1
 136 539 l 1
 272 539 l 1
 272 0 l 1
233 757 m 1
 267 765 298 768 334 774 c 1
 347 678 l 1
 312 671 281 670 243 661 c 0
 221 656 197 648 169 638 c 0
 141 628 108 614 72 596 c 1
 37 684 l 1
 70 699 98 713 130 725 c 1
 120 738 114 753 108 767 c 0
 102 781 99 795 99 808 c 0
 99 846 123 886 143 909 c 0
 162 931 189 963 224 963 c 0
 267 963 295 956 327 945 c 1
 302 853 l 1
 285 858 269 865 249 865 c 2
 224 865 l 2
 210 865 201 854 194 845 c 0
 186 836 177 823 177 808 c 0
 177 797 187 788 194 781 c 0
 204 771 219 762 233 757 c 1
EndSplineSet
EndChar

StartChar: uni0623.fina
Encoding: 65156 65156 274
Width: 430
GlyphClass: 2
Flags: W
LayerCount: 2
Fore
SplineSet
246 252 m 2
 246 190 294 172 358 172 c 2
 430 172 l 1
 430 0 l 1
 358 0 l 2
 187 0 110 82 110 252 c 2
 110 539 l 1
 246 539 l 1
 246 252 l 2
198 727 m 1
 232 735 263 738 299 744 c 1
 312 648 l 1
 277 641 246 640 208 631 c 0
 186 626 162 618 134 608 c 0
 106 598 73 584 37 566 c 1
 2 654 l 1
 35 669 63 683 95 695 c 1
 85 708 79 723 73 737 c 0
 67 751 64 765 64 778 c 0
 64 816 88 856 108 879 c 0
 127 901 154 933 189 933 c 0
 232 933 260 926 292 915 c 1
 267 823 l 1
 250 828 234 835 214 835 c 2
 189 835 l 2
 175 835 166 824 159 815 c 0
 151 806 142 793 142 778 c 0
 142 767 152 758 159 751 c 0
 169 741 184 732 198 727 c 1
EndSplineSet
EndChar

StartChar: uni0624.isol
Encoding: 65157 65157 275
Width: 632
GlyphClass: 2
Flags: W
LayerCount: 2
Fore
SplineSet
432 209 m 1
 421 246 404 284 377 304 c 0
 369 310 362 313 354 313 c 0
 336 313 325 295 318 281 c 0
 308 261 301 236 301 205 c 0
 301 204 303 203 307 203 c 0
 311 203 316 202 322 202 c 2
 358 202 l 2
 383 202 411 204 432 209 c 1
41 -132 m 1
 123 -102 203 -71 275 -39 c 0
 306 -25 333 -11 355 3 c 0
 377 17 392 30 401 44 c 1
 394 43 387 42 380 42 c 2
 360 42 l 2
 293 42 241 57 211 96 c 0
 189 124 178 163 178 215 c 0
 178 291 205 351 236 397 c 0
 256 426 282 450 314 464 c 0
 328 470 342 474 356 474 c 0
 401 474 436 446 460 420 c 0
 505 372 540 303 556 227 c 0
 561 203 564 181 564 160 c 0
 564 35 537 -43 469 -100 c 0
 413 -146 344 -178 264 -209 c 0
 218 -227 165 -248 105 -270 c 1
 41 -132 l 1
326 670 m 1
 360 678 391 681 427 687 c 1
 440 591 l 1
 405 584 374 583 336 574 c 0
 314 569 290 561 262 551 c 0
 234 541 201 527 165 509 c 1
 130 597 l 1
 163 612 191 626 223 638 c 1
 213 651 207 666 201 680 c 0
 195 694 192 708 192 721 c 0
 192 759 216 799 236 822 c 0
 255 844 282 876 317 876 c 0
 360 876 388 869 420 858 c 1
 395 766 l 1
 378 771 362 778 342 778 c 2
 317 778 l 2
 303 778 294 767 287 758 c 0
 279 749 270 736 270 721 c 0
 270 710 280 701 287 694 c 0
 297 684 312 675 326 670 c 1
EndSplineSet
EndChar

StartChar: uni0624.fina
Encoding: 65158 65158 276
Width: 672
GlyphClass: 2
Flags: W
LayerCount: 2
Fore
SplineSet
427 177 m 1
 421 222 406 265 381 290 c 0
 373 298 365 302 356 302 c 0
 325 302 314 247 314 215 c 0
 314 192 358 185 381 182 c 0
 395 180 410 178 427 177 c 1
377 17 m 1
 268 40 178 85 178 215 c 0
 178 291 205 351 236 397 c 0
 256 426 282 450 314 464 c 0
 328 470 342 474 356 474 c 0
 400 474 432 448 457 423 c 0
 503 377 534 310 553 238 c 0
 559 215 562 193 563 172 c 1
 672 172 l 1
 672 0 l 1
 610 0 l 2
 588 0 567 0 548 1 c 1
 530 -71 478 -109 415 -144 c 0
 379 -164 334 -183 283 -202 c 0
 232 -221 172 -243 105 -266 c 1
 40 -128 l 1
 142 -92 242 -60 329 -15 c 0
 350 -4 366 7 377 17 c 1
313 662 m 1
 347 670 378 673 414 679 c 1
 427 583 l 1
 392 576 361 575 323 566 c 0
 301 561 277 553 249 543 c 0
 221 533 188 519 152 501 c 1
 117 589 l 1
 150 604 178 618 210 630 c 1
 200 643 194 658 188 672 c 0
 182 686 179 700 179 713 c 0
 179 751 203 791 223 814 c 0
 242 836 269 868 304 868 c 0
 347 868 375 861 407 850 c 1
 382 758 l 1
 365 763 349 770 329 770 c 2
 304 770 l 2
 290 770 281 759 274 750 c 0
 266 741 257 728 257 713 c 0
 257 702 267 693 274 686 c 0
 284 676 299 667 313 662 c 1
EndSplineSet
EndChar

StartChar: uni0625.isol
Encoding: 65159 65159 277
Width: 369
GlyphClass: 2
Flags: W
LayerCount: 2
Fore
SplineSet
243 0 m 1
 107 0 l 1
 107 713 l 1
 243 713 l 1
 243 0 l 1
205 -269 m 1
 239 -261 270 -259 306 -253 c 1
 319 -348 l 1
 284 -356 253 -357 215 -366 c 0
 154 -380 103 -401 44 -430 c 1
 9 -342 l 1
 42 -327 70 -313 102 -301 c 1
 86 -281 71 -249 71 -218 c 0
 71 -180 95 -140 115 -117 c 0
 134 -95 162 -63 196 -63 c 0
 239 -63 267 -70 299 -81 c 1
 274 -173 l 1
 257 -168 242 -162 221 -162 c 0
 214 -162 205 -161 196 -161 c 0
 182 -161 173 -172 166 -181 c 0
 159 -190 149 -204 149 -218 c 0
 149 -229 159 -238 166 -245 c 0
 176 -255 191 -264 205 -269 c 1
EndSplineSet
EndChar

StartChar: uni0625.fina
Encoding: 65160 65160 278
Width: 383
GlyphClass: 2
Flags: W
LayerCount: 2
Fore
SplineSet
243 252 m 2
 243 190 291 172 355 172 c 2
 384 172 l 1
 384 0 l 1
 355 0 l 2
 185 0 107 83 107 252 c 2
 107 713 l 1
 243 713 l 1
 243 252 l 2
212 -257 m 1
 246 -249 277 -247 313 -241 c 1
 326 -336 l 1
 291 -344 260 -345 222 -354 c 0
 161 -368 110 -389 51 -418 c 1
 16 -330 l 1
 49 -315 77 -301 109 -289 c 1
 93 -269 78 -237 78 -206 c 0
 78 -168 102 -128 122 -105 c 0
 141 -83 169 -51 203 -51 c 0
 246 -51 274 -58 306 -69 c 1
 281 -161 l 1
 264 -156 249 -150 228 -150 c 0
 221 -150 212 -149 203 -149 c 0
 189 -149 180 -160 173 -169 c 0
 166 -178 156 -192 156 -206 c 0
 156 -217 166 -226 173 -233 c 0
 183 -243 198 -252 212 -257 c 1
EndSplineSet
EndChar

StartChar: uni0626.isol
Encoding: 65161 65161 279
Width: 929
GlyphClass: 2
Flags: W
LayerCount: 2
Fore
SplineSet
766 284 m 1
 756 302 739 320 716 320 c 0
 669 320 629 295 605 271 c 0
 597 263 593 255 593 248 c 0
 593 233 622 231 638 229 c 0
 732 219 803 182 810 87 c 0
 811 74 812 61 812 49 c 0
 812 -27 775 -74 731 -110 c 0
 657 -169 550 -196 430 -209 c 0
 392 -213 357 -215 323 -215 c 0
 212 -215 130 -185 91 -117 c 0
 71 -83 59 -47 57 1 c 0
 56 21 56 39 56 56 c 0
 56 107 64 162 73 207 c 0
 81 249 93 296 103 331 c 1
 237 297 l 1
 220 246 204 177 196 116 c 0
 193 93 191 73 191 56 c 0
 191 -21 241 -43 323 -43 c 0
 429 -43 540 -36 618 -6 c 0
 636 1 649 9 660 18 c 0
 671 27 676 37 676 49 c 1
 671 54 661 53 650 55 c 0
 577 65 515 81 485 132 c 0
 467 163 458 199 458 248 c 0
 458 289 479 327 499 355 c 0
 512 373 527 390 544 407 c 0
 561 424 580 437 599 450 c 0
 618 463 638 473 658 480 c 0
 678 487 697 492 716 492 c 0
 745 492 774 482 802 463 c 0
 830 444 856 415 881 374 c 1
 766 284 l 1
386 565 m 1
 420 573 451 576 487 582 c 1
 500 486 l 1
 465 479 434 478 396 469 c 0
 374 464 350 456 322 446 c 0
 294 436 261 422 225 404 c 1
 190 492 l 1
 223 507 251 521 283 533 c 1
 273 546 267 561 261 575 c 0
 255 589 252 603 252 616 c 0
 252 654 276 694 296 717 c 0
 315 739 342 771 377 771 c 0
 420 771 448 764 480 753 c 1
 455 661 l 1
 438 666 422 673 402 673 c 2
 377 673 l 2
 363 673 354 662 347 653 c 0
 339 644 330 631 330 616 c 0
 330 605 340 596 347 589 c 0
 357 579 372 570 386 565 c 1
EndSplineSet
EndChar

StartChar: uni0626.fina
Encoding: 65162 65162 280
Width: 920
GlyphClass: 2
Flags: W
LayerCount: 2
Fore
SplineSet
191 12 m 0
 191 -11 207 -29 223 -41 c 0
 247 -58 281 -69 324 -69 c 0
 376 -69 424 -70 467 -70 c 2
 578 -70 l 2
 609 -70 633 -71 650 -71 c 2
 676 -71 l 1
 676 -64 672 -55 664 -42 c 0
 639 -1 595 42 545 58 c 1
 582 223 l 1
 658 201 746 185 835 176 c 0
 864 173 892 172 920 172 c 1
 920 0 l 1
 875 0 830 3 787 9 c 1
 795 -7 801 -22 805 -36 c 0
 809 -50 812 -61 812 -71 c 0
 812 -112 778 -139 749 -158 c 0
 677 -205 572 -225 460 -235 c 0
 417 -239 372 -241 324 -241 c 0
 228 -241 166 -204 121 -153 c 0
 94 -122 74 -85 63 -42 c 0
 58 -23 56 -5 56 12 c 0
 56 94 76 170 95 237 c 0
 103 267 112 296 123 320 c 1
 252 269 l 1
 242 251 235 222 227 198 c 0
 222 183 218 167 214 150 c 0
 204 108 191 61 191 12 c 0
560 437 m 1
 594 445 625 448 661 454 c 1
 674 358 l 1
 639 351 608 350 570 341 c 0
 548 336 524 328 496 318 c 0
 468 308 435 294 399 276 c 1
 364 364 l 1
 397 379 425 393 457 405 c 1
 447 418 441 433 435 447 c 0
 429 461 426 475 426 488 c 0
 426 526 450 566 470 589 c 0
 489 611 516 643 551 643 c 0
 594 643 622 636 654 625 c 1
 629 533 l 1
 612 538 596 545 576 545 c 2
 551 545 l 2
 537 545 528 534 521 525 c 0
 513 516 504 503 504 488 c 0
 504 477 514 468 521 461 c 0
 531 451 546 442 560 437 c 1
EndSplineSet
EndChar

StartChar: uni0626.init
Encoding: 65163 65163 281
Width: 406
GlyphClass: 2
Flags: W
LayerCount: 2
Fore
SplineSet
272 473 m 1
 293 396 310 315 310 222 c 0
 310 157 277 107 243 73 c 0
 203 33 143 0 64 0 c 2
 -34 0 l 1
 -34 172 l 1
 64 172 l 2
 95 172 124 179 144 189 c 0
 158 196 174 205 174 222 c 0
 174 254 169 287 164 319 c 0
 158 364 146 412 135 454 c 1
 272 473 l 1
193 658 m 1
 227 666 258 669 294 675 c 1
 307 579 l 1
 272 572 241 571 203 562 c 0
 181 557 157 549 129 539 c 0
 101 529 68 515 32 497 c 1
 -3 585 l 1
 30 600 58 614 90 626 c 1
 80 639 74 654 68 668 c 0
 62 682 59 696 59 709 c 0
 59 747 83 787 103 810 c 0
 122 832 149 864 184 864 c 0
 227 864 255 857 287 846 c 1
 262 754 l 1
 245 759 229 766 209 766 c 2
 184 766 l 2
 170 766 161 755 154 746 c 0
 146 737 137 724 137 709 c 0
 137 698 147 689 154 682 c 0
 164 672 179 663 193 658 c 1
EndSplineSet
EndChar

StartChar: uni0626.medi
Encoding: 65164 65164 282
Width: 406
GlyphClass: 2
Flags: W
LayerCount: 2
Fore
SplineSet
200 72 m 1
 158 31 98 0 18 0 c 2
 -34 0 l 1
 -34 172 l 1
 18 172 l 2
 67 172 110 190 128 220 c 0
 134 230 138 240 138 252 c 2
 138 377 l 1
 273 377 l 1
 273 252 l 2
 273 189 340 172 406 172 c 1
 406 0 l 1
 313 0 245 25 200 72 c 1
203 578 m 1
 237 586 268 589 304 595 c 1
 317 499 l 1
 282 492 251 491 213 482 c 0
 191 477 167 469 139 459 c 0
 111 449 78 435 42 417 c 1
 7 505 l 1
 40 520 68 534 100 546 c 1
 90 559 84 574 78 588 c 0
 72 602 69 616 69 629 c 0
 69 667 93 707 113 730 c 0
 132 752 159 784 194 784 c 0
 237 784 265 777 297 766 c 1
 272 674 l 1
 255 679 239 686 219 686 c 2
 194 686 l 2
 180 686 171 675 164 666 c 0
 156 657 147 644 147 629 c 0
 147 618 157 609 164 602 c 0
 174 592 189 583 203 578 c 1
EndSplineSet
EndChar

StartChar: uni0628.isol
Encoding: 65167 65167 283
Width: 1136
GlyphClass: 2
Flags: W
LayerCount: 2
Fore
SplineSet
1036 473 m 1
 1055 401 1075 335 1075 250 c 0
 1075 177 1043 122 1003 87 c 0
 972 59 933 54 884 41 c 0
 807 21 717 6 630 -5 c 0
 569 -13 502 -18 434 -18 c 0
 310 -18 214 7 150 62 c 0
 99 106 66 168 66 256 c 0
 66 292 72 331 79 364 c 0
 86 400 94 441 104 473 c 1
 240 449 l 1
 227 403 212 347 206 296 c 0
 204 280 202 266 202 256 c 0
 202 220 226 198 255 184 c 0
 300 162 361 154 434 154 c 0
 573 154 707 174 821 200 c 0
 856 208 885 215 908 222 c 0
 923 226 939 235 939 250 c 0
 939 270 936 296 929 329 c 0
 922 362 912 402 899 449 c 1
 1036 473 l 1
575 -235 m 1
 463 -235 l 1
 463 -123 l 1
 575 -123 l 1
 575 -235 l 1
EndSplineSet
EndChar

StartChar: uni0628.fina
Encoding: 65168 65168 284
Width: 1193
GlyphClass: 2
Flags: W
LayerCount: 2
Fore
SplineSet
1193 0 m 1
 1095 0 1026 39 988 99 c 1
 949 65 907 53 844 36 c 0
 726 4 585 -18 434 -18 c 0
 310 -18 214 7 150 62 c 0
 99 106 66 168 66 256 c 0
 66 292 72 331 79 364 c 0
 86 400 94 441 104 473 c 1
 240 449 l 1
 227 403 212 347 206 296 c 0
 204 280 202 266 202 256 c 0
 202 220 226 198 255 184 c 0
 300 162 361 154 434 154 c 0
 570 154 697 172 805 199 c 0
 837 207 864 216 885 225 c 0
 940 248 957 322 978 379 c 2
 990 416 l 1
 1125 377 l 1
 1105 322 l 2
 1097 299 1090 281 1087 261 c 0
 1086 255 1084 250 1084 247 c 0
 1084 244 1083 241 1083 239 c 0
 1083 205 1112 187 1141 179 c 0
 1155 175 1172 172 1193 172 c 1
 1193 0 l 1
575 -235 m 1
 463 -235 l 1
 463 -123 l 1
 575 -123 l 1
 575 -235 l 1
EndSplineSet
EndChar

StartChar: uni0628.init
Encoding: 65169 65169 285
Width: 369
GlyphClass: 2
Flags: W
LayerCount: 2
Fore
SplineSet
272 473 m 1
 293 396 310 315 310 222 c 0
 310 157 277 107 243 73 c 0
 203 33 143 0 64 0 c 2
 -34 0 l 1
 -34 172 l 1
 64 172 l 2
 95 172 124 179 144 189 c 0
 158 196 174 205 174 222 c 0
 174 254 169 287 164 319 c 0
 158 364 146 412 135 454 c 1
 272 473 l 1
258 -235 m 1
 146 -235 l 1
 146 -123 l 1
 258 -123 l 1
 258 -235 l 1
EndSplineSet
EndChar

StartChar: uni0628.medi
Encoding: 65170 65170 286
Width: 406
GlyphClass: 2
Flags: W
LayerCount: 2
Fore
SplineSet
200 72 m 1
 158 31 98 0 18 0 c 2
 -34 0 l 1
 -34 172 l 1
 18 172 l 2
 67 172 110 190 128 220 c 0
 134 230 138 240 138 252 c 2
 138 377 l 1
 273 377 l 1
 273 252 l 2
 273 189 340 172 406 172 c 1
 406 0 l 1
 313 0 245 25 200 72 c 1
258 -235 m 1
 146 -235 l 1
 146 -123 l 1
 258 -123 l 1
 258 -235 l 1
EndSplineSet
EndChar

StartChar: uni0629.isol
Encoding: 65171 65171 287
Width: 632
GlyphClass: 2
Flags: W
LayerCount: 2
Fore
SplineSet
442 208 m 0
 442 250 417 280 392 303 c 0
 359 334 315 360 268 379 c 1
 231 345 194 291 194 223 c 0
 194 185 225 161 263 161 c 0
 284 161 306 162 327 164 c 0
 363 167 402 176 427 190 c 0
 438 196 442 201 442 208 c 0
59 223 m 0
 59 330 103 413 150 477 c 0
 176 512 211 545 252 563 c 1
 281 554 310 544 338 530 c 0
 440 479 530 403 566 287 c 0
 574 261 578 235 578 208 c 0
 578 162 555 124 530 98 c 0
 484 49 418 13 339 -3 c 0
 314 -8 288 -11 263 -11 c 0
 201 -11 152 21 120 56 c 0
 85 95 59 152 59 223 c 0
224 626 m 1
 112 626 l 1
 112 738 l 1
 224 738 l 1
 224 626 l 1
395 626 m 1
 282 626 l 1
 282 738 l 1
 395 738 l 1
 395 626 l 1
EndSplineSet
EndChar

StartChar: uni0629.fina
Encoding: 65172 65172 288
Width: 659
GlyphClass: 2
Flags: W
LayerCount: 2
Fore
SplineSet
363 364 m 1
 320 350 283 332 249 313 c 0
 235 305 225 297 218 289 c 0
 211 281 207 273 207 266 c 0
 207 251 244 246 263 243 c 0
 280 240 300 238 322 236 c 0
 344 234 369 231 394 230 c 1
 363 364 l 1
660 0 m 1
 636 0 613 1 590 2 c 0
 500 6 451 59 422 131 c 1
 365 67 l 1
 243 78 123 103 83 197 c 0
 75 216 71 240 71 266 c 0
 71 332 103 382 140 419 c 0
 188 467 253 503 326 529 c 1
 307 613 l 1
 439 651 l 1
 532 243 l 2
 546 185 589 172 660 172 c 1
 660 0 l 1
173 714 m 1
 61 714 l 1
 61 826 l 1
 173 826 l 1
 173 714 l 1
344 714 m 1
 231 714 l 1
 231 826 l 1
 344 826 l 1
 344 714 l 1
EndSplineSet
EndChar

StartChar: uni062A.isol
Encoding: 65173 65173 289
Width: 1136
GlyphClass: 2
Flags: W
LayerCount: 2
Fore
SplineSet
1036 473 m 1
 1055 401 1075 335 1075 250 c 0
 1075 177 1043 122 1003 87 c 0
 972 59 933 54 884 41 c 0
 807 21 717 6 630 -5 c 0
 569 -13 502 -18 434 -18 c 0
 310 -18 214 7 150 62 c 0
 99 106 66 168 66 256 c 0
 66 292 72 331 79 364 c 0
 86 400 94 441 104 473 c 1
 240 449 l 1
 227 403 212 347 206 296 c 0
 204 280 202 266 202 256 c 0
 202 220 226 198 255 184 c 0
 300 162 361 154 434 154 c 0
 573 154 707 174 821 200 c 0
 856 208 885 215 908 222 c 0
 923 226 939 235 939 250 c 0
 939 270 936 296 929 329 c 0
 922 362 912 402 899 449 c 1
 1036 473 l 1
527 480 m 1
 415 480 l 1
 415 592 l 1
 527 592 l 1
 527 480 l 1
698 480 m 1
 585 480 l 1
 585 592 l 1
 698 592 l 1
 698 480 l 1
EndSplineSet
EndChar

StartChar: uni062A.fina
Encoding: 65174 65174 290
Width: 1193
GlyphClass: 2
Flags: W
LayerCount: 2
Fore
SplineSet
1193 0 m 1
 1095 0 1026 39 988 99 c 1
 949 65 907 53 844 36 c 0
 726 4 585 -18 434 -18 c 0
 310 -18 214 7 150 62 c 0
 99 106 66 168 66 256 c 0
 66 292 72 331 79 364 c 0
 86 400 94 441 104 473 c 1
 240 449 l 1
 227 403 212 347 206 296 c 0
 204 280 202 266 202 256 c 0
 202 220 226 198 255 184 c 0
 300 162 361 154 434 154 c 0
 570 154 697 172 805 199 c 0
 837 207 864 216 885 225 c 0
 940 248 957 322 978 379 c 2
 990 416 l 1
 1125 377 l 1
 1105 322 l 2
 1097 299 1090 281 1087 261 c 0
 1086 255 1084 250 1084 247 c 0
 1084 244 1083 241 1083 239 c 0
 1083 205 1112 187 1141 179 c 0
 1155 175 1172 172 1193 172 c 1
 1193 0 l 1
568 480 m 1
 456 480 l 1
 456 592 l 1
 568 592 l 1
 568 480 l 1
739 480 m 1
 626 480 l 1
 626 592 l 1
 739 592 l 1
 739 480 l 1
EndSplineSet
EndChar

StartChar: uni062A.init
Encoding: 65175 65175 291
Width: 406
GlyphClass: 2
Flags: W
LayerCount: 2
Fore
SplineSet
272 473 m 1
 293 396 310 315 310 222 c 0
 310 157 277 107 243 73 c 0
 203 33 143 0 64 0 c 2
 -34 0 l 1
 -34 172 l 1
 64 172 l 2
 95 172 124 179 144 189 c 0
 158 196 174 205 174 222 c 0
 174 254 169 287 164 319 c 0
 158 364 146 412 135 454 c 1
 272 473 l 1
173 572 m 1
 61 572 l 1
 61 684 l 1
 173 684 l 1
 173 572 l 1
344 572 m 1
 231 572 l 1
 231 684 l 1
 344 684 l 1
 344 572 l 1
EndSplineSet
EndChar

StartChar: uni062A.medi
Encoding: 65176 65176 292
Width: 406
GlyphClass: 2
Flags: W
LayerCount: 2
Fore
SplineSet
200 72 m 1
 158 31 98 0 18 0 c 2
 -34 0 l 1
 -34 172 l 1
 18 172 l 2
 67 172 110 190 128 220 c 0
 134 230 138 240 138 252 c 2
 138 377 l 1
 273 377 l 1
 273 252 l 2
 273 189 340 172 406 172 c 1
 406 0 l 1
 313 0 245 25 200 72 c 1
173 480 m 1
 61 480 l 1
 61 592 l 1
 173 592 l 1
 173 480 l 1
344 480 m 1
 231 480 l 1
 231 592 l 1
 344 592 l 1
 344 480 l 1
EndSplineSet
EndChar

StartChar: uni062B.isol
Encoding: 65177 65177 293
Width: 1136
GlyphClass: 2
Flags: W
LayerCount: 2
Fore
SplineSet
1036 473 m 1
 1055 401 1075 335 1075 250 c 0
 1075 177 1043 122 1003 87 c 0
 972 59 933 54 884 41 c 0
 807 21 717 6 630 -5 c 0
 569 -13 502 -18 434 -18 c 0
 310 -18 214 7 150 62 c 0
 99 106 66 168 66 256 c 0
 66 292 72 331 79 364 c 0
 86 400 94 441 104 473 c 1
 240 449 l 1
 227 403 212 347 206 296 c 0
 204 280 202 266 202 256 c 0
 202 220 226 198 255 184 c 0
 300 162 361 154 434 154 c 0
 573 154 707 174 821 200 c 0
 856 208 885 215 908 222 c 0
 923 226 939 235 939 250 c 0
 939 270 936 296 929 329 c 0
 922 362 912 402 899 449 c 1
 1036 473 l 1
612 622 m 1
 500 622 l 1
 500 734 l 1
 612 734 l 1
 612 622 l 1
527 460 m 1
 415 460 l 1
 415 573 l 1
 527 573 l 1
 527 460 l 1
698 460 m 1
 585 460 l 1
 585 573 l 1
 698 573 l 1
 698 460 l 1
EndSplineSet
EndChar

StartChar: uni062B.fina
Encoding: 65178 65178 294
Width: 1193
GlyphClass: 2
Flags: W
LayerCount: 2
Fore
SplineSet
1193 0 m 1
 1095 0 1026 39 988 99 c 1
 949 65 907 53 844 36 c 0
 726 4 585 -18 434 -18 c 0
 310 -18 214 7 150 62 c 0
 99 106 66 168 66 256 c 0
 66 292 72 331 79 364 c 0
 86 400 94 441 104 473 c 1
 240 449 l 1
 227 403 212 347 206 296 c 0
 204 280 202 266 202 256 c 0
 202 220 226 198 255 184 c 0
 300 162 361 154 434 154 c 0
 570 154 697 172 805 199 c 0
 837 207 864 216 885 225 c 0
 940 248 957 322 978 379 c 2
 990 416 l 1
 1125 377 l 1
 1105 322 l 2
 1097 299 1090 281 1087 261 c 0
 1086 255 1084 250 1084 247 c 0
 1084 244 1083 241 1083 239 c 0
 1083 205 1112 187 1141 179 c 0
 1155 175 1172 172 1193 172 c 1
 1193 0 l 1
653 622 m 1
 541 622 l 1
 541 734 l 1
 653 734 l 1
 653 622 l 1
568 460 m 1
 456 460 l 1
 456 573 l 1
 568 573 l 1
 568 460 l 1
739 460 m 1
 626 460 l 1
 626 573 l 1
 739 573 l 1
 739 460 l 1
EndSplineSet
EndChar

StartChar: uni062B.init
Encoding: 65179 65179 295
Width: 406
GlyphClass: 2
Flags: W
LayerCount: 2
Fore
SplineSet
272 473 m 1
 293 396 310 315 310 222 c 0
 310 157 277 107 243 73 c 0
 203 33 143 0 64 0 c 2
 -34 0 l 1
 -34 172 l 1
 64 172 l 2
 95 172 124 179 144 189 c 0
 158 196 174 205 174 222 c 0
 174 254 169 287 164 319 c 0
 158 364 146 412 135 454 c 1
 272 473 l 1
258 714 m 1
 146 714 l 1
 146 826 l 1
 258 826 l 1
 258 714 l 1
173 552 m 1
 61 552 l 1
 61 665 l 1
 173 665 l 1
 173 552 l 1
344 552 m 1
 231 552 l 1
 231 665 l 1
 344 665 l 1
 344 552 l 1
EndSplineSet
EndChar

StartChar: uni062B.medi
Encoding: 65180 65180 296
Width: 406
GlyphClass: 2
Flags: W
LayerCount: 2
Fore
SplineSet
200 72 m 1
 158 31 98 0 18 0 c 2
 -34 0 l 1
 -34 172 l 1
 18 172 l 2
 67 172 110 190 128 220 c 0
 134 230 138 240 138 252 c 2
 138 377 l 1
 273 377 l 1
 273 252 l 2
 273 189 340 172 406 172 c 1
 406 0 l 1
 313 0 245 25 200 72 c 1
258 622 m 1
 146 622 l 1
 146 734 l 1
 258 734 l 1
 258 622 l 1
173 460 m 1
 61 460 l 1
 61 573 l 1
 173 573 l 1
 173 460 l 1
344 460 m 1
 231 460 l 1
 231 573 l 1
 344 573 l 1
 344 460 l 1
EndSplineSet
EndChar

StartChar: uni062C.isol
Encoding: 65181 65181 297
Width: 791
GlyphClass: 2
Flags: W
LayerCount: 2
Fore
SplineSet
224 68 m 0
 224 -40 308 -78 414 -78 c 0
 489 -78 558 -68 616 -53 c 0
 632 -49 645 -46 655 -42 c 1
 698 -205 l 1
 618 -230 522 -250 414 -250 c 0
 285 -250 188 -208 137 -127 c 0
 106 -78 88 -12 88 68 c 0
 88 154 126 216 171 263 c 0
 220 314 288 354 358 384 c 1
 312 421 l 2
 291 438 279 449 248 449 c 0
 223 449 214 441 199 430 c 2
 127 375 l 1
 64 495 l 1
 92 530 l 2
 102 543 114 555 125 566 c 0
 154 595 191 621 248 621 c 0
 295 621 326 604 357 585 c 0
 370 577 382 567 397 555 c 2
 473 494 l 2
 517 457 587 448 671 448 c 2
 706 448 l 1
 706 276 l 1
 655 276 l 2
 591 276 529 265 473 254 c 0
 398 239 325 212 277 170 c 0
 249 145 224 117 224 68 c 0
517 29 m 1
 405 29 l 1
 405 141 l 1
 517 141 l 1
 517 29 l 1
EndSplineSet
EndChar

StartChar: uni062C.fina
Encoding: 65182 65182 298
Width: 812
GlyphClass: 2
Flags: W
LayerCount: 2
Fore
SplineSet
812 0 m 1
 734 0 673 34 632 73 c 0
 592 111 558 168 543 227 c 2
 533 266 l 1
 460 253 387 232 329 202 c 0
 291 182 257 156 238 121 c 0
 229 105 224 87 224 68 c 0
 224 -44 312 -69 414 -78 c 2
 630 -95 l 1
 555 -250 l 1
 414 -250 l 2
 285 -250 188 -208 137 -127 c 0
 106 -78 88 -12 88 68 c 0
 88 154 126 216 171 263 c 0
 220 314 288 354 358 384 c 1
 312 421 l 2
 291 438 279 449 248 449 c 0
 223 449 214 441 199 430 c 2
 127 375 l 1
 64 495 l 1
 92 530 l 2
 102 543 114 555 125 566 c 0
 154 595 191 621 248 621 c 0
 295 621 326 604 357 585 c 0
 370 577 382 567 397 555 c 2
 473 494 l 2
 516 457 587 448 671 448 c 2
 706 448 l 1
 706 276 l 1
 673 276 l 1
 683 231 717 197 759 181 c 0
 775 175 792 172 812 172 c 1
 812 0 l 1
493 29 m 1
 381 29 l 1
 381 141 l 1
 493 141 l 1
 493 29 l 1
EndSplineSet
EndChar

